<?xml version="1.0" encoding="utf-8"?>
<svg xmlns="http://www.w3.org/2000/svg" xmlns:xlink="http://www.w3.org/1999/xlink" width="800" height="400" viewBox="0 0 3200 1600">
<defs>
  <clipPath id="clip000">
    <rect x="0" y="0" width="3200" height="1600"/>
  </clipPath>
</defs>
<path clip-path="url(#clip000)" d="M0 1600 L3200 1600 L3200 0 L0 0  Z" fill="#f0f0f0" fill-rule="evenodd" fill-opacity="1"/>
<defs>
  <clipPath id="clip001">
    <rect x="640" y="0" width="2241" height="1600"/>
  </clipPath>
</defs>
<path clip-path="url(#clip000)" d="M230.871 1495.09 L3152.76 1495.09 L3152.76 47.2441 L230.871 47.2441  Z" fill="#eaeaea" fill-rule="evenodd" fill-opacity="1"/>
<defs>
  <clipPath id="clip002">
    <rect x="230" y="47" width="2923" height="1449"/>
  </clipPath>
</defs>
<polyline clip-path="url(#clip002)" style="stroke:#ffffff; stroke-linecap:round; stroke-linejoin:round; stroke-width:4; stroke-opacity:1; fill:none" points="375.946,1495.09 375.946,47.2441 "/>
<polyline clip-path="url(#clip002)" style="stroke:#ffffff; stroke-linecap:round; stroke-linejoin:round; stroke-width:4; stroke-opacity:1; fill:none" points="1027.37,1495.09 1027.37,47.2441 "/>
<polyline clip-path="url(#clip002)" style="stroke:#ffffff; stroke-linecap:round; stroke-linejoin:round; stroke-width:4; stroke-opacity:1; fill:none" points="1678.79,1495.09 1678.79,47.2441 "/>
<polyline clip-path="url(#clip002)" style="stroke:#ffffff; stroke-linecap:round; stroke-linejoin:round; stroke-width:4; stroke-opacity:1; fill:none" points="2330.2,1495.09 2330.2,47.2441 "/>
<polyline clip-path="url(#clip002)" style="stroke:#ffffff; stroke-linecap:round; stroke-linejoin:round; stroke-width:4; stroke-opacity:1; fill:none" points="2981.62,1495.09 2981.62,47.2441 "/>
<polyline clip-path="url(#clip002)" style="stroke:#ffffff; stroke-linecap:round; stroke-linejoin:round; stroke-width:2; stroke-opacity:1; fill:none" points="701.656,1495.09 701.656,47.2441 "/>
<polyline clip-path="url(#clip002)" style="stroke:#ffffff; stroke-linecap:round; stroke-linejoin:round; stroke-width:2; stroke-opacity:1; fill:none" points="1353.08,1495.09 1353.08,47.2441 "/>
<polyline clip-path="url(#clip002)" style="stroke:#ffffff; stroke-linecap:round; stroke-linejoin:round; stroke-width:2; stroke-opacity:1; fill:none" points="2004.49,1495.09 2004.49,47.2441 "/>
<polyline clip-path="url(#clip002)" style="stroke:#ffffff; stroke-linecap:round; stroke-linejoin:round; stroke-width:2; stroke-opacity:1; fill:none" points="2655.91,1495.09 2655.91,47.2441 "/>
<polyline clip-path="url(#clip000)" style="stroke:#ffffff; stroke-linecap:round; stroke-linejoin:round; stroke-width:4; stroke-opacity:1; fill:none" points="230.871,1495.09 3152.76,1495.09 "/>
<polyline clip-path="url(#clip000)" style="stroke:#333333; stroke-linecap:round; stroke-linejoin:round; stroke-width:4; stroke-opacity:1; fill:none" points="375.946,1495.09 375.946,1513.99 "/>
<polyline clip-path="url(#clip000)" style="stroke:#333333; stroke-linecap:round; stroke-linejoin:round; stroke-width:4; stroke-opacity:1; fill:none" points="1027.37,1495.09 1027.37,1513.99 "/>
<polyline clip-path="url(#clip000)" style="stroke:#333333; stroke-linecap:round; stroke-linejoin:round; stroke-width:4; stroke-opacity:1; fill:none" points="1678.79,1495.09 1678.79,1513.99 "/>
<polyline clip-path="url(#clip000)" style="stroke:#333333; stroke-linecap:round; stroke-linejoin:round; stroke-width:4; stroke-opacity:1; fill:none" points="2330.2,1495.09 2330.2,1513.99 "/>
<polyline clip-path="url(#clip000)" style="stroke:#333333; stroke-linecap:round; stroke-linejoin:round; stroke-width:4; stroke-opacity:1; fill:none" points="2981.62,1495.09 2981.62,1513.99 "/>
<polyline clip-path="url(#clip000)" style="stroke:#333333; stroke-linecap:round; stroke-linejoin:round; stroke-width:4; stroke-opacity:1; fill:none" points="701.656,1495.09 701.656,1504.54 "/>
<polyline clip-path="url(#clip000)" style="stroke:#333333; stroke-linecap:round; stroke-linejoin:round; stroke-width:4; stroke-opacity:1; fill:none" points="1353.08,1495.09 1353.08,1504.54 "/>
<polyline clip-path="url(#clip000)" style="stroke:#333333; stroke-linecap:round; stroke-linejoin:round; stroke-width:4; stroke-opacity:1; fill:none" points="2004.49,1495.09 2004.49,1504.54 "/>
<polyline clip-path="url(#clip000)" style="stroke:#333333; stroke-linecap:round; stroke-linejoin:round; stroke-width:4; stroke-opacity:1; fill:none" points="2655.91,1495.09 2655.91,1504.54 "/>
<path clip-path="url(#clip000)" d="M375.946 1545.21 Q372.335 1545.21 370.506 1548.77 Q368.7 1552.31 368.7 1559.44 Q368.7 1566.55 370.506 1570.11 Q372.335 1573.66 375.946 1573.66 Q379.58 1573.66 381.386 1570.11 Q383.214 1566.55 383.214 1559.44 Q383.214 1552.31 381.386 1548.77 Q379.58 1545.21 375.946 1545.21 M375.946 1541.5 Q381.756 1541.5 384.812 1546.11 Q387.89 1550.69 387.89 1559.44 Q387.89 1568.17 384.812 1572.78 Q381.756 1577.36 375.946 1577.36 Q370.136 1577.36 367.057 1572.78 Q364.001 1568.17 364.001 1559.44 Q364.001 1550.69 367.057 1546.11 Q370.136 1541.5 375.946 1541.5 Z" fill="#4c4c4c" fill-rule="nonzero" fill-opacity="1" /><path clip-path="url(#clip000)" d="M1006.64 1572.75 L1022.96 1572.75 L1022.96 1576.69 L1001.01 1576.69 L1001.01 1572.75 Q1003.67 1570 1008.26 1565.37 Q1012.86 1560.72 1014.04 1559.37 Q1016.29 1556.85 1017.17 1555.11 Q1018.07 1553.35 1018.07 1551.66 Q1018.07 1548.91 1016.13 1547.17 Q1014.21 1545.44 1011.1 1545.44 Q1008.9 1545.44 1006.45 1546.2 Q1004.02 1546.97 1001.24 1548.52 L1001.24 1543.79 Q1004.07 1542.66 1006.52 1542.08 Q1008.97 1541.5 1011.01 1541.5 Q1016.38 1541.5 1019.58 1544.19 Q1022.77 1546.87 1022.77 1551.36 Q1022.77 1553.49 1021.96 1555.41 Q1021.17 1557.31 1019.07 1559.91 Q1018.49 1560.58 1015.39 1563.79 Q1012.28 1566.99 1006.64 1572.75 Z" fill="#4c4c4c" fill-rule="nonzero" fill-opacity="1" /><path clip-path="url(#clip000)" d="M1032.82 1542.13 L1051.17 1542.13 L1051.17 1546.06 L1037.1 1546.06 L1037.1 1554.54 Q1038.12 1554.19 1039.14 1554.03 Q1040.15 1553.84 1041.17 1553.84 Q1046.96 1553.84 1050.34 1557.01 Q1053.72 1560.18 1053.72 1565.6 Q1053.72 1571.18 1050.25 1574.28 Q1046.78 1577.36 1040.46 1577.36 Q1038.28 1577.36 1036.01 1576.99 Q1033.77 1576.62 1031.36 1575.88 L1031.36 1571.18 Q1033.44 1572.31 1035.66 1572.87 Q1037.89 1573.42 1040.36 1573.42 Q1044.37 1573.42 1046.71 1571.32 Q1049.04 1569.21 1049.04 1565.6 Q1049.04 1561.99 1046.71 1559.88 Q1044.37 1557.78 1040.36 1557.78 Q1038.49 1557.78 1036.61 1558.19 Q1034.76 1558.61 1032.82 1559.49 L1032.82 1542.13 Z" fill="#4c4c4c" fill-rule="nonzero" fill-opacity="1" /><path clip-path="url(#clip000)" d="M1653.48 1542.13 L1671.84 1542.13 L1671.84 1546.06 L1657.77 1546.06 L1657.77 1554.54 Q1658.79 1554.19 1659.8 1554.03 Q1660.82 1553.84 1661.84 1553.84 Q1667.63 1553.84 1671.01 1557.01 Q1674.39 1560.18 1674.39 1565.6 Q1674.39 1571.18 1670.91 1574.28 Q1667.44 1577.36 1661.12 1577.36 Q1658.95 1577.36 1656.68 1576.99 Q1654.43 1576.62 1652.03 1575.88 L1652.03 1571.18 Q1654.11 1572.31 1656.33 1572.87 Q1658.55 1573.42 1661.03 1573.42 Q1665.04 1573.42 1667.37 1571.32 Q1669.71 1569.21 1669.71 1565.6 Q1669.71 1561.99 1667.37 1559.88 Q1665.04 1557.78 1661.03 1557.78 Q1659.16 1557.78 1657.28 1558.19 Q1655.43 1558.61 1653.48 1559.49 L1653.48 1542.13 Z" fill="#4c4c4c" fill-rule="nonzero" fill-opacity="1" /><path clip-path="url(#clip000)" d="M1693.6 1545.21 Q1689.99 1545.21 1688.16 1548.77 Q1686.35 1552.31 1686.35 1559.44 Q1686.35 1566.55 1688.16 1570.11 Q1689.99 1573.66 1693.6 1573.66 Q1697.23 1573.66 1699.04 1570.11 Q1700.87 1566.55 1700.87 1559.44 Q1700.87 1552.31 1699.04 1548.77 Q1697.23 1545.21 1693.6 1545.21 M1693.6 1541.5 Q1699.41 1541.5 1702.47 1546.11 Q1705.54 1550.69 1705.54 1559.44 Q1705.54 1568.17 1702.47 1572.78 Q1699.41 1577.36 1693.6 1577.36 Q1687.79 1577.36 1684.71 1572.78 Q1681.66 1568.17 1681.66 1559.44 Q1681.66 1550.69 1684.71 1546.11 Q1687.79 1541.5 1693.6 1541.5 Z" fill="#4c4c4c" fill-rule="nonzero" fill-opacity="1" /><path clip-path="url(#clip000)" d="M2304.06 1542.13 L2326.28 1542.13 L2326.28 1544.12 L2313.73 1576.69 L2308.85 1576.69 L2320.66 1546.06 L2304.06 1546.06 L2304.06 1542.13 Z" fill="#4c4c4c" fill-rule="nonzero" fill-opacity="1" /><path clip-path="url(#clip000)" d="M2335.45 1542.13 L2353.8 1542.13 L2353.8 1546.06 L2339.73 1546.06 L2339.73 1554.54 Q2340.75 1554.19 2341.77 1554.03 Q2342.79 1553.84 2343.8 1553.84 Q2349.59 1553.84 2352.97 1557.01 Q2356.35 1560.18 2356.35 1565.6 Q2356.35 1571.18 2352.88 1574.28 Q2349.41 1577.36 2343.09 1577.36 Q2340.91 1577.36 2338.64 1576.99 Q2336.4 1576.62 2333.99 1575.88 L2333.99 1571.18 Q2336.07 1572.31 2338.29 1572.87 Q2340.52 1573.42 2342.99 1573.42 Q2347 1573.42 2349.34 1571.32 Q2351.67 1569.21 2351.67 1565.6 Q2351.67 1561.99 2349.34 1559.88 Q2347 1557.78 2342.99 1557.78 Q2341.12 1557.78 2339.24 1558.19 Q2337.39 1558.61 2335.45 1559.49 L2335.45 1542.13 Z" fill="#4c4c4c" fill-rule="nonzero" fill-opacity="1" /><path clip-path="url(#clip000)" d="M2941.23 1572.75 L2948.87 1572.75 L2948.87 1546.39 L2940.56 1548.05 L2940.56 1543.79 L2948.82 1542.13 L2953.5 1542.13 L2953.5 1572.75 L2961.14 1572.75 L2961.14 1576.69 L2941.23 1576.69 L2941.23 1572.75 Z" fill="#4c4c4c" fill-rule="nonzero" fill-opacity="1" /><path clip-path="url(#clip000)" d="M2980.58 1545.21 Q2976.97 1545.21 2975.14 1548.77 Q2973.34 1552.31 2973.34 1559.44 Q2973.34 1566.55 2975.14 1570.11 Q2976.97 1573.66 2980.58 1573.66 Q2984.22 1573.66 2986.02 1570.11 Q2987.85 1566.55 2987.85 1559.44 Q2987.85 1552.31 2986.02 1548.77 Q2984.22 1545.21 2980.58 1545.21 M2980.58 1541.5 Q2986.39 1541.5 2989.45 1546.11 Q2992.53 1550.69 2992.53 1559.44 Q2992.53 1568.17 2989.45 1572.78 Q2986.39 1577.36 2980.58 1577.36 Q2974.77 1577.36 2971.69 1572.78 Q2968.64 1568.17 2968.64 1559.44 Q2968.64 1550.69 2971.69 1546.11 Q2974.77 1541.5 2980.58 1541.5 Z" fill="#4c4c4c" fill-rule="nonzero" fill-opacity="1" /><path clip-path="url(#clip000)" d="M3010.74 1545.21 Q3007.13 1545.21 3005.3 1548.77 Q3003.5 1552.31 3003.5 1559.44 Q3003.5 1566.55 3005.3 1570.11 Q3007.13 1573.66 3010.74 1573.66 Q3014.38 1573.66 3016.18 1570.11 Q3018.01 1566.55 3018.01 1559.44 Q3018.01 1552.31 3016.18 1548.77 Q3014.38 1545.21 3010.74 1545.21 M3010.74 1541.5 Q3016.55 1541.5 3019.61 1546.11 Q3022.69 1550.69 3022.69 1559.44 Q3022.69 1568.17 3019.61 1572.78 Q3016.55 1577.36 3010.74 1577.36 Q3004.93 1577.36 3001.86 1572.78 Q2998.8 1568.17 2998.8 1559.44 Q2998.8 1550.69 3001.86 1546.11 Q3004.93 1541.5 3010.74 1541.5 Z" fill="#4c4c4c" fill-rule="nonzero" fill-opacity="1" /><polyline clip-path="url(#clip002)" style="stroke:#ffffff; stroke-linecap:round; stroke-linejoin:round; stroke-width:4; stroke-opacity:1; fill:none" points="230.871,1445.41 3152.76,1445.41 "/>
<polyline clip-path="url(#clip002)" style="stroke:#ffffff; stroke-linecap:round; stroke-linejoin:round; stroke-width:4; stroke-opacity:1; fill:none" points="230.871,1113.09 3152.76,1113.09 "/>
<polyline clip-path="url(#clip002)" style="stroke:#ffffff; stroke-linecap:round; stroke-linejoin:round; stroke-width:4; stroke-opacity:1; fill:none" points="230.871,780.762 3152.76,780.762 "/>
<polyline clip-path="url(#clip002)" style="stroke:#ffffff; stroke-linecap:round; stroke-linejoin:round; stroke-width:4; stroke-opacity:1; fill:none" points="230.871,448.439 3152.76,448.439 "/>
<polyline clip-path="url(#clip002)" style="stroke:#ffffff; stroke-linecap:round; stroke-linejoin:round; stroke-width:4; stroke-opacity:1; fill:none" points="230.871,116.116 3152.76,116.116 "/>
<polyline clip-path="url(#clip002)" style="stroke:#ffffff; stroke-linecap:round; stroke-linejoin:round; stroke-width:2; stroke-opacity:1; fill:none" points="230.871,1279.25 3152.76,1279.25 "/>
<polyline clip-path="url(#clip002)" style="stroke:#ffffff; stroke-linecap:round; stroke-linejoin:round; stroke-width:2; stroke-opacity:1; fill:none" points="230.871,946.924 3152.76,946.924 "/>
<polyline clip-path="url(#clip002)" style="stroke:#ffffff; stroke-linecap:round; stroke-linejoin:round; stroke-width:2; stroke-opacity:1; fill:none" points="230.871,614.6 3152.76,614.6 "/>
<polyline clip-path="url(#clip002)" style="stroke:#ffffff; stroke-linecap:round; stroke-linejoin:round; stroke-width:2; stroke-opacity:1; fill:none" points="230.871,282.277 3152.76,282.277 "/>
<polyline clip-path="url(#clip000)" style="stroke:#ffffff; stroke-linecap:round; stroke-linejoin:round; stroke-width:4; stroke-opacity:1; fill:none" points="230.871,1495.09 230.871,47.2441 "/>
<polyline clip-path="url(#clip000)" style="stroke:#333333; stroke-linecap:round; stroke-linejoin:round; stroke-width:4; stroke-opacity:1; fill:none" points="230.871,1445.41 211.973,1445.41 "/>
<polyline clip-path="url(#clip000)" style="stroke:#333333; stroke-linecap:round; stroke-linejoin:round; stroke-width:4; stroke-opacity:1; fill:none" points="230.871,1113.09 211.973,1113.09 "/>
<polyline clip-path="url(#clip000)" style="stroke:#333333; stroke-linecap:round; stroke-linejoin:round; stroke-width:4; stroke-opacity:1; fill:none" points="230.871,780.762 211.973,780.762 "/>
<polyline clip-path="url(#clip000)" style="stroke:#333333; stroke-linecap:round; stroke-linejoin:round; stroke-width:4; stroke-opacity:1; fill:none" points="230.871,448.439 211.973,448.439 "/>
<polyline clip-path="url(#clip000)" style="stroke:#333333; stroke-linecap:round; stroke-linejoin:round; stroke-width:4; stroke-opacity:1; fill:none" points="230.871,116.116 211.973,116.116 "/>
<polyline clip-path="url(#clip000)" style="stroke:#333333; stroke-linecap:round; stroke-linejoin:round; stroke-width:4; stroke-opacity:1; fill:none" points="230.871,1279.25 221.422,1279.25 "/>
<polyline clip-path="url(#clip000)" style="stroke:#333333; stroke-linecap:round; stroke-linejoin:round; stroke-width:4; stroke-opacity:1; fill:none" points="230.871,946.924 221.422,946.924 "/>
<polyline clip-path="url(#clip000)" style="stroke:#333333; stroke-linecap:round; stroke-linejoin:round; stroke-width:4; stroke-opacity:1; fill:none" points="230.871,614.6 221.422,614.6 "/>
<polyline clip-path="url(#clip000)" style="stroke:#333333; stroke-linecap:round; stroke-linejoin:round; stroke-width:4; stroke-opacity:1; fill:none" points="230.871,282.277 221.422,282.277 "/>
<path clip-path="url(#clip000)" d="M23.3625 1445.86 L53.0383 1445.86 L53.0383 1449.79 L23.3625 1449.79 L23.3625 1445.86 Z" fill="#4c4c4c" fill-rule="nonzero" fill-opacity="1" /><path clip-path="url(#clip000)" d="M73.1307 1431.21 Q69.5197 1431.21 67.691 1434.77 Q65.8854 1438.31 65.8854 1445.44 Q65.8854 1452.55 67.691 1456.11 Q69.5197 1459.66 73.1307 1459.66 Q76.765 1459.66 78.5705 1456.11 Q80.3992 1452.55 80.3992 1445.44 Q80.3992 1438.31 78.5705 1434.77 Q76.765 1431.21 73.1307 1431.21 M73.1307 1427.5 Q78.9409 1427.5 81.9964 1432.11 Q85.0751 1436.69 85.0751 1445.44 Q85.0751 1454.17 81.9964 1458.78 Q78.9409 1463.36 73.1307 1463.36 Q67.3206 1463.36 64.2419 1458.78 Q61.1864 1454.17 61.1864 1445.44 Q61.1864 1436.69 64.2419 1432.11 Q67.3206 1427.5 73.1307 1427.5 Z" fill="#4c4c4c" fill-rule="nonzero" fill-opacity="1" /><path clip-path="url(#clip000)" d="M93.2927 1456.81 L98.1769 1456.81 L98.1769 1462.69 L93.2927 1462.69 L93.2927 1456.81 Z" fill="#4c4c4c" fill-rule="nonzero" fill-opacity="1" /><path clip-path="url(#clip000)" d="M118.362 1431.21 Q114.751 1431.21 112.922 1434.77 Q111.117 1438.31 111.117 1445.44 Q111.117 1452.55 112.922 1456.11 Q114.751 1459.66 118.362 1459.66 Q121.996 1459.66 123.802 1456.11 Q125.63 1452.55 125.63 1445.44 Q125.63 1438.31 123.802 1434.77 Q121.996 1431.21 118.362 1431.21 M118.362 1427.5 Q124.172 1427.5 127.228 1432.11 Q130.306 1436.69 130.306 1445.44 Q130.306 1454.17 127.228 1458.78 Q124.172 1463.36 118.362 1463.36 Q112.552 1463.36 109.473 1458.78 Q106.418 1454.17 106.418 1445.44 Q106.418 1436.69 109.473 1432.11 Q112.552 1427.5 118.362 1427.5 Z" fill="#4c4c4c" fill-rule="nonzero" fill-opacity="1" /><path clip-path="url(#clip000)" d="M142.552 1458.75 L158.871 1458.75 L158.871 1462.69 L136.927 1462.69 L136.927 1458.75 Q139.589 1456 144.172 1451.37 Q148.778 1446.72 149.959 1445.37 Q152.204 1442.85 153.084 1441.11 Q153.987 1439.36 153.987 1437.67 Q153.987 1434.91 152.042 1433.17 Q150.121 1431.44 147.019 1431.44 Q144.82 1431.44 142.366 1432.2 Q139.936 1432.97 137.158 1434.52 L137.158 1429.79 Q139.982 1428.66 142.436 1428.08 Q144.89 1427.5 146.927 1427.5 Q152.297 1427.5 155.491 1430.19 Q158.686 1432.87 158.686 1437.36 Q158.686 1439.49 157.876 1441.42 Q157.089 1443.31 154.982 1445.91 Q154.403 1446.58 151.302 1449.79 Q148.2 1452.99 142.552 1458.75 Z" fill="#4c4c4c" fill-rule="nonzero" fill-opacity="1" /><path clip-path="url(#clip000)" d="M22.9921 1113.54 L52.6679 1113.54 L52.6679 1117.47 L22.9921 1117.47 L22.9921 1113.54 Z" fill="#4c4c4c" fill-rule="nonzero" fill-opacity="1" /><path clip-path="url(#clip000)" d="M72.7604 1098.88 Q69.1493 1098.88 67.3206 1102.45 Q65.515 1105.99 65.515 1113.12 Q65.515 1120.23 67.3206 1123.79 Q69.1493 1127.33 72.7604 1127.33 Q76.3946 1127.33 78.2002 1123.79 Q80.0289 1120.23 80.0289 1113.12 Q80.0289 1105.99 78.2002 1102.45 Q76.3946 1098.88 72.7604 1098.88 M72.7604 1095.18 Q78.5705 1095.18 81.6261 1099.79 Q84.7048 1104.37 84.7048 1113.12 Q84.7048 1121.85 81.6261 1126.45 Q78.5705 1131.04 72.7604 1131.04 Q66.9502 1131.04 63.8715 1126.45 Q60.816 1121.85 60.816 1113.12 Q60.816 1104.37 63.8715 1099.79 Q66.9502 1095.18 72.7604 1095.18 Z" fill="#4c4c4c" fill-rule="nonzero" fill-opacity="1" /><path clip-path="url(#clip000)" d="M92.9223 1124.49 L97.8065 1124.49 L97.8065 1130.37 L92.9223 1130.37 L92.9223 1124.49 Z" fill="#4c4c4c" fill-rule="nonzero" fill-opacity="1" /><path clip-path="url(#clip000)" d="M117.992 1098.88 Q114.381 1098.88 112.552 1102.45 Q110.746 1105.99 110.746 1113.12 Q110.746 1120.23 112.552 1123.79 Q114.381 1127.33 117.992 1127.33 Q121.626 1127.33 123.431 1123.79 Q125.26 1120.23 125.26 1113.12 Q125.26 1105.99 123.431 1102.45 Q121.626 1098.88 117.992 1098.88 M117.992 1095.18 Q123.802 1095.18 126.857 1099.79 Q129.936 1104.37 129.936 1113.12 Q129.936 1121.85 126.857 1126.45 Q123.802 1131.04 117.992 1131.04 Q112.181 1131.04 109.103 1126.45 Q106.047 1121.85 106.047 1113.12 Q106.047 1104.37 109.103 1099.79 Q112.181 1095.18 117.992 1095.18 Z" fill="#4c4c4c" fill-rule="nonzero" fill-opacity="1" /><path clip-path="url(#clip000)" d="M138.964 1126.43 L146.603 1126.43 L146.603 1100.06 L138.292 1101.73 L138.292 1097.47 L146.556 1095.81 L151.232 1095.81 L151.232 1126.43 L158.871 1126.43 L158.871 1130.37 L138.964 1130.37 L138.964 1126.43 Z" fill="#4c4c4c" fill-rule="nonzero" fill-opacity="1" /><path clip-path="url(#clip000)" d="M71.5335 766.561 Q67.9224 766.561 66.0937 770.125 Q64.2882 773.667 64.2882 780.797 Q64.2882 787.903 66.0937 791.468 Q67.9224 795.01 71.5335 795.01 Q75.1678 795.01 76.9733 791.468 Q78.802 787.903 78.802 780.797 Q78.802 773.667 76.9733 770.125 Q75.1678 766.561 71.5335 766.561 M71.5335 762.857 Q77.3437 762.857 80.3992 767.463 Q83.4779 772.047 83.4779 780.797 Q83.4779 789.523 80.3992 794.13 Q77.3437 798.713 71.5335 798.713 Q65.7234 798.713 62.6447 794.13 Q59.5892 789.523 59.5892 780.797 Q59.5892 772.047 62.6447 767.463 Q65.7234 762.857 71.5335 762.857 Z" fill="#4c4c4c" fill-rule="nonzero" fill-opacity="1" /><path clip-path="url(#clip000)" d="M91.6955 792.162 L96.5797 792.162 L96.5797 798.042 L91.6955 798.042 L91.6955 792.162 Z" fill="#4c4c4c" fill-rule="nonzero" fill-opacity="1" /><path clip-path="url(#clip000)" d="M116.765 766.561 Q113.154 766.561 111.325 770.125 Q109.519 773.667 109.519 780.797 Q109.519 787.903 111.325 791.468 Q113.154 795.01 116.765 795.01 Q120.399 795.01 122.205 791.468 Q124.033 787.903 124.033 780.797 Q124.033 773.667 122.205 770.125 Q120.399 766.561 116.765 766.561 M116.765 762.857 Q122.575 762.857 125.63 767.463 Q128.709 772.047 128.709 780.797 Q128.709 789.523 125.63 794.13 Q122.575 798.713 116.765 798.713 Q110.955 798.713 107.876 794.13 Q104.82 789.523 104.82 780.797 Q104.82 772.047 107.876 767.463 Q110.955 762.857 116.765 762.857 Z" fill="#4c4c4c" fill-rule="nonzero" fill-opacity="1" /><path clip-path="url(#clip000)" d="M146.927 766.561 Q143.316 766.561 141.487 770.125 Q139.681 773.667 139.681 780.797 Q139.681 787.903 141.487 791.468 Q143.316 795.01 146.927 795.01 Q150.561 795.01 152.366 791.468 Q154.195 787.903 154.195 780.797 Q154.195 773.667 152.366 770.125 Q150.561 766.561 146.927 766.561 M146.927 762.857 Q152.737 762.857 155.792 767.463 Q158.871 772.047 158.871 780.797 Q158.871 789.523 155.792 794.13 Q152.737 798.713 146.927 798.713 Q141.116 798.713 138.038 794.13 Q134.982 789.523 134.982 780.797 Q134.982 772.047 138.038 767.463 Q141.116 762.857 146.927 762.857 Z" fill="#4c4c4c" fill-rule="nonzero" fill-opacity="1" /><path clip-path="url(#clip000)" d="M72.7604 434.237 Q69.1493 434.237 67.3206 437.802 Q65.515 441.344 65.515 448.473 Q65.515 455.58 67.3206 459.145 Q69.1493 462.686 72.7604 462.686 Q76.3946 462.686 78.2002 459.145 Q80.0289 455.58 80.0289 448.473 Q80.0289 441.344 78.2002 437.802 Q76.3946 434.237 72.7604 434.237 M72.7604 430.534 Q78.5705 430.534 81.6261 435.14 Q84.7048 439.724 84.7048 448.473 Q84.7048 457.2 81.6261 461.807 Q78.5705 466.39 72.7604 466.39 Q66.9502 466.39 63.8715 461.807 Q60.816 457.2 60.816 448.473 Q60.816 439.724 63.8715 435.14 Q66.9502 430.534 72.7604 430.534 Z" fill="#4c4c4c" fill-rule="nonzero" fill-opacity="1" /><path clip-path="url(#clip000)" d="M92.9223 459.839 L97.8065 459.839 L97.8065 465.719 L92.9223 465.719 L92.9223 459.839 Z" fill="#4c4c4c" fill-rule="nonzero" fill-opacity="1" /><path clip-path="url(#clip000)" d="M117.992 434.237 Q114.381 434.237 112.552 437.802 Q110.746 441.344 110.746 448.473 Q110.746 455.58 112.552 459.145 Q114.381 462.686 117.992 462.686 Q121.626 462.686 123.431 459.145 Q125.26 455.58 125.26 448.473 Q125.26 441.344 123.431 437.802 Q121.626 434.237 117.992 434.237 M117.992 430.534 Q123.802 430.534 126.857 435.14 Q129.936 439.724 129.936 448.473 Q129.936 457.2 126.857 461.807 Q123.802 466.39 117.992 466.39 Q112.181 466.39 109.103 461.807 Q106.047 457.2 106.047 448.473 Q106.047 439.724 109.103 435.14 Q112.181 430.534 117.992 430.534 Z" fill="#4c4c4c" fill-rule="nonzero" fill-opacity="1" /><path clip-path="url(#clip000)" d="M138.964 461.784 L146.603 461.784 L146.603 435.418 L138.292 437.085 L138.292 432.825 L146.556 431.159 L151.232 431.159 L151.232 461.784 L158.871 461.784 L158.871 465.719 L138.964 465.719 L138.964 461.784 Z" fill="#4c4c4c" fill-rule="nonzero" fill-opacity="1" /><path clip-path="url(#clip000)" d="M73.1307 101.914 Q69.5197 101.914 67.691 105.479 Q65.8854 109.021 65.8854 116.15 Q65.8854 123.257 67.691 126.822 Q69.5197 130.363 73.1307 130.363 Q76.765 130.363 78.5705 126.822 Q80.3992 123.257 80.3992 116.15 Q80.3992 109.021 78.5705 105.479 Q76.765 101.914 73.1307 101.914 M73.1307 98.2106 Q78.9409 98.2106 81.9964 102.817 Q85.0751 107.4 85.0751 116.15 Q85.0751 124.877 81.9964 129.484 Q78.9409 134.067 73.1307 134.067 Q67.3206 134.067 64.2419 129.484 Q61.1864 124.877 61.1864 116.15 Q61.1864 107.4 64.2419 102.817 Q67.3206 98.2106 73.1307 98.2106 Z" fill="#4c4c4c" fill-rule="nonzero" fill-opacity="1" /><path clip-path="url(#clip000)" d="M93.2927 127.516 L98.1769 127.516 L98.1769 133.396 L93.2927 133.396 L93.2927 127.516 Z" fill="#4c4c4c" fill-rule="nonzero" fill-opacity="1" /><path clip-path="url(#clip000)" d="M118.362 101.914 Q114.751 101.914 112.922 105.479 Q111.117 109.021 111.117 116.15 Q111.117 123.257 112.922 126.822 Q114.751 130.363 118.362 130.363 Q121.996 130.363 123.802 126.822 Q125.63 123.257 125.63 116.15 Q125.63 109.021 123.802 105.479 Q121.996 101.914 118.362 101.914 M118.362 98.2106 Q124.172 98.2106 127.228 102.817 Q130.306 107.4 130.306 116.15 Q130.306 124.877 127.228 129.484 Q124.172 134.067 118.362 134.067 Q112.552 134.067 109.473 129.484 Q106.418 124.877 106.418 116.15 Q106.418 107.4 109.473 102.817 Q112.552 98.2106 118.362 98.2106 Z" fill="#4c4c4c" fill-rule="nonzero" fill-opacity="1" /><path clip-path="url(#clip000)" d="M142.552 129.46 L158.871 129.46 L158.871 133.396 L136.927 133.396 L136.927 129.46 Q139.589 126.706 144.172 122.076 Q148.778 117.423 149.959 116.081 Q152.204 113.558 153.084 111.822 Q153.987 110.062 153.987 108.373 Q153.987 105.618 152.042 103.882 Q150.121 102.146 147.019 102.146 Q144.82 102.146 142.366 102.91 Q139.936 103.674 137.158 105.224 L137.158 100.502 Q139.982 99.368 142.436 98.7893 Q144.89 98.2106 146.927 98.2106 Q152.297 98.2106 155.491 100.896 Q158.686 103.581 158.686 108.072 Q158.686 110.201 157.876 112.123 Q157.089 114.021 154.982 116.613 Q154.403 117.285 151.302 120.502 Q148.2 123.697 142.552 129.46 Z" fill="#4c4c4c" fill-rule="nonzero" fill-opacity="1" /><path clip-path="url(#clip002)" d="M391.58 135.985 L391.58 780.762 L412.425 780.762 L412.425 135.985 L391.58 135.985 L391.58 135.985  Z" fill="#0000ff" fill-rule="evenodd" fill-opacity="0.5"/>
<polyline clip-path="url(#clip002)" style="stroke:#000000; stroke-linecap:round; stroke-linejoin:round; stroke-width:4; stroke-opacity:0.5; fill:none" points="391.58,135.985 391.58,780.762 412.425,780.762 412.425,135.985 391.58,135.985 "/>
<path clip-path="url(#clip002)" d="M417.637 1092.1 L417.637 780.762 L438.482 780.762 L438.482 1092.1 L417.637 1092.1 L417.637 1092.1  Z" fill="#0000ff" fill-rule="evenodd" fill-opacity="0.5"/>
<polyline clip-path="url(#clip002)" style="stroke:#000000; stroke-linecap:round; stroke-linejoin:round; stroke-width:4; stroke-opacity:0.5; fill:none" points="417.637,1092.1 417.637,780.762 438.482,780.762 438.482,1092.1 417.637,1092.1 "/>
<path clip-path="url(#clip002)" d="M443.693 851.585 L443.693 780.762 L464.539 780.762 L464.539 851.585 L443.693 851.585 L443.693 851.585  Z" fill="#0000ff" fill-rule="evenodd" fill-opacity="0.5"/>
<polyline clip-path="url(#clip002)" style="stroke:#000000; stroke-linecap:round; stroke-linejoin:round; stroke-width:4; stroke-opacity:0.5; fill:none" points="443.693,851.585 443.693,780.762 464.539,780.762 464.539,851.585 443.693,851.585 "/>
<path clip-path="url(#clip002)" d="M469.75 1048.69 L469.75 780.762 L490.596 780.762 L490.596 1048.69 L469.75 1048.69 L469.75 1048.69  Z" fill="#0000ff" fill-rule="evenodd" fill-opacity="0.5"/>
<polyline clip-path="url(#clip002)" style="stroke:#000000; stroke-linecap:round; stroke-linejoin:round; stroke-width:4; stroke-opacity:0.5; fill:none" points="469.75,1048.69 469.75,780.762 490.596,780.762 490.596,1048.69 469.75,1048.69 "/>
<path clip-path="url(#clip002)" d="M495.807 635.016 L495.807 780.762 L516.652 780.762 L516.652 635.016 L495.807 635.016 L495.807 635.016  Z" fill="#0000ff" fill-rule="evenodd" fill-opacity="0.5"/>
<polyline clip-path="url(#clip002)" style="stroke:#000000; stroke-linecap:round; stroke-linejoin:round; stroke-width:4; stroke-opacity:0.5; fill:none" points="495.807,635.016 495.807,780.762 516.652,780.762 516.652,635.016 495.807,635.016 "/>
<path clip-path="url(#clip002)" d="M521.864 592.821 L521.864 780.762 L542.709 780.762 L542.709 592.821 L521.864 592.821 L521.864 592.821  Z" fill="#0000ff" fill-rule="evenodd" fill-opacity="0.5"/>
<polyline clip-path="url(#clip002)" style="stroke:#000000; stroke-linecap:round; stroke-linejoin:round; stroke-width:4; stroke-opacity:0.5; fill:none" points="521.864,592.821 521.864,780.762 542.709,780.762 542.709,592.821 521.864,592.821 "/>
<path clip-path="url(#clip002)" d="M547.921 242.249 L547.921 780.762 L568.766 780.762 L568.766 242.249 L547.921 242.249 L547.921 242.249  Z" fill="#0000ff" fill-rule="evenodd" fill-opacity="0.5"/>
<polyline clip-path="url(#clip002)" style="stroke:#000000; stroke-linecap:round; stroke-linejoin:round; stroke-width:4; stroke-opacity:0.5; fill:none" points="547.921,242.249 547.921,780.762 568.766,780.762 568.766,242.249 547.921,242.249 "/>
<path clip-path="url(#clip002)" d="M573.977 894.382 L573.977 780.762 L594.823 780.762 L594.823 894.382 L573.977 894.382 L573.977 894.382  Z" fill="#0000ff" fill-rule="evenodd" fill-opacity="0.5"/>
<polyline clip-path="url(#clip002)" style="stroke:#000000; stroke-linecap:round; stroke-linejoin:round; stroke-width:4; stroke-opacity:0.5; fill:none" points="573.977,894.382 573.977,780.762 594.823,780.762 594.823,894.382 573.977,894.382 "/>
<path clip-path="url(#clip002)" d="M600.034 1285.88 L600.034 780.762 L620.88 780.762 L620.88 1285.88 L600.034 1285.88 L600.034 1285.88  Z" fill="#0000ff" fill-rule="evenodd" fill-opacity="0.5"/>
<polyline clip-path="url(#clip002)" style="stroke:#000000; stroke-linecap:round; stroke-linejoin:round; stroke-width:4; stroke-opacity:0.5; fill:none" points="600.034,1285.88 600.034,780.762 620.88,780.762 620.88,1285.88 600.034,1285.88 "/>
<path clip-path="url(#clip002)" d="M626.091 888.125 L626.091 780.762 L646.936 780.762 L646.936 888.125 L626.091 888.125 L626.091 888.125  Z" fill="#0000ff" fill-rule="evenodd" fill-opacity="0.5"/>
<polyline clip-path="url(#clip002)" style="stroke:#000000; stroke-linecap:round; stroke-linejoin:round; stroke-width:4; stroke-opacity:0.5; fill:none" points="626.091,888.125 626.091,780.762 646.936,780.762 646.936,888.125 626.091,888.125 "/>
<path clip-path="url(#clip002)" d="M652.148 682.131 L652.148 780.762 L672.993 780.762 L672.993 682.131 L652.148 682.131 L652.148 682.131  Z" fill="#0000ff" fill-rule="evenodd" fill-opacity="0.5"/>
<polyline clip-path="url(#clip002)" style="stroke:#000000; stroke-linecap:round; stroke-linejoin:round; stroke-width:4; stroke-opacity:0.5; fill:none" points="652.148,682.131 652.148,780.762 672.993,780.762 672.993,682.131 652.148,682.131 "/>
<path clip-path="url(#clip002)" d="M678.205 1083.95 L678.205 780.762 L699.05 780.762 L699.05 1083.95 L678.205 1083.95 L678.205 1083.95  Z" fill="#0000ff" fill-rule="evenodd" fill-opacity="0.5"/>
<polyline clip-path="url(#clip002)" style="stroke:#000000; stroke-linecap:round; stroke-linejoin:round; stroke-width:4; stroke-opacity:0.5; fill:none" points="678.205,1083.95 678.205,780.762 699.05,780.762 699.05,1083.95 678.205,1083.95 "/>
<path clip-path="url(#clip002)" d="M704.261 1207.12 L704.261 780.762 L725.107 780.762 L725.107 1207.12 L704.261 1207.12 L704.261 1207.12  Z" fill="#0000ff" fill-rule="evenodd" fill-opacity="0.5"/>
<polyline clip-path="url(#clip002)" style="stroke:#000000; stroke-linecap:round; stroke-linejoin:round; stroke-width:4; stroke-opacity:0.5; fill:none" points="704.261,1207.12 704.261,780.762 725.107,780.762 725.107,1207.12 704.261,1207.12 "/>
<path clip-path="url(#clip002)" d="M730.318 658.109 L730.318 780.762 L751.164 780.762 L751.164 658.109 L730.318 658.109 L730.318 658.109  Z" fill="#0000ff" fill-rule="evenodd" fill-opacity="0.5"/>
<polyline clip-path="url(#clip002)" style="stroke:#000000; stroke-linecap:round; stroke-linejoin:round; stroke-width:4; stroke-opacity:0.5; fill:none" points="730.318,658.109 730.318,780.762 751.164,780.762 751.164,658.109 730.318,658.109 "/>
<path clip-path="url(#clip002)" d="M756.375 713.887 L756.375 780.762 L777.22 780.762 L777.22 713.887 L756.375 713.887 L756.375 713.887  Z" fill="#0000ff" fill-rule="evenodd" fill-opacity="0.5"/>
<polyline clip-path="url(#clip002)" style="stroke:#000000; stroke-linecap:round; stroke-linejoin:round; stroke-width:4; stroke-opacity:0.5; fill:none" points="756.375,713.887 756.375,780.762 777.22,780.762 777.22,713.887 756.375,713.887 "/>
<path clip-path="url(#clip002)" d="M782.432 1157.41 L782.432 780.762 L803.277 780.762 L803.277 1157.41 L782.432 1157.41 L782.432 1157.41  Z" fill="#0000ff" fill-rule="evenodd" fill-opacity="0.5"/>
<polyline clip-path="url(#clip002)" style="stroke:#000000; stroke-linecap:round; stroke-linejoin:round; stroke-width:4; stroke-opacity:0.5; fill:none" points="782.432,1157.41 782.432,780.762 803.277,780.762 803.277,1157.41 782.432,1157.41 "/>
<path clip-path="url(#clip002)" d="M808.488 47.2441 L808.488 780.762 L829.334 780.762 L829.334 47.2441 L808.488 47.2441 L808.488 47.2441  Z" fill="#0000ff" fill-rule="evenodd" fill-opacity="0.5"/>
<polyline clip-path="url(#clip002)" style="stroke:#000000; stroke-linecap:round; stroke-linejoin:round; stroke-width:4; stroke-opacity:0.5; fill:none" points="808.488,47.2441 808.488,780.762 829.334,780.762 829.334,47.2441 808.488,47.2441 "/>
<path clip-path="url(#clip002)" d="M834.545 1021.75 L834.545 780.762 L855.391 780.762 L855.391 1021.75 L834.545 1021.75 L834.545 1021.75  Z" fill="#0000ff" fill-rule="evenodd" fill-opacity="0.5"/>
<polyline clip-path="url(#clip002)" style="stroke:#000000; stroke-linecap:round; stroke-linejoin:round; stroke-width:4; stroke-opacity:0.5; fill:none" points="834.545,1021.75 834.545,780.762 855.391,780.762 855.391,1021.75 834.545,1021.75 "/>
<path clip-path="url(#clip002)" d="M860.602 407.305 L860.602 780.762 L881.447 780.762 L881.447 407.305 L860.602 407.305 L860.602 407.305  Z" fill="#0000ff" fill-rule="evenodd" fill-opacity="0.5"/>
<polyline clip-path="url(#clip002)" style="stroke:#000000; stroke-linecap:round; stroke-linejoin:round; stroke-width:4; stroke-opacity:0.5; fill:none" points="860.602,407.305 860.602,780.762 881.447,780.762 881.447,407.305 860.602,407.305 "/>
<path clip-path="url(#clip002)" d="M886.659 886.722 L886.659 780.762 L907.504 780.762 L907.504 886.722 L886.659 886.722 L886.659 886.722  Z" fill="#0000ff" fill-rule="evenodd" fill-opacity="0.5"/>
<polyline clip-path="url(#clip002)" style="stroke:#000000; stroke-linecap:round; stroke-linejoin:round; stroke-width:4; stroke-opacity:0.5; fill:none" points="886.659,886.722 886.659,780.762 907.504,780.762 907.504,886.722 886.659,886.722 "/>
<path clip-path="url(#clip002)" d="M912.716 761.884 L912.716 780.762 L933.561 780.762 L933.561 761.884 L912.716 761.884 L912.716 761.884  Z" fill="#0000ff" fill-rule="evenodd" fill-opacity="0.5"/>
<polyline clip-path="url(#clip002)" style="stroke:#000000; stroke-linecap:round; stroke-linejoin:round; stroke-width:4; stroke-opacity:0.5; fill:none" points="912.716,761.884 912.716,780.762 933.561,780.762 933.561,761.884 912.716,761.884 "/>
<path clip-path="url(#clip002)" d="M938.772 163.38 L938.772 780.762 L959.618 780.762 L959.618 163.38 L938.772 163.38 L938.772 163.38  Z" fill="#0000ff" fill-rule="evenodd" fill-opacity="0.5"/>
<polyline clip-path="url(#clip002)" style="stroke:#000000; stroke-linecap:round; stroke-linejoin:round; stroke-width:4; stroke-opacity:0.5; fill:none" points="938.772,163.38 938.772,780.762 959.618,780.762 959.618,163.38 938.772,163.38 "/>
<path clip-path="url(#clip002)" d="M964.829 484.574 L964.829 780.762 L985.675 780.762 L985.675 484.574 L964.829 484.574 L964.829 484.574  Z" fill="#0000ff" fill-rule="evenodd" fill-opacity="0.5"/>
<polyline clip-path="url(#clip002)" style="stroke:#000000; stroke-linecap:round; stroke-linejoin:round; stroke-width:4; stroke-opacity:0.5; fill:none" points="964.829,484.574 964.829,780.762 985.675,780.762 985.675,484.574 964.829,484.574 "/>
<path clip-path="url(#clip002)" d="M990.886 934.311 L990.886 780.762 L1011.73 780.762 L1011.73 934.311 L990.886 934.311 L990.886 934.311  Z" fill="#0000ff" fill-rule="evenodd" fill-opacity="0.5"/>
<polyline clip-path="url(#clip002)" style="stroke:#000000; stroke-linecap:round; stroke-linejoin:round; stroke-width:4; stroke-opacity:0.5; fill:none" points="990.886,934.311 990.886,780.762 1011.73,780.762 1011.73,934.311 990.886,934.311 "/>
<path clip-path="url(#clip002)" d="M1016.94 1148.29 L1016.94 780.762 L1037.79 780.762 L1037.79 1148.29 L1016.94 1148.29 L1016.94 1148.29  Z" fill="#0000ff" fill-rule="evenodd" fill-opacity="0.5"/>
<polyline clip-path="url(#clip002)" style="stroke:#000000; stroke-linecap:round; stroke-linejoin:round; stroke-width:4; stroke-opacity:0.5; fill:none" points="1016.94,1148.29 1016.94,780.762 1037.79,780.762 1037.79,1148.29 1016.94,1148.29 "/>
<path clip-path="url(#clip002)" d="M1043 1113.16 L1043 780.762 L1063.84 780.762 L1063.84 1113.16 L1043 1113.16 L1043 1113.16  Z" fill="#0000ff" fill-rule="evenodd" fill-opacity="0.5"/>
<polyline clip-path="url(#clip002)" style="stroke:#000000; stroke-linecap:round; stroke-linejoin:round; stroke-width:4; stroke-opacity:0.5; fill:none" points="1043,1113.16 1043,780.762 1063.84,780.762 1063.84,1113.16 1043,1113.16 "/>
<path clip-path="url(#clip002)" d="M1069.06 837.711 L1069.06 780.762 L1089.9 780.762 L1089.9 837.711 L1069.06 837.711 L1069.06 837.711  Z" fill="#0000ff" fill-rule="evenodd" fill-opacity="0.5"/>
<polyline clip-path="url(#clip002)" style="stroke:#000000; stroke-linecap:round; stroke-linejoin:round; stroke-width:4; stroke-opacity:0.5; fill:none" points="1069.06,837.711 1069.06,780.762 1089.9,780.762 1089.9,837.711 1069.06,837.711 "/>
<path clip-path="url(#clip002)" d="M1095.11 762.6 L1095.11 780.762 L1115.96 780.762 L1115.96 762.6 L1095.11 762.6 L1095.11 762.6  Z" fill="#0000ff" fill-rule="evenodd" fill-opacity="0.5"/>
<polyline clip-path="url(#clip002)" style="stroke:#000000; stroke-linecap:round; stroke-linejoin:round; stroke-width:4; stroke-opacity:0.5; fill:none" points="1095.11,762.6 1095.11,780.762 1115.96,780.762 1115.96,762.6 1095.11,762.6 "/>
<path clip-path="url(#clip002)" d="M1121.17 577.702 L1121.17 780.762 L1142.02 780.762 L1142.02 577.702 L1121.17 577.702 L1121.17 577.702  Z" fill="#0000ff" fill-rule="evenodd" fill-opacity="0.5"/>
<polyline clip-path="url(#clip002)" style="stroke:#000000; stroke-linecap:round; stroke-linejoin:round; stroke-width:4; stroke-opacity:0.5; fill:none" points="1121.17,577.702 1121.17,780.762 1142.02,780.762 1142.02,577.702 1121.17,577.702 "/>
<path clip-path="url(#clip002)" d="M1147.23 499.121 L1147.23 780.762 L1168.07 780.762 L1168.07 499.121 L1147.23 499.121 L1147.23 499.121  Z" fill="#0000ff" fill-rule="evenodd" fill-opacity="0.5"/>
<polyline clip-path="url(#clip002)" style="stroke:#000000; stroke-linecap:round; stroke-linejoin:round; stroke-width:4; stroke-opacity:0.5; fill:none" points="1147.23,499.121 1147.23,780.762 1168.07,780.762 1168.07,499.121 1147.23,499.121 "/>
<path clip-path="url(#clip002)" d="M1173.28 602.216 L1173.28 780.762 L1194.13 780.762 L1194.13 602.216 L1173.28 602.216 L1173.28 602.216  Z" fill="#0000ff" fill-rule="evenodd" fill-opacity="0.5"/>
<polyline clip-path="url(#clip002)" style="stroke:#000000; stroke-linecap:round; stroke-linejoin:round; stroke-width:4; stroke-opacity:0.5; fill:none" points="1173.28,602.216 1173.28,780.762 1194.13,780.762 1194.13,602.216 1173.28,602.216 "/>
<path clip-path="url(#clip002)" d="M1199.34 426.206 L1199.34 780.762 L1220.19 780.762 L1220.19 426.206 L1199.34 426.206 L1199.34 426.206  Z" fill="#0000ff" fill-rule="evenodd" fill-opacity="0.5"/>
<polyline clip-path="url(#clip002)" style="stroke:#000000; stroke-linecap:round; stroke-linejoin:round; stroke-width:4; stroke-opacity:0.5; fill:none" points="1199.34,426.206 1199.34,780.762 1220.19,780.762 1220.19,426.206 1199.34,426.206 "/>
<path clip-path="url(#clip002)" d="M1225.4 630.033 L1225.4 780.762 L1246.24 780.762 L1246.24 630.033 L1225.4 630.033 L1225.4 630.033  Z" fill="#0000ff" fill-rule="evenodd" fill-opacity="0.5"/>
<polyline clip-path="url(#clip002)" style="stroke:#000000; stroke-linecap:round; stroke-linejoin:round; stroke-width:4; stroke-opacity:0.5; fill:none" points="1225.4,630.033 1225.4,780.762 1246.24,780.762 1246.24,630.033 1225.4,630.033 "/>
<path clip-path="url(#clip002)" d="M1251.45 203.929 L1251.45 780.762 L1272.3 780.762 L1272.3 203.929 L1251.45 203.929 L1251.45 203.929  Z" fill="#0000ff" fill-rule="evenodd" fill-opacity="0.5"/>
<polyline clip-path="url(#clip002)" style="stroke:#000000; stroke-linecap:round; stroke-linejoin:round; stroke-width:4; stroke-opacity:0.5; fill:none" points="1251.45,203.929 1251.45,780.762 1272.3,780.762 1272.3,203.929 1251.45,203.929 "/>
<path clip-path="url(#clip002)" d="M1277.51 1351.21 L1277.51 780.762 L1298.36 780.762 L1298.36 1351.21 L1277.51 1351.21 L1277.51 1351.21  Z" fill="#0000ff" fill-rule="evenodd" fill-opacity="0.5"/>
<polyline clip-path="url(#clip002)" style="stroke:#000000; stroke-linecap:round; stroke-linejoin:round; stroke-width:4; stroke-opacity:0.5; fill:none" points="1277.51,1351.21 1277.51,780.762 1298.36,780.762 1298.36,1351.21 1277.51,1351.21 "/>
<path clip-path="url(#clip002)" d="M1303.57 929.973 L1303.57 780.762 L1324.41 780.762 L1324.41 929.973 L1303.57 929.973 L1303.57 929.973  Z" fill="#0000ff" fill-rule="evenodd" fill-opacity="0.5"/>
<polyline clip-path="url(#clip002)" style="stroke:#000000; stroke-linecap:round; stroke-linejoin:round; stroke-width:4; stroke-opacity:0.5; fill:none" points="1303.57,929.973 1303.57,780.762 1324.41,780.762 1324.41,929.973 1303.57,929.973 "/>
<path clip-path="url(#clip002)" d="M1329.62 877.772 L1329.62 780.762 L1350.47 780.762 L1350.47 877.772 L1329.62 877.772 L1329.62 877.772  Z" fill="#0000ff" fill-rule="evenodd" fill-opacity="0.5"/>
<polyline clip-path="url(#clip002)" style="stroke:#000000; stroke-linecap:round; stroke-linejoin:round; stroke-width:4; stroke-opacity:0.5; fill:none" points="1329.62,877.772 1329.62,780.762 1350.47,780.762 1350.47,877.772 1329.62,877.772 "/>
<path clip-path="url(#clip002)" d="M1355.68 247.173 L1355.68 780.762 L1376.53 780.762 L1376.53 247.173 L1355.68 247.173 L1355.68 247.173  Z" fill="#0000ff" fill-rule="evenodd" fill-opacity="0.5"/>
<polyline clip-path="url(#clip002)" style="stroke:#000000; stroke-linecap:round; stroke-linejoin:round; stroke-width:4; stroke-opacity:0.5; fill:none" points="1355.68,247.173 1355.68,780.762 1376.53,780.762 1376.53,247.173 1355.68,247.173 "/>
<path clip-path="url(#clip002)" d="M1381.74 1402.53 L1381.74 780.762 L1402.58 780.762 L1402.58 1402.53 L1381.74 1402.53 L1381.74 1402.53  Z" fill="#0000ff" fill-rule="evenodd" fill-opacity="0.5"/>
<polyline clip-path="url(#clip002)" style="stroke:#000000; stroke-linecap:round; stroke-linejoin:round; stroke-width:4; stroke-opacity:0.5; fill:none" points="1381.74,1402.53 1381.74,780.762 1402.58,780.762 1402.58,1402.53 1381.74,1402.53 "/>
<path clip-path="url(#clip002)" d="M1407.79 239.698 L1407.79 780.762 L1428.64 780.762 L1428.64 239.698 L1407.79 239.698 L1407.79 239.698  Z" fill="#0000ff" fill-rule="evenodd" fill-opacity="0.5"/>
<polyline clip-path="url(#clip002)" style="stroke:#000000; stroke-linecap:round; stroke-linejoin:round; stroke-width:4; stroke-opacity:0.5; fill:none" points="1407.79,239.698 1407.79,780.762 1428.64,780.762 1428.64,239.698 1407.79,239.698 "/>
<path clip-path="url(#clip002)" d="M1433.85 408.52 L1433.85 780.762 L1454.7 780.762 L1454.7 408.52 L1433.85 408.52 L1433.85 408.52  Z" fill="#0000ff" fill-rule="evenodd" fill-opacity="0.5"/>
<polyline clip-path="url(#clip002)" style="stroke:#000000; stroke-linecap:round; stroke-linejoin:round; stroke-width:4; stroke-opacity:0.5; fill:none" points="1433.85,408.52 1433.85,780.762 1454.7,780.762 1454.7,408.52 1433.85,408.52 "/>
<path clip-path="url(#clip002)" d="M1459.91 468.504 L1459.91 780.762 L1480.75 780.762 L1480.75 468.504 L1459.91 468.504 L1459.91 468.504  Z" fill="#0000ff" fill-rule="evenodd" fill-opacity="0.5"/>
<polyline clip-path="url(#clip002)" style="stroke:#000000; stroke-linecap:round; stroke-linejoin:round; stroke-width:4; stroke-opacity:0.5; fill:none" points="1459.91,468.504 1459.91,780.762 1480.75,780.762 1480.75,468.504 1459.91,468.504 "/>
<path clip-path="url(#clip002)" d="M1485.96 817.892 L1485.96 780.762 L1506.81 780.762 L1506.81 817.892 L1485.96 817.892 L1485.96 817.892  Z" fill="#0000ff" fill-rule="evenodd" fill-opacity="0.5"/>
<polyline clip-path="url(#clip002)" style="stroke:#000000; stroke-linecap:round; stroke-linejoin:round; stroke-width:4; stroke-opacity:0.5; fill:none" points="1485.96,817.892 1485.96,780.762 1506.81,780.762 1506.81,817.892 1485.96,817.892 "/>
<path clip-path="url(#clip002)" d="M1512.02 662.485 L1512.02 780.762 L1532.87 780.762 L1532.87 662.485 L1512.02 662.485 L1512.02 662.485  Z" fill="#0000ff" fill-rule="evenodd" fill-opacity="0.5"/>
<polyline clip-path="url(#clip002)" style="stroke:#000000; stroke-linecap:round; stroke-linejoin:round; stroke-width:4; stroke-opacity:0.5; fill:none" points="1512.02,662.485 1512.02,780.762 1532.87,780.762 1532.87,662.485 1512.02,662.485 "/>
<path clip-path="url(#clip002)" d="M1538.08 1056.16 L1538.08 780.762 L1558.92 780.762 L1558.92 1056.16 L1538.08 1056.16 L1538.08 1056.16  Z" fill="#0000ff" fill-rule="evenodd" fill-opacity="0.5"/>
<polyline clip-path="url(#clip002)" style="stroke:#000000; stroke-linecap:round; stroke-linejoin:round; stroke-width:4; stroke-opacity:0.5; fill:none" points="1538.08,1056.16 1538.08,780.762 1558.92,780.762 1558.92,1056.16 1538.08,1056.16 "/>
<path clip-path="url(#clip002)" d="M1564.14 731.35 L1564.14 780.762 L1584.98 780.762 L1584.98 731.35 L1564.14 731.35 L1564.14 731.35  Z" fill="#0000ff" fill-rule="evenodd" fill-opacity="0.5"/>
<polyline clip-path="url(#clip002)" style="stroke:#000000; stroke-linecap:round; stroke-linejoin:round; stroke-width:4; stroke-opacity:0.5; fill:none" points="1564.14,731.35 1564.14,780.762 1584.98,780.762 1584.98,731.35 1564.14,731.35 "/>
<path clip-path="url(#clip002)" d="M1590.19 956.724 L1590.19 780.762 L1611.04 780.762 L1611.04 956.724 L1590.19 956.724 L1590.19 956.724  Z" fill="#0000ff" fill-rule="evenodd" fill-opacity="0.5"/>
<polyline clip-path="url(#clip002)" style="stroke:#000000; stroke-linecap:round; stroke-linejoin:round; stroke-width:4; stroke-opacity:0.5; fill:none" points="1590.19,956.724 1590.19,780.762 1611.04,780.762 1611.04,956.724 1590.19,956.724 "/>
<path clip-path="url(#clip002)" d="M1616.25 1067.38 L1616.25 780.762 L1637.09 780.762 L1637.09 1067.38 L1616.25 1067.38 L1616.25 1067.38  Z" fill="#0000ff" fill-rule="evenodd" fill-opacity="0.5"/>
<polyline clip-path="url(#clip002)" style="stroke:#000000; stroke-linecap:round; stroke-linejoin:round; stroke-width:4; stroke-opacity:0.5; fill:none" points="1616.25,1067.38 1616.25,780.762 1637.09,780.762 1637.09,1067.38 1616.25,1067.38 "/>
<path clip-path="url(#clip002)" d="M1642.31 584.721 L1642.31 780.762 L1663.15 780.762 L1663.15 584.721 L1642.31 584.721 L1642.31 584.721  Z" fill="#0000ff" fill-rule="evenodd" fill-opacity="0.5"/>
<polyline clip-path="url(#clip002)" style="stroke:#000000; stroke-linecap:round; stroke-linejoin:round; stroke-width:4; stroke-opacity:0.5; fill:none" points="1642.31,584.721 1642.31,780.762 1663.15,780.762 1663.15,584.721 1642.31,584.721 "/>
<path clip-path="url(#clip002)" d="M1668.36 968.934 L1668.36 780.762 L1689.21 780.762 L1689.21 968.934 L1668.36 968.934 L1668.36 968.934  Z" fill="#0000ff" fill-rule="evenodd" fill-opacity="0.5"/>
<polyline clip-path="url(#clip002)" style="stroke:#000000; stroke-linecap:round; stroke-linejoin:round; stroke-width:4; stroke-opacity:0.5; fill:none" points="1668.36,968.934 1668.36,780.762 1689.21,780.762 1689.21,968.934 1668.36,968.934 "/>
<path clip-path="url(#clip002)" d="M1694.42 826.5 L1694.42 780.762 L1715.26 780.762 L1715.26 826.5 L1694.42 826.5 L1694.42 826.5  Z" fill="#0000ff" fill-rule="evenodd" fill-opacity="0.5"/>
<polyline clip-path="url(#clip002)" style="stroke:#000000; stroke-linecap:round; stroke-linejoin:round; stroke-width:4; stroke-opacity:0.5; fill:none" points="1694.42,826.5 1694.42,780.762 1715.26,780.762 1715.26,826.5 1694.42,826.5 "/>
<path clip-path="url(#clip002)" d="M1720.48 816.496 L1720.48 780.762 L1741.32 780.762 L1741.32 816.496 L1720.48 816.496 L1720.48 816.496  Z" fill="#0000ff" fill-rule="evenodd" fill-opacity="0.5"/>
<polyline clip-path="url(#clip002)" style="stroke:#000000; stroke-linecap:round; stroke-linejoin:round; stroke-width:4; stroke-opacity:0.5; fill:none" points="1720.48,816.496 1720.48,780.762 1741.32,780.762 1741.32,816.496 1720.48,816.496 "/>
<path clip-path="url(#clip002)" d="M1746.53 724.394 L1746.53 780.762 L1767.38 780.762 L1767.38 724.394 L1746.53 724.394 L1746.53 724.394  Z" fill="#0000ff" fill-rule="evenodd" fill-opacity="0.5"/>
<polyline clip-path="url(#clip002)" style="stroke:#000000; stroke-linecap:round; stroke-linejoin:round; stroke-width:4; stroke-opacity:0.5; fill:none" points="1746.53,724.394 1746.53,780.762 1767.38,780.762 1767.38,724.394 1746.53,724.394 "/>
<path clip-path="url(#clip002)" d="M1772.59 816.984 L1772.59 780.762 L1793.43 780.762 L1793.43 816.984 L1772.59 816.984 L1772.59 816.984  Z" fill="#0000ff" fill-rule="evenodd" fill-opacity="0.5"/>
<polyline clip-path="url(#clip002)" style="stroke:#000000; stroke-linecap:round; stroke-linejoin:round; stroke-width:4; stroke-opacity:0.5; fill:none" points="1772.59,816.984 1772.59,780.762 1793.43,780.762 1793.43,816.984 1772.59,816.984 "/>
<path clip-path="url(#clip002)" d="M1798.65 526.317 L1798.65 780.762 L1819.49 780.762 L1819.49 526.317 L1798.65 526.317 L1798.65 526.317  Z" fill="#0000ff" fill-rule="evenodd" fill-opacity="0.5"/>
<polyline clip-path="url(#clip002)" style="stroke:#000000; stroke-linecap:round; stroke-linejoin:round; stroke-width:4; stroke-opacity:0.5; fill:none" points="1798.65,526.317 1798.65,780.762 1819.49,780.762 1819.49,526.317 1798.65,526.317 "/>
<path clip-path="url(#clip002)" d="M1824.7 992.49 L1824.7 780.762 L1845.55 780.762 L1845.55 992.49 L1824.7 992.49 L1824.7 992.49  Z" fill="#0000ff" fill-rule="evenodd" fill-opacity="0.5"/>
<polyline clip-path="url(#clip002)" style="stroke:#000000; stroke-linecap:round; stroke-linejoin:round; stroke-width:4; stroke-opacity:0.5; fill:none" points="1824.7,992.49 1824.7,780.762 1845.55,780.762 1845.55,992.49 1824.7,992.49 "/>
<path clip-path="url(#clip002)" d="M1850.76 1166.65 L1850.76 780.762 L1871.61 780.762 L1871.61 1166.65 L1850.76 1166.65 L1850.76 1166.65  Z" fill="#0000ff" fill-rule="evenodd" fill-opacity="0.5"/>
<polyline clip-path="url(#clip002)" style="stroke:#000000; stroke-linecap:round; stroke-linejoin:round; stroke-width:4; stroke-opacity:0.5; fill:none" points="1850.76,1166.65 1850.76,780.762 1871.61,780.762 1871.61,1166.65 1850.76,1166.65 "/>
<path clip-path="url(#clip002)" d="M1876.82 871.902 L1876.82 780.762 L1897.66 780.762 L1897.66 871.902 L1876.82 871.902 L1876.82 871.902  Z" fill="#0000ff" fill-rule="evenodd" fill-opacity="0.5"/>
<polyline clip-path="url(#clip002)" style="stroke:#000000; stroke-linecap:round; stroke-linejoin:round; stroke-width:4; stroke-opacity:0.5; fill:none" points="1876.82,871.902 1876.82,780.762 1897.66,780.762 1897.66,871.902 1876.82,871.902 "/>
<path clip-path="url(#clip002)" d="M1902.87 834.576 L1902.87 780.762 L1923.72 780.762 L1923.72 834.576 L1902.87 834.576 L1902.87 834.576  Z" fill="#0000ff" fill-rule="evenodd" fill-opacity="0.5"/>
<polyline clip-path="url(#clip002)" style="stroke:#000000; stroke-linecap:round; stroke-linejoin:round; stroke-width:4; stroke-opacity:0.5; fill:none" points="1902.87,834.576 1902.87,780.762 1923.72,780.762 1923.72,834.576 1902.87,834.576 "/>
<path clip-path="url(#clip002)" d="M1928.93 975.658 L1928.93 780.762 L1949.78 780.762 L1949.78 975.658 L1928.93 975.658 L1928.93 975.658  Z" fill="#0000ff" fill-rule="evenodd" fill-opacity="0.5"/>
<polyline clip-path="url(#clip002)" style="stroke:#000000; stroke-linecap:round; stroke-linejoin:round; stroke-width:4; stroke-opacity:0.5; fill:none" points="1928.93,975.658 1928.93,780.762 1949.78,780.762 1949.78,975.658 1928.93,975.658 "/>
<path clip-path="url(#clip002)" d="M1954.99 951.398 L1954.99 780.762 L1975.83 780.762 L1975.83 951.398 L1954.99 951.398 L1954.99 951.398  Z" fill="#0000ff" fill-rule="evenodd" fill-opacity="0.5"/>
<polyline clip-path="url(#clip002)" style="stroke:#000000; stroke-linecap:round; stroke-linejoin:round; stroke-width:4; stroke-opacity:0.5; fill:none" points="1954.99,951.398 1954.99,780.762 1975.83,780.762 1975.83,951.398 1954.99,951.398 "/>
<path clip-path="url(#clip002)" d="M1981.04 1437.55 L1981.04 780.762 L2001.89 780.762 L2001.89 1437.55 L1981.04 1437.55 L1981.04 1437.55  Z" fill="#0000ff" fill-rule="evenodd" fill-opacity="0.5"/>
<polyline clip-path="url(#clip002)" style="stroke:#000000; stroke-linecap:round; stroke-linejoin:round; stroke-width:4; stroke-opacity:0.5; fill:none" points="1981.04,1437.55 1981.04,780.762 2001.89,780.762 2001.89,1437.55 1981.04,1437.55 "/>
<path clip-path="url(#clip002)" d="M2007.1 1240.55 L2007.1 780.762 L2027.95 780.762 L2027.95 1240.55 L2007.1 1240.55 L2007.1 1240.55  Z" fill="#0000ff" fill-rule="evenodd" fill-opacity="0.5"/>
<polyline clip-path="url(#clip002)" style="stroke:#000000; stroke-linecap:round; stroke-linejoin:round; stroke-width:4; stroke-opacity:0.5; fill:none" points="2007.1,1240.55 2007.1,780.762 2027.95,780.762 2027.95,1240.55 2007.1,1240.55 "/>
<path clip-path="url(#clip002)" d="M2033.16 1014.12 L2033.16 780.762 L2054 780.762 L2054 1014.12 L2033.16 1014.12 L2033.16 1014.12  Z" fill="#0000ff" fill-rule="evenodd" fill-opacity="0.5"/>
<polyline clip-path="url(#clip002)" style="stroke:#000000; stroke-linecap:round; stroke-linejoin:round; stroke-width:4; stroke-opacity:0.5; fill:none" points="2033.16,1014.12 2033.16,780.762 2054,780.762 2054,1014.12 2033.16,1014.12 "/>
<path clip-path="url(#clip002)" d="M2059.21 114.052 L2059.21 780.762 L2080.06 780.762 L2080.06 114.052 L2059.21 114.052 L2059.21 114.052  Z" fill="#0000ff" fill-rule="evenodd" fill-opacity="0.5"/>
<polyline clip-path="url(#clip002)" style="stroke:#000000; stroke-linecap:round; stroke-linejoin:round; stroke-width:4; stroke-opacity:0.5; fill:none" points="2059.21,114.052 2059.21,780.762 2080.06,780.762 2080.06,114.052 2059.21,114.052 "/>
<path clip-path="url(#clip002)" d="M2085.27 871.429 L2085.27 780.762 L2106.12 780.762 L2106.12 871.429 L2085.27 871.429 L2085.27 871.429  Z" fill="#0000ff" fill-rule="evenodd" fill-opacity="0.5"/>
<polyline clip-path="url(#clip002)" style="stroke:#000000; stroke-linecap:round; stroke-linejoin:round; stroke-width:4; stroke-opacity:0.5; fill:none" points="2085.27,871.429 2085.27,780.762 2106.12,780.762 2106.12,871.429 2085.27,871.429 "/>
<path clip-path="url(#clip002)" d="M2111.33 938.638 L2111.33 780.762 L2132.17 780.762 L2132.17 938.638 L2111.33 938.638 L2111.33 938.638  Z" fill="#0000ff" fill-rule="evenodd" fill-opacity="0.5"/>
<polyline clip-path="url(#clip002)" style="stroke:#000000; stroke-linecap:round; stroke-linejoin:round; stroke-width:4; stroke-opacity:0.5; fill:none" points="2111.33,938.638 2111.33,780.762 2132.17,780.762 2132.17,938.638 2111.33,938.638 "/>
<path clip-path="url(#clip002)" d="M2137.38 1200.62 L2137.38 780.762 L2158.23 780.762 L2158.23 1200.62 L2137.38 1200.62 L2137.38 1200.62  Z" fill="#0000ff" fill-rule="evenodd" fill-opacity="0.5"/>
<polyline clip-path="url(#clip002)" style="stroke:#000000; stroke-linecap:round; stroke-linejoin:round; stroke-width:4; stroke-opacity:0.5; fill:none" points="2137.38,1200.62 2137.38,780.762 2158.23,780.762 2158.23,1200.62 2137.38,1200.62 "/>
<path clip-path="url(#clip002)" d="M2163.44 212.168 L2163.44 780.762 L2184.29 780.762 L2184.29 212.168 L2163.44 212.168 L2163.44 212.168  Z" fill="#0000ff" fill-rule="evenodd" fill-opacity="0.5"/>
<polyline clip-path="url(#clip002)" style="stroke:#000000; stroke-linecap:round; stroke-linejoin:round; stroke-width:4; stroke-opacity:0.5; fill:none" points="2163.44,212.168 2163.44,780.762 2184.29,780.762 2184.29,212.168 2163.44,212.168 "/>
<path clip-path="url(#clip002)" d="M2189.5 638.082 L2189.5 780.762 L2210.34 780.762 L2210.34 638.082 L2189.5 638.082 L2189.5 638.082  Z" fill="#0000ff" fill-rule="evenodd" fill-opacity="0.5"/>
<polyline clip-path="url(#clip002)" style="stroke:#000000; stroke-linecap:round; stroke-linejoin:round; stroke-width:4; stroke-opacity:0.5; fill:none" points="2189.5,638.082 2189.5,780.762 2210.34,780.762 2210.34,638.082 2189.5,638.082 "/>
<path clip-path="url(#clip002)" d="M2215.55 870.744 L2215.55 780.762 L2236.4 780.762 L2236.4 870.744 L2215.55 870.744 L2215.55 870.744  Z" fill="#0000ff" fill-rule="evenodd" fill-opacity="0.5"/>
<polyline clip-path="url(#clip002)" style="stroke:#000000; stroke-linecap:round; stroke-linejoin:round; stroke-width:4; stroke-opacity:0.5; fill:none" points="2215.55,870.744 2215.55,780.762 2236.4,780.762 2236.4,870.744 2215.55,870.744 "/>
<path clip-path="url(#clip002)" d="M2241.61 964.211 L2241.61 780.762 L2262.46 780.762 L2262.46 964.211 L2241.61 964.211 L2241.61 964.211  Z" fill="#0000ff" fill-rule="evenodd" fill-opacity="0.5"/>
<polyline clip-path="url(#clip002)" style="stroke:#000000; stroke-linecap:round; stroke-linejoin:round; stroke-width:4; stroke-opacity:0.5; fill:none" points="2241.61,964.211 2241.61,780.762 2262.46,780.762 2262.46,964.211 2241.61,964.211 "/>
<path clip-path="url(#clip002)" d="M2267.67 944.834 L2267.67 780.762 L2288.51 780.762 L2288.51 944.834 L2267.67 944.834 L2267.67 944.834  Z" fill="#0000ff" fill-rule="evenodd" fill-opacity="0.5"/>
<polyline clip-path="url(#clip002)" style="stroke:#000000; stroke-linecap:round; stroke-linejoin:round; stroke-width:4; stroke-opacity:0.5; fill:none" points="2267.67,944.834 2267.67,780.762 2288.51,780.762 2288.51,944.834 2267.67,944.834 "/>
<path clip-path="url(#clip002)" d="M2293.73 858.838 L2293.73 780.762 L2314.57 780.762 L2314.57 858.838 L2293.73 858.838 L2293.73 858.838  Z" fill="#0000ff" fill-rule="evenodd" fill-opacity="0.5"/>
<polyline clip-path="url(#clip002)" style="stroke:#000000; stroke-linecap:round; stroke-linejoin:round; stroke-width:4; stroke-opacity:0.5; fill:none" points="2293.73,858.838 2293.73,780.762 2314.57,780.762 2314.57,858.838 2293.73,858.838 "/>
<path clip-path="url(#clip002)" d="M2319.78 722.497 L2319.78 780.762 L2340.63 780.762 L2340.63 722.497 L2319.78 722.497 L2319.78 722.497  Z" fill="#0000ff" fill-rule="evenodd" fill-opacity="0.5"/>
<polyline clip-path="url(#clip002)" style="stroke:#000000; stroke-linecap:round; stroke-linejoin:round; stroke-width:4; stroke-opacity:0.5; fill:none" points="2319.78,722.497 2319.78,780.762 2340.63,780.762 2340.63,722.497 2319.78,722.497 "/>
<path clip-path="url(#clip002)" d="M2345.84 420.428 L2345.84 780.762 L2366.68 780.762 L2366.68 420.428 L2345.84 420.428 L2345.84 420.428  Z" fill="#0000ff" fill-rule="evenodd" fill-opacity="0.5"/>
<polyline clip-path="url(#clip002)" style="stroke:#000000; stroke-linecap:round; stroke-linejoin:round; stroke-width:4; stroke-opacity:0.5; fill:none" points="2345.84,420.428 2345.84,780.762 2366.68,780.762 2366.68,420.428 2345.84,420.428 "/>
<path clip-path="url(#clip002)" d="M2371.9 1177.24 L2371.9 780.762 L2392.74 780.762 L2392.74 1177.24 L2371.9 1177.24 L2371.9 1177.24  Z" fill="#0000ff" fill-rule="evenodd" fill-opacity="0.5"/>
<polyline clip-path="url(#clip002)" style="stroke:#000000; stroke-linecap:round; stroke-linejoin:round; stroke-width:4; stroke-opacity:0.5; fill:none" points="2371.9,1177.24 2371.9,780.762 2392.74,780.762 2392.74,1177.24 2371.9,1177.24 "/>
<path clip-path="url(#clip002)" d="M2397.95 87.8775 L2397.95 780.762 L2418.8 780.762 L2418.8 87.8775 L2397.95 87.8775 L2397.95 87.8775  Z" fill="#0000ff" fill-rule="evenodd" fill-opacity="0.5"/>
<polyline clip-path="url(#clip002)" style="stroke:#000000; stroke-linecap:round; stroke-linejoin:round; stroke-width:4; stroke-opacity:0.5; fill:none" points="2397.95,87.8775 2397.95,780.762 2418.8,780.762 2418.8,87.8775 2397.95,87.8775 "/>
<path clip-path="url(#clip002)" d="M2424.01 804.385 L2424.01 780.762 L2444.85 780.762 L2444.85 804.385 L2424.01 804.385 L2424.01 804.385  Z" fill="#0000ff" fill-rule="evenodd" fill-opacity="0.5"/>
<polyline clip-path="url(#clip002)" style="stroke:#000000; stroke-linecap:round; stroke-linejoin:round; stroke-width:4; stroke-opacity:0.5; fill:none" points="2424.01,804.385 2424.01,780.762 2444.85,780.762 2444.85,804.385 2424.01,804.385 "/>
<path clip-path="url(#clip002)" d="M2450.07 1495.09 L2450.07 780.762 L2470.91 780.762 L2470.91 1495.09 L2450.07 1495.09 L2450.07 1495.09  Z" fill="#0000ff" fill-rule="evenodd" fill-opacity="0.5"/>
<polyline clip-path="url(#clip002)" style="stroke:#000000; stroke-linecap:round; stroke-linejoin:round; stroke-width:4; stroke-opacity:0.5; fill:none" points="2450.07,1495.09 2450.07,780.762 2470.91,780.762 2470.91,1495.09 2450.07,1495.09 "/>
<path clip-path="url(#clip002)" d="M2476.12 416.347 L2476.12 780.762 L2496.97 780.762 L2496.97 416.347 L2476.12 416.347 L2476.12 416.347  Z" fill="#0000ff" fill-rule="evenodd" fill-opacity="0.5"/>
<polyline clip-path="url(#clip002)" style="stroke:#000000; stroke-linecap:round; stroke-linejoin:round; stroke-width:4; stroke-opacity:0.5; fill:none" points="2476.12,416.347 2476.12,780.762 2496.97,780.762 2496.97,416.347 2476.12,416.347 "/>
<path clip-path="url(#clip002)" d="M2502.18 1462.32 L2502.18 780.762 L2523.02 780.762 L2523.02 1462.32 L2502.18 1462.32 L2502.18 1462.32  Z" fill="#0000ff" fill-rule="evenodd" fill-opacity="0.5"/>
<polyline clip-path="url(#clip002)" style="stroke:#000000; stroke-linecap:round; stroke-linejoin:round; stroke-width:4; stroke-opacity:0.5; fill:none" points="2502.18,1462.32 2502.18,780.762 2523.02,780.762 2523.02,1462.32 2502.18,1462.32 "/>
<path clip-path="url(#clip002)" d="M2528.24 200.908 L2528.24 780.762 L2549.08 780.762 L2549.08 200.908 L2528.24 200.908 L2528.24 200.908  Z" fill="#0000ff" fill-rule="evenodd" fill-opacity="0.5"/>
<polyline clip-path="url(#clip002)" style="stroke:#000000; stroke-linecap:round; stroke-linejoin:round; stroke-width:4; stroke-opacity:0.5; fill:none" points="2528.24,200.908 2528.24,780.762 2549.08,780.762 2549.08,200.908 2528.24,200.908 "/>
<path clip-path="url(#clip002)" d="M2554.29 825.657 L2554.29 780.762 L2575.14 780.762 L2575.14 825.657 L2554.29 825.657 L2554.29 825.657  Z" fill="#0000ff" fill-rule="evenodd" fill-opacity="0.5"/>
<polyline clip-path="url(#clip002)" style="stroke:#000000; stroke-linecap:round; stroke-linejoin:round; stroke-width:4; stroke-opacity:0.5; fill:none" points="2554.29,825.657 2554.29,780.762 2575.14,780.762 2575.14,825.657 2554.29,825.657 "/>
<path clip-path="url(#clip002)" d="M2580.35 327.94 L2580.35 780.762 L2601.2 780.762 L2601.2 327.94 L2580.35 327.94 L2580.35 327.94  Z" fill="#0000ff" fill-rule="evenodd" fill-opacity="0.5"/>
<polyline clip-path="url(#clip002)" style="stroke:#000000; stroke-linecap:round; stroke-linejoin:round; stroke-width:4; stroke-opacity:0.5; fill:none" points="2580.35,327.94 2580.35,780.762 2601.2,780.762 2601.2,327.94 2580.35,327.94 "/>
<path clip-path="url(#clip002)" d="M2606.41 867.357 L2606.41 780.762 L2627.25 780.762 L2627.25 867.357 L2606.41 867.357 L2606.41 867.357  Z" fill="#0000ff" fill-rule="evenodd" fill-opacity="0.5"/>
<polyline clip-path="url(#clip002)" style="stroke:#000000; stroke-linecap:round; stroke-linejoin:round; stroke-width:4; stroke-opacity:0.5; fill:none" points="2606.41,867.357 2606.41,780.762 2627.25,780.762 2627.25,867.357 2606.41,867.357 "/>
<path clip-path="url(#clip002)" d="M2632.46 437.049 L2632.46 780.762 L2653.31 780.762 L2653.31 437.049 L2632.46 437.049 L2632.46 437.049  Z" fill="#0000ff" fill-rule="evenodd" fill-opacity="0.5"/>
<polyline clip-path="url(#clip002)" style="stroke:#000000; stroke-linecap:round; stroke-linejoin:round; stroke-width:4; stroke-opacity:0.5; fill:none" points="2632.46,437.049 2632.46,780.762 2653.31,780.762 2653.31,437.049 2632.46,437.049 "/>
<path clip-path="url(#clip002)" d="M2658.52 316.954 L2658.52 780.762 L2679.37 780.762 L2679.37 316.954 L2658.52 316.954 L2658.52 316.954  Z" fill="#0000ff" fill-rule="evenodd" fill-opacity="0.5"/>
<polyline clip-path="url(#clip002)" style="stroke:#000000; stroke-linecap:round; stroke-linejoin:round; stroke-width:4; stroke-opacity:0.5; fill:none" points="2658.52,316.954 2658.52,780.762 2679.37,780.762 2679.37,316.954 2658.52,316.954 "/>
<path clip-path="url(#clip002)" d="M2684.58 858.22 L2684.58 780.762 L2705.42 780.762 L2705.42 858.22 L2684.58 858.22 L2684.58 858.22  Z" fill="#0000ff" fill-rule="evenodd" fill-opacity="0.5"/>
<polyline clip-path="url(#clip002)" style="stroke:#000000; stroke-linecap:round; stroke-linejoin:round; stroke-width:4; stroke-opacity:0.5; fill:none" points="2684.58,858.22 2684.58,780.762 2705.42,780.762 2705.42,858.22 2684.58,858.22 "/>
<path clip-path="url(#clip002)" d="M2710.63 1380.73 L2710.63 780.762 L2731.48 780.762 L2731.48 1380.73 L2710.63 1380.73 L2710.63 1380.73  Z" fill="#0000ff" fill-rule="evenodd" fill-opacity="0.5"/>
<polyline clip-path="url(#clip002)" style="stroke:#000000; stroke-linecap:round; stroke-linejoin:round; stroke-width:4; stroke-opacity:0.5; fill:none" points="2710.63,1380.73 2710.63,780.762 2731.48,780.762 2731.48,1380.73 2710.63,1380.73 "/>
<path clip-path="url(#clip002)" d="M2736.69 1072.16 L2736.69 780.762 L2757.54 780.762 L2757.54 1072.16 L2736.69 1072.16 L2736.69 1072.16  Z" fill="#0000ff" fill-rule="evenodd" fill-opacity="0.5"/>
<polyline clip-path="url(#clip002)" style="stroke:#000000; stroke-linecap:round; stroke-linejoin:round; stroke-width:4; stroke-opacity:0.5; fill:none" points="2736.69,1072.16 2736.69,780.762 2757.54,780.762 2757.54,1072.16 2736.69,1072.16 "/>
<path clip-path="url(#clip002)" d="M2762.75 1057.92 L2762.75 780.762 L2783.59 780.762 L2783.59 1057.92 L2762.75 1057.92 L2762.75 1057.92  Z" fill="#0000ff" fill-rule="evenodd" fill-opacity="0.5"/>
<polyline clip-path="url(#clip002)" style="stroke:#000000; stroke-linecap:round; stroke-linejoin:round; stroke-width:4; stroke-opacity:0.5; fill:none" points="2762.75,1057.92 2762.75,780.762 2783.59,780.762 2783.59,1057.92 2762.75,1057.92 "/>
<path clip-path="url(#clip002)" d="M2788.8 991.184 L2788.8 780.762 L2809.65 780.762 L2809.65 991.184 L2788.8 991.184 L2788.8 991.184  Z" fill="#0000ff" fill-rule="evenodd" fill-opacity="0.5"/>
<polyline clip-path="url(#clip002)" style="stroke:#000000; stroke-linecap:round; stroke-linejoin:round; stroke-width:4; stroke-opacity:0.5; fill:none" points="2788.8,991.184 2788.8,780.762 2809.65,780.762 2809.65,991.184 2788.8,991.184 "/>
<path clip-path="url(#clip002)" d="M2814.86 659.135 L2814.86 780.762 L2835.71 780.762 L2835.71 659.135 L2814.86 659.135 L2814.86 659.135  Z" fill="#0000ff" fill-rule="evenodd" fill-opacity="0.5"/>
<polyline clip-path="url(#clip002)" style="stroke:#000000; stroke-linecap:round; stroke-linejoin:round; stroke-width:4; stroke-opacity:0.5; fill:none" points="2814.86,659.135 2814.86,780.762 2835.71,780.762 2835.71,659.135 2814.86,659.135 "/>
<path clip-path="url(#clip002)" d="M2840.92 450.382 L2840.92 780.762 L2861.76 780.762 L2861.76 450.382 L2840.92 450.382 L2840.92 450.382  Z" fill="#0000ff" fill-rule="evenodd" fill-opacity="0.5"/>
<polyline clip-path="url(#clip002)" style="stroke:#000000; stroke-linecap:round; stroke-linejoin:round; stroke-width:4; stroke-opacity:0.5; fill:none" points="2840.92,450.382 2840.92,780.762 2861.76,780.762 2861.76,450.382 2840.92,450.382 "/>
<path clip-path="url(#clip002)" d="M2866.97 788.537 L2866.97 780.762 L2887.82 780.762 L2887.82 788.537 L2866.97 788.537 L2866.97 788.537  Z" fill="#0000ff" fill-rule="evenodd" fill-opacity="0.5"/>
<polyline clip-path="url(#clip002)" style="stroke:#000000; stroke-linecap:round; stroke-linejoin:round; stroke-width:4; stroke-opacity:0.5; fill:none" points="2866.97,788.537 2866.97,780.762 2887.82,780.762 2887.82,788.537 2866.97,788.537 "/>
<path clip-path="url(#clip002)" d="M2893.03 1200.12 L2893.03 780.762 L2913.88 780.762 L2913.88 1200.12 L2893.03 1200.12 L2893.03 1200.12  Z" fill="#0000ff" fill-rule="evenodd" fill-opacity="0.5"/>
<polyline clip-path="url(#clip002)" style="stroke:#000000; stroke-linecap:round; stroke-linejoin:round; stroke-width:4; stroke-opacity:0.5; fill:none" points="2893.03,1200.12 2893.03,780.762 2913.88,780.762 2913.88,1200.12 2893.03,1200.12 "/>
<path clip-path="url(#clip002)" d="M2919.09 580.275 L2919.09 780.762 L2939.93 780.762 L2939.93 580.275 L2919.09 580.275 L2919.09 580.275  Z" fill="#0000ff" fill-rule="evenodd" fill-opacity="0.5"/>
<polyline clip-path="url(#clip002)" style="stroke:#000000; stroke-linecap:round; stroke-linejoin:round; stroke-width:4; stroke-opacity:0.5; fill:none" points="2919.09,580.275 2919.09,780.762 2939.93,780.762 2939.93,580.275 2919.09,580.275 "/>
<path clip-path="url(#clip002)" d="M2945.14 367.238 L2945.14 780.762 L2965.99 780.762 L2965.99 367.238 L2945.14 367.238 L2945.14 367.238  Z" fill="#0000ff" fill-rule="evenodd" fill-opacity="0.5"/>
<polyline clip-path="url(#clip002)" style="stroke:#000000; stroke-linecap:round; stroke-linejoin:round; stroke-width:4; stroke-opacity:0.5; fill:none" points="2945.14,367.238 2945.14,780.762 2965.99,780.762 2965.99,367.238 2945.14,367.238 "/>
<path clip-path="url(#clip002)" d="M2971.2 222.153 L2971.2 780.762 L2992.05 780.762 L2992.05 222.153 L2971.2 222.153 L2971.2 222.153  Z" fill="#0000ff" fill-rule="evenodd" fill-opacity="0.5"/>
<polyline clip-path="url(#clip002)" style="stroke:#000000; stroke-linecap:round; stroke-linejoin:round; stroke-width:4; stroke-opacity:0.5; fill:none" points="2971.2,222.153 2971.2,780.762 2992.05,780.762 2992.05,222.153 2971.2,222.153 "/>
<circle clip-path="url(#clip002)" style="fill:#0000ff; stroke:none; fill-opacity:0" cx="402.003" cy="135.985" r="2"/>
<circle clip-path="url(#clip002)" style="fill:#0000ff; stroke:none; fill-opacity:0" cx="428.059" cy="1092.1" r="2"/>
<circle clip-path="url(#clip002)" style="fill:#0000ff; stroke:none; fill-opacity:0" cx="454.116" cy="851.585" r="2"/>
<circle clip-path="url(#clip002)" style="fill:#0000ff; stroke:none; fill-opacity:0" cx="480.173" cy="1048.69" r="2"/>
<circle clip-path="url(#clip002)" style="fill:#0000ff; stroke:none; fill-opacity:0" cx="506.23" cy="635.016" r="2"/>
<circle clip-path="url(#clip002)" style="fill:#0000ff; stroke:none; fill-opacity:0" cx="532.287" cy="592.821" r="2"/>
<circle clip-path="url(#clip002)" style="fill:#0000ff; stroke:none; fill-opacity:0" cx="558.343" cy="242.249" r="2"/>
<circle clip-path="url(#clip002)" style="fill:#0000ff; stroke:none; fill-opacity:0" cx="584.4" cy="894.382" r="2"/>
<circle clip-path="url(#clip002)" style="fill:#0000ff; stroke:none; fill-opacity:0" cx="610.457" cy="1285.88" r="2"/>
<circle clip-path="url(#clip002)" style="fill:#0000ff; stroke:none; fill-opacity:0" cx="636.514" cy="888.125" r="2"/>
<circle clip-path="url(#clip002)" style="fill:#0000ff; stroke:none; fill-opacity:0" cx="662.57" cy="682.131" r="2"/>
<circle clip-path="url(#clip002)" style="fill:#0000ff; stroke:none; fill-opacity:0" cx="688.627" cy="1083.95" r="2"/>
<circle clip-path="url(#clip002)" style="fill:#0000ff; stroke:none; fill-opacity:0" cx="714.684" cy="1207.12" r="2"/>
<circle clip-path="url(#clip002)" style="fill:#0000ff; stroke:none; fill-opacity:0" cx="740.741" cy="658.109" r="2"/>
<circle clip-path="url(#clip002)" style="fill:#0000ff; stroke:none; fill-opacity:0" cx="766.798" cy="713.887" r="2"/>
<circle clip-path="url(#clip002)" style="fill:#0000ff; stroke:none; fill-opacity:0" cx="792.854" cy="1157.41" r="2"/>
<circle clip-path="url(#clip002)" style="fill:#0000ff; stroke:none; fill-opacity:0" cx="818.911" cy="47.2441" r="2"/>
<circle clip-path="url(#clip002)" style="fill:#0000ff; stroke:none; fill-opacity:0" cx="844.968" cy="1021.75" r="2"/>
<circle clip-path="url(#clip002)" style="fill:#0000ff; stroke:none; fill-opacity:0" cx="871.025" cy="407.305" r="2"/>
<circle clip-path="url(#clip002)" style="fill:#0000ff; stroke:none; fill-opacity:0" cx="897.082" cy="886.722" r="2"/>
<circle clip-path="url(#clip002)" style="fill:#0000ff; stroke:none; fill-opacity:0" cx="923.138" cy="761.884" r="2"/>
<circle clip-path="url(#clip002)" style="fill:#0000ff; stroke:none; fill-opacity:0" cx="949.195" cy="163.38" r="2"/>
<circle clip-path="url(#clip002)" style="fill:#0000ff; stroke:none; fill-opacity:0" cx="975.252" cy="484.574" r="2"/>
<circle clip-path="url(#clip002)" style="fill:#0000ff; stroke:none; fill-opacity:0" cx="1001.31" cy="934.311" r="2"/>
<circle clip-path="url(#clip002)" style="fill:#0000ff; stroke:none; fill-opacity:0" cx="1027.37" cy="1148.29" r="2"/>
<circle clip-path="url(#clip002)" style="fill:#0000ff; stroke:none; fill-opacity:0" cx="1053.42" cy="1113.16" r="2"/>
<circle clip-path="url(#clip002)" style="fill:#0000ff; stroke:none; fill-opacity:0" cx="1079.48" cy="837.711" r="2"/>
<circle clip-path="url(#clip002)" style="fill:#0000ff; stroke:none; fill-opacity:0" cx="1105.54" cy="762.6" r="2"/>
<circle clip-path="url(#clip002)" style="fill:#0000ff; stroke:none; fill-opacity:0" cx="1131.59" cy="577.702" r="2"/>
<circle clip-path="url(#clip002)" style="fill:#0000ff; stroke:none; fill-opacity:0" cx="1157.65" cy="499.121" r="2"/>
<circle clip-path="url(#clip002)" style="fill:#0000ff; stroke:none; fill-opacity:0" cx="1183.71" cy="602.216" r="2"/>
<circle clip-path="url(#clip002)" style="fill:#0000ff; stroke:none; fill-opacity:0" cx="1209.76" cy="426.206" r="2"/>
<circle clip-path="url(#clip002)" style="fill:#0000ff; stroke:none; fill-opacity:0" cx="1235.82" cy="630.033" r="2"/>
<circle clip-path="url(#clip002)" style="fill:#0000ff; stroke:none; fill-opacity:0" cx="1261.88" cy="203.929" r="2"/>
<circle clip-path="url(#clip002)" style="fill:#0000ff; stroke:none; fill-opacity:0" cx="1287.93" cy="1351.21" r="2"/>
<circle clip-path="url(#clip002)" style="fill:#0000ff; stroke:none; fill-opacity:0" cx="1313.99" cy="929.973" r="2"/>
<circle clip-path="url(#clip002)" style="fill:#0000ff; stroke:none; fill-opacity:0" cx="1340.05" cy="877.772" r="2"/>
<circle clip-path="url(#clip002)" style="fill:#0000ff; stroke:none; fill-opacity:0" cx="1366.1" cy="247.173" r="2"/>
<circle clip-path="url(#clip002)" style="fill:#0000ff; stroke:none; fill-opacity:0" cx="1392.16" cy="1402.53" r="2"/>
<circle clip-path="url(#clip002)" style="fill:#0000ff; stroke:none; fill-opacity:0" cx="1418.22" cy="239.698" r="2"/>
<circle clip-path="url(#clip002)" style="fill:#0000ff; stroke:none; fill-opacity:0" cx="1444.27" cy="408.52" r="2"/>
<circle clip-path="url(#clip002)" style="fill:#0000ff; stroke:none; fill-opacity:0" cx="1470.33" cy="468.504" r="2"/>
<circle clip-path="url(#clip002)" style="fill:#0000ff; stroke:none; fill-opacity:0" cx="1496.39" cy="817.892" r="2"/>
<circle clip-path="url(#clip002)" style="fill:#0000ff; stroke:none; fill-opacity:0" cx="1522.44" cy="662.485" r="2"/>
<circle clip-path="url(#clip002)" style="fill:#0000ff; stroke:none; fill-opacity:0" cx="1548.5" cy="1056.16" r="2"/>
<circle clip-path="url(#clip002)" style="fill:#0000ff; stroke:none; fill-opacity:0" cx="1574.56" cy="731.35" r="2"/>
<circle clip-path="url(#clip002)" style="fill:#0000ff; stroke:none; fill-opacity:0" cx="1600.61" cy="956.724" r="2"/>
<circle clip-path="url(#clip002)" style="fill:#0000ff; stroke:none; fill-opacity:0" cx="1626.67" cy="1067.38" r="2"/>
<circle clip-path="url(#clip002)" style="fill:#0000ff; stroke:none; fill-opacity:0" cx="1652.73" cy="584.721" r="2"/>
<circle clip-path="url(#clip002)" style="fill:#0000ff; stroke:none; fill-opacity:0" cx="1678.79" cy="968.934" r="2"/>
<circle clip-path="url(#clip002)" style="fill:#0000ff; stroke:none; fill-opacity:0" cx="1704.84" cy="826.5" r="2"/>
<circle clip-path="url(#clip002)" style="fill:#0000ff; stroke:none; fill-opacity:0" cx="1730.9" cy="816.496" r="2"/>
<circle clip-path="url(#clip002)" style="fill:#0000ff; stroke:none; fill-opacity:0" cx="1756.96" cy="724.394" r="2"/>
<circle clip-path="url(#clip002)" style="fill:#0000ff; stroke:none; fill-opacity:0" cx="1783.01" cy="816.984" r="2"/>
<circle clip-path="url(#clip002)" style="fill:#0000ff; stroke:none; fill-opacity:0" cx="1809.07" cy="526.317" r="2"/>
<circle clip-path="url(#clip002)" style="fill:#0000ff; stroke:none; fill-opacity:0" cx="1835.13" cy="992.49" r="2"/>
<circle clip-path="url(#clip002)" style="fill:#0000ff; stroke:none; fill-opacity:0" cx="1861.18" cy="1166.65" r="2"/>
<circle clip-path="url(#clip002)" style="fill:#0000ff; stroke:none; fill-opacity:0" cx="1887.24" cy="871.902" r="2"/>
<circle clip-path="url(#clip002)" style="fill:#0000ff; stroke:none; fill-opacity:0" cx="1913.3" cy="834.576" r="2"/>
<circle clip-path="url(#clip002)" style="fill:#0000ff; stroke:none; fill-opacity:0" cx="1939.35" cy="975.658" r="2"/>
<circle clip-path="url(#clip002)" style="fill:#0000ff; stroke:none; fill-opacity:0" cx="1965.41" cy="951.398" r="2"/>
<circle clip-path="url(#clip002)" style="fill:#0000ff; stroke:none; fill-opacity:0" cx="1991.47" cy="1437.55" r="2"/>
<circle clip-path="url(#clip002)" style="fill:#0000ff; stroke:none; fill-opacity:0" cx="2017.52" cy="1240.55" r="2"/>
<circle clip-path="url(#clip002)" style="fill:#0000ff; stroke:none; fill-opacity:0" cx="2043.58" cy="1014.12" r="2"/>
<circle clip-path="url(#clip002)" style="fill:#0000ff; stroke:none; fill-opacity:0" cx="2069.64" cy="114.052" r="2"/>
<circle clip-path="url(#clip002)" style="fill:#0000ff; stroke:none; fill-opacity:0" cx="2095.69" cy="871.429" r="2"/>
<circle clip-path="url(#clip002)" style="fill:#0000ff; stroke:none; fill-opacity:0" cx="2121.75" cy="938.638" r="2"/>
<circle clip-path="url(#clip002)" style="fill:#0000ff; stroke:none; fill-opacity:0" cx="2147.81" cy="1200.62" r="2"/>
<circle clip-path="url(#clip002)" style="fill:#0000ff; stroke:none; fill-opacity:0" cx="2173.86" cy="212.168" r="2"/>
<circle clip-path="url(#clip002)" style="fill:#0000ff; stroke:none; fill-opacity:0" cx="2199.92" cy="638.082" r="2"/>
<circle clip-path="url(#clip002)" style="fill:#0000ff; stroke:none; fill-opacity:0" cx="2225.98" cy="870.744" r="2"/>
<circle clip-path="url(#clip002)" style="fill:#0000ff; stroke:none; fill-opacity:0" cx="2252.03" cy="964.211" r="2"/>
<circle clip-path="url(#clip002)" style="fill:#0000ff; stroke:none; fill-opacity:0" cx="2278.09" cy="944.834" r="2"/>
<circle clip-path="url(#clip002)" style="fill:#0000ff; stroke:none; fill-opacity:0" cx="2304.15" cy="858.838" r="2"/>
<circle clip-path="url(#clip002)" style="fill:#0000ff; stroke:none; fill-opacity:0" cx="2330.2" cy="722.497" r="2"/>
<circle clip-path="url(#clip002)" style="fill:#0000ff; stroke:none; fill-opacity:0" cx="2356.26" cy="420.428" r="2"/>
<circle clip-path="url(#clip002)" style="fill:#0000ff; stroke:none; fill-opacity:0" cx="2382.32" cy="1177.24" r="2"/>
<circle clip-path="url(#clip002)" style="fill:#0000ff; stroke:none; fill-opacity:0" cx="2408.38" cy="87.8775" r="2"/>
<circle clip-path="url(#clip002)" style="fill:#0000ff; stroke:none; fill-opacity:0" cx="2434.43" cy="804.385" r="2"/>
<circle clip-path="url(#clip002)" style="fill:#0000ff; stroke:none; fill-opacity:0" cx="2460.49" cy="1495.09" r="2"/>
<circle clip-path="url(#clip002)" style="fill:#0000ff; stroke:none; fill-opacity:0" cx="2486.55" cy="416.347" r="2"/>
<circle clip-path="url(#clip002)" style="fill:#0000ff; stroke:none; fill-opacity:0" cx="2512.6" cy="1462.32" r="2"/>
<circle clip-path="url(#clip002)" style="fill:#0000ff; stroke:none; fill-opacity:0" cx="2538.66" cy="200.908" r="2"/>
<circle clip-path="url(#clip002)" style="fill:#0000ff; stroke:none; fill-opacity:0" cx="2564.72" cy="825.657" r="2"/>
<circle clip-path="url(#clip002)" style="fill:#0000ff; stroke:none; fill-opacity:0" cx="2590.77" cy="327.94" r="2"/>
<circle clip-path="url(#clip002)" style="fill:#0000ff; stroke:none; fill-opacity:0" cx="2616.83" cy="867.357" r="2"/>
<circle clip-path="url(#clip002)" style="fill:#0000ff; stroke:none; fill-opacity:0" cx="2642.89" cy="437.049" r="2"/>
<circle clip-path="url(#clip002)" style="fill:#0000ff; stroke:none; fill-opacity:0" cx="2668.94" cy="316.954" r="2"/>
<circle clip-path="url(#clip002)" style="fill:#0000ff; stroke:none; fill-opacity:0" cx="2695" cy="858.22" r="2"/>
<circle clip-path="url(#clip002)" style="fill:#0000ff; stroke:none; fill-opacity:0" cx="2721.06" cy="1380.73" r="2"/>
<circle clip-path="url(#clip002)" style="fill:#0000ff; stroke:none; fill-opacity:0" cx="2747.11" cy="1072.16" r="2"/>
<circle clip-path="url(#clip002)" style="fill:#0000ff; stroke:none; fill-opacity:0" cx="2773.17" cy="1057.92" r="2"/>
<circle clip-path="url(#clip002)" style="fill:#0000ff; stroke:none; fill-opacity:0" cx="2799.23" cy="991.184" r="2"/>
<circle clip-path="url(#clip002)" style="fill:#0000ff; stroke:none; fill-opacity:0" cx="2825.28" cy="659.135" r="2"/>
<circle clip-path="url(#clip002)" style="fill:#0000ff; stroke:none; fill-opacity:0" cx="2851.34" cy="450.382" r="2"/>
<circle clip-path="url(#clip002)" style="fill:#0000ff; stroke:none; fill-opacity:0" cx="2877.4" cy="788.537" r="2"/>
<circle clip-path="url(#clip002)" style="fill:#0000ff; stroke:none; fill-opacity:0" cx="2903.45" cy="1200.12" r="2"/>
<circle clip-path="url(#clip002)" style="fill:#0000ff; stroke:none; fill-opacity:0" cx="2929.51" cy="580.275" r="2"/>
<circle clip-path="url(#clip002)" style="fill:#0000ff; stroke:none; fill-opacity:0" cx="2955.57" cy="367.238" r="2"/>
<circle clip-path="url(#clip002)" style="fill:#0000ff; stroke:none; fill-opacity:0" cx="2981.62" cy="222.153" r="2"/>
</svg>
