<?xml version="1.0" encoding="utf-8"?>
<svg xmlns="http://www.w3.org/2000/svg" xmlns:xlink="http://www.w3.org/1999/xlink" width="600" height="400" viewBox="0 0 2400 1600">
<defs>
  <clipPath id="clip270">
    <rect x="0" y="0" width="2400" height="1600"/>
  </clipPath>
</defs>
<path clip-path="url(#clip270)" d="M0 1600 L2400 1600 L2400 8.88178e-14 L0 8.88178e-14  Z" fill="#ffffff" fill-rule="evenodd" fill-opacity="1"/>
<defs>
  <clipPath id="clip271">
    <rect x="480" y="0" width="1681" height="1600"/>
  </clipPath>
</defs>
<path clip-path="url(#clip270)" d="M186.274 1486.45 L2352.76 1486.45 L2352.76 47.2441 L186.274 47.2441  Z" fill="#eaeaea" fill-rule="evenodd" fill-opacity="1"/>
<defs>
  <clipPath id="clip272">
    <rect x="186" y="47" width="2167" height="1440"/>
  </clipPath>
</defs>
<polyline clip-path="url(#clip272)" style="stroke:#ffffff; stroke-linecap:round; stroke-linejoin:round; stroke-width:4; stroke-opacity:1; fill:none" points="239.479,1486.45 239.479,47.2441 "/>
<polyline clip-path="url(#clip272)" style="stroke:#ffffff; stroke-linecap:round; stroke-linejoin:round; stroke-width:4; stroke-opacity:1; fill:none" points="758.552,1486.45 758.552,47.2441 "/>
<polyline clip-path="url(#clip272)" style="stroke:#ffffff; stroke-linecap:round; stroke-linejoin:round; stroke-width:4; stroke-opacity:1; fill:none" points="1277.63,1486.45 1277.63,47.2441 "/>
<polyline clip-path="url(#clip272)" style="stroke:#ffffff; stroke-linecap:round; stroke-linejoin:round; stroke-width:4; stroke-opacity:1; fill:none" points="1796.7,1486.45 1796.7,47.2441 "/>
<polyline clip-path="url(#clip272)" style="stroke:#ffffff; stroke-linecap:round; stroke-linejoin:round; stroke-width:4; stroke-opacity:1; fill:none" points="2315.77,1486.45 2315.77,47.2441 "/>
<polyline clip-path="url(#clip272)" style="stroke:#ffffff; stroke-linecap:round; stroke-linejoin:round; stroke-width:2; stroke-opacity:1; fill:none" points="499.016,1486.45 499.016,47.2441 "/>
<polyline clip-path="url(#clip272)" style="stroke:#ffffff; stroke-linecap:round; stroke-linejoin:round; stroke-width:2; stroke-opacity:1; fill:none" points="1018.09,1486.45 1018.09,47.2441 "/>
<polyline clip-path="url(#clip272)" style="stroke:#ffffff; stroke-linecap:round; stroke-linejoin:round; stroke-width:2; stroke-opacity:1; fill:none" points="1537.16,1486.45 1537.16,47.2441 "/>
<polyline clip-path="url(#clip272)" style="stroke:#ffffff; stroke-linecap:round; stroke-linejoin:round; stroke-width:2; stroke-opacity:1; fill:none" points="2056.24,1486.45 2056.24,47.2441 "/>
<polyline clip-path="url(#clip270)" style="stroke:#ffffff; stroke-linecap:round; stroke-linejoin:round; stroke-width:4; stroke-opacity:1; fill:none" points="186.274,1486.45 2352.76,1486.45 "/>
<polyline clip-path="url(#clip270)" style="stroke:#333333; stroke-linecap:round; stroke-linejoin:round; stroke-width:4; stroke-opacity:1; fill:none" points="239.479,1486.45 239.479,1505.35 "/>
<polyline clip-path="url(#clip270)" style="stroke:#333333; stroke-linecap:round; stroke-linejoin:round; stroke-width:4; stroke-opacity:1; fill:none" points="758.552,1486.45 758.552,1505.35 "/>
<polyline clip-path="url(#clip270)" style="stroke:#333333; stroke-linecap:round; stroke-linejoin:round; stroke-width:4; stroke-opacity:1; fill:none" points="1277.63,1486.45 1277.63,1505.35 "/>
<polyline clip-path="url(#clip270)" style="stroke:#333333; stroke-linecap:round; stroke-linejoin:round; stroke-width:4; stroke-opacity:1; fill:none" points="1796.7,1486.45 1796.7,1505.35 "/>
<polyline clip-path="url(#clip270)" style="stroke:#333333; stroke-linecap:round; stroke-linejoin:round; stroke-width:4; stroke-opacity:1; fill:none" points="2315.77,1486.45 2315.77,1505.35 "/>
<polyline clip-path="url(#clip270)" style="stroke:#333333; stroke-linecap:round; stroke-linejoin:round; stroke-width:4; stroke-opacity:1; fill:none" points="499.016,1486.45 499.016,1495.9 "/>
<polyline clip-path="url(#clip270)" style="stroke:#333333; stroke-linecap:round; stroke-linejoin:round; stroke-width:4; stroke-opacity:1; fill:none" points="1018.09,1486.45 1018.09,1495.9 "/>
<polyline clip-path="url(#clip270)" style="stroke:#333333; stroke-linecap:round; stroke-linejoin:round; stroke-width:4; stroke-opacity:1; fill:none" points="1537.16,1486.45 1537.16,1495.9 "/>
<polyline clip-path="url(#clip270)" style="stroke:#333333; stroke-linecap:round; stroke-linejoin:round; stroke-width:4; stroke-opacity:1; fill:none" points="2056.24,1486.45 2056.24,1495.9 "/>
<path clip-path="url(#clip270)" d="M201.782 1526.97 Q198.171 1526.97 196.343 1530.53 Q194.537 1534.07 194.537 1541.2 Q194.537 1548.31 196.343 1551.87 Q198.171 1555.42 201.782 1555.42 Q205.417 1555.42 207.222 1551.87 Q209.051 1548.31 209.051 1541.2 Q209.051 1534.07 207.222 1530.53 Q205.417 1526.97 201.782 1526.97 M201.782 1523.26 Q207.593 1523.26 210.648 1527.87 Q213.727 1532.45 213.727 1541.2 Q213.727 1549.93 210.648 1554.54 Q207.593 1559.12 201.782 1559.12 Q195.972 1559.12 192.894 1554.54 Q189.838 1549.93 189.838 1541.2 Q189.838 1532.45 192.894 1527.87 Q195.972 1523.26 201.782 1523.26 Z" fill="#4c4c4c" fill-rule="nonzero" fill-opacity="1" /><path clip-path="url(#clip270)" d="M221.944 1552.57 L226.829 1552.57 L226.829 1558.45 L221.944 1558.45 L221.944 1552.57 Z" fill="#4c4c4c" fill-rule="nonzero" fill-opacity="1" /><path clip-path="url(#clip270)" d="M247.014 1526.97 Q243.403 1526.97 241.574 1530.53 Q239.768 1534.07 239.768 1541.2 Q239.768 1548.31 241.574 1551.87 Q243.403 1555.42 247.014 1555.42 Q250.648 1555.42 252.453 1551.87 Q254.282 1548.31 254.282 1541.2 Q254.282 1534.07 252.453 1530.53 Q250.648 1526.97 247.014 1526.97 M247.014 1523.26 Q252.824 1523.26 255.879 1527.87 Q258.958 1532.45 258.958 1541.2 Q258.958 1549.93 255.879 1554.54 Q252.824 1559.12 247.014 1559.12 Q241.204 1559.12 238.125 1554.54 Q235.069 1549.93 235.069 1541.2 Q235.069 1532.45 238.125 1527.87 Q241.204 1523.26 247.014 1523.26 Z" fill="#4c4c4c" fill-rule="nonzero" fill-opacity="1" /><path clip-path="url(#clip270)" d="M277.176 1526.97 Q273.564 1526.97 271.736 1530.53 Q269.93 1534.07 269.93 1541.2 Q269.93 1548.31 271.736 1551.87 Q273.564 1555.42 277.176 1555.42 Q280.81 1555.42 282.615 1551.87 Q284.444 1548.31 284.444 1541.2 Q284.444 1534.07 282.615 1530.53 Q280.81 1526.97 277.176 1526.97 M277.176 1523.26 Q282.986 1523.26 286.041 1527.87 Q289.12 1532.45 289.12 1541.2 Q289.12 1549.93 286.041 1554.54 Q282.986 1559.12 277.176 1559.12 Q271.365 1559.12 268.287 1554.54 Q265.231 1549.93 265.231 1541.2 Q265.231 1532.45 268.287 1527.87 Q271.365 1523.26 277.176 1523.26 Z" fill="#4c4c4c" fill-rule="nonzero" fill-opacity="1" /><path clip-path="url(#clip270)" d="M721.353 1526.97 Q717.742 1526.97 715.914 1530.53 Q714.108 1534.07 714.108 1541.2 Q714.108 1548.31 715.914 1551.87 Q717.742 1555.42 721.353 1555.42 Q724.988 1555.42 726.793 1551.87 Q728.622 1548.31 728.622 1541.2 Q728.622 1534.07 726.793 1530.53 Q724.988 1526.97 721.353 1526.97 M721.353 1523.26 Q727.164 1523.26 730.219 1527.87 Q733.298 1532.45 733.298 1541.2 Q733.298 1549.93 730.219 1554.54 Q727.164 1559.12 721.353 1559.12 Q715.543 1559.12 712.465 1554.54 Q709.409 1549.93 709.409 1541.2 Q709.409 1532.45 712.465 1527.87 Q715.543 1523.26 721.353 1523.26 Z" fill="#4c4c4c" fill-rule="nonzero" fill-opacity="1" /><path clip-path="url(#clip270)" d="M741.515 1552.57 L746.4 1552.57 L746.4 1558.45 L741.515 1558.45 L741.515 1552.57 Z" fill="#4c4c4c" fill-rule="nonzero" fill-opacity="1" /><path clip-path="url(#clip270)" d="M760.612 1554.51 L776.932 1554.51 L776.932 1558.45 L754.987 1558.45 L754.987 1554.51 Q757.649 1551.76 762.233 1547.13 Q766.839 1542.48 768.02 1541.13 Q770.265 1538.61 771.145 1536.87 Q772.048 1535.11 772.048 1533.42 Q772.048 1530.67 770.103 1528.93 Q768.182 1527.2 765.08 1527.2 Q762.881 1527.2 760.427 1527.96 Q757.997 1528.73 755.219 1530.28 L755.219 1525.55 Q758.043 1524.42 760.497 1523.84 Q762.95 1523.26 764.987 1523.26 Q770.358 1523.26 773.552 1525.95 Q776.747 1528.63 776.747 1533.12 Q776.747 1535.25 775.936 1537.17 Q775.149 1539.07 773.043 1541.67 Q772.464 1542.34 769.362 1545.55 Q766.261 1548.75 760.612 1554.51 Z" fill="#4c4c4c" fill-rule="nonzero" fill-opacity="1" /><path clip-path="url(#clip270)" d="M786.793 1523.89 L805.149 1523.89 L805.149 1527.82 L791.075 1527.82 L791.075 1536.3 Q792.094 1535.95 793.112 1535.79 Q794.131 1535.6 795.149 1535.6 Q800.936 1535.6 804.316 1538.77 Q807.695 1541.94 807.695 1547.36 Q807.695 1552.94 804.223 1556.04 Q800.751 1559.12 794.432 1559.12 Q792.256 1559.12 789.987 1558.75 Q787.742 1558.38 785.335 1557.64 L785.335 1552.94 Q787.418 1554.07 789.64 1554.63 Q791.862 1555.18 794.339 1555.18 Q798.344 1555.18 800.682 1553.08 Q803.02 1550.97 803.02 1547.36 Q803.02 1543.75 800.682 1541.64 Q798.344 1539.54 794.339 1539.54 Q792.464 1539.54 790.589 1539.95 Q788.737 1540.37 786.793 1541.25 L786.793 1523.89 Z" fill="#4c4c4c" fill-rule="nonzero" fill-opacity="1" /><path clip-path="url(#clip270)" d="M1239.93 1526.97 Q1236.32 1526.97 1234.49 1530.53 Q1232.68 1534.07 1232.68 1541.2 Q1232.68 1548.31 1234.49 1551.87 Q1236.32 1555.42 1239.93 1555.42 Q1243.56 1555.42 1245.37 1551.87 Q1247.2 1548.31 1247.2 1541.2 Q1247.2 1534.07 1245.37 1530.53 Q1243.56 1526.97 1239.93 1526.97 M1239.93 1523.26 Q1245.74 1523.26 1248.79 1527.87 Q1251.87 1532.45 1251.87 1541.2 Q1251.87 1549.93 1248.79 1554.54 Q1245.74 1559.12 1239.93 1559.12 Q1234.12 1559.12 1231.04 1554.54 Q1227.98 1549.93 1227.98 1541.2 Q1227.98 1532.45 1231.04 1527.87 Q1234.12 1523.26 1239.93 1523.26 Z" fill="#4c4c4c" fill-rule="nonzero" fill-opacity="1" /><path clip-path="url(#clip270)" d="M1260.09 1552.57 L1264.98 1552.57 L1264.98 1558.45 L1260.09 1558.45 L1260.09 1552.57 Z" fill="#4c4c4c" fill-rule="nonzero" fill-opacity="1" /><path clip-path="url(#clip270)" d="M1275.21 1523.89 L1293.56 1523.89 L1293.56 1527.82 L1279.49 1527.82 L1279.49 1536.3 Q1280.51 1535.95 1281.53 1535.79 Q1282.54 1535.6 1283.56 1535.6 Q1289.35 1535.6 1292.73 1538.77 Q1296.11 1541.94 1296.11 1547.36 Q1296.11 1552.94 1292.64 1556.04 Q1289.16 1559.12 1282.85 1559.12 Q1280.67 1559.12 1278.4 1558.75 Q1276.16 1558.38 1273.75 1557.64 L1273.75 1552.94 Q1275.83 1554.07 1278.05 1554.63 Q1280.28 1555.18 1282.75 1555.18 Q1286.76 1555.18 1289.1 1553.08 Q1291.43 1550.97 1291.43 1547.36 Q1291.43 1543.75 1289.1 1541.64 Q1286.76 1539.54 1282.75 1539.54 Q1280.88 1539.54 1279 1539.95 Q1277.15 1540.37 1275.21 1541.25 L1275.21 1523.89 Z" fill="#4c4c4c" fill-rule="nonzero" fill-opacity="1" /><path clip-path="url(#clip270)" d="M1315.32 1526.97 Q1311.71 1526.97 1309.88 1530.53 Q1308.08 1534.07 1308.08 1541.2 Q1308.08 1548.31 1309.88 1551.87 Q1311.71 1555.42 1315.32 1555.42 Q1318.96 1555.42 1320.76 1551.87 Q1322.59 1548.31 1322.59 1541.2 Q1322.59 1534.07 1320.76 1530.53 Q1318.96 1526.97 1315.32 1526.97 M1315.32 1523.26 Q1321.13 1523.26 1324.19 1527.87 Q1327.27 1532.45 1327.27 1541.2 Q1327.27 1549.93 1324.19 1554.54 Q1321.13 1559.12 1315.32 1559.12 Q1309.51 1559.12 1306.43 1554.54 Q1303.38 1549.93 1303.38 1541.2 Q1303.38 1532.45 1306.43 1527.87 Q1309.51 1523.26 1315.32 1523.26 Z" fill="#4c4c4c" fill-rule="nonzero" fill-opacity="1" /><path clip-path="url(#clip270)" d="M1759.5 1526.97 Q1755.89 1526.97 1754.06 1530.53 Q1752.25 1534.07 1752.25 1541.2 Q1752.25 1548.31 1754.06 1551.87 Q1755.89 1555.42 1759.5 1555.42 Q1763.13 1555.42 1764.94 1551.87 Q1766.77 1548.31 1766.77 1541.2 Q1766.77 1534.07 1764.94 1530.53 Q1763.13 1526.97 1759.5 1526.97 M1759.5 1523.26 Q1765.31 1523.26 1768.37 1527.87 Q1771.44 1532.45 1771.44 1541.2 Q1771.44 1549.93 1768.37 1554.54 Q1765.31 1559.12 1759.5 1559.12 Q1753.69 1559.12 1750.61 1554.54 Q1747.56 1549.93 1747.56 1541.2 Q1747.56 1532.45 1750.61 1527.87 Q1753.69 1523.26 1759.5 1523.26 Z" fill="#4c4c4c" fill-rule="nonzero" fill-opacity="1" /><path clip-path="url(#clip270)" d="M1779.66 1552.57 L1784.55 1552.57 L1784.55 1558.45 L1779.66 1558.45 L1779.66 1552.57 Z" fill="#4c4c4c" fill-rule="nonzero" fill-opacity="1" /><path clip-path="url(#clip270)" d="M1793.55 1523.89 L1815.77 1523.89 L1815.77 1525.88 L1803.23 1558.45 L1798.34 1558.45 L1810.15 1527.82 L1793.55 1527.82 L1793.55 1523.89 Z" fill="#4c4c4c" fill-rule="nonzero" fill-opacity="1" /><path clip-path="url(#clip270)" d="M1824.94 1523.89 L1843.3 1523.89 L1843.3 1527.82 L1829.22 1527.82 L1829.22 1536.3 Q1830.24 1535.95 1831.26 1535.79 Q1832.28 1535.6 1833.3 1535.6 Q1839.08 1535.6 1842.46 1538.77 Q1845.84 1541.94 1845.84 1547.36 Q1845.84 1552.94 1842.37 1556.04 Q1838.9 1559.12 1832.58 1559.12 Q1830.4 1559.12 1828.13 1558.75 Q1825.89 1558.38 1823.48 1557.64 L1823.48 1552.94 Q1825.56 1554.07 1827.79 1554.63 Q1830.01 1555.18 1832.49 1555.18 Q1836.49 1555.18 1838.83 1553.08 Q1841.17 1550.97 1841.17 1547.36 Q1841.17 1543.75 1838.83 1541.64 Q1836.49 1539.54 1832.49 1539.54 Q1830.61 1539.54 1828.74 1539.95 Q1826.88 1540.37 1824.94 1541.25 L1824.94 1523.89 Z" fill="#4c4c4c" fill-rule="nonzero" fill-opacity="1" /><path clip-path="url(#clip270)" d="M2267.84 1554.51 L2275.48 1554.51 L2275.48 1528.15 L2267.17 1529.81 L2267.17 1525.55 L2275.44 1523.89 L2280.11 1523.89 L2280.11 1554.51 L2287.75 1554.51 L2287.75 1558.45 L2267.84 1558.45 L2267.84 1554.51 Z" fill="#4c4c4c" fill-rule="nonzero" fill-opacity="1" /><path clip-path="url(#clip270)" d="M2297.2 1552.57 L2302.08 1552.57 L2302.08 1558.45 L2297.2 1558.45 L2297.2 1552.57 Z" fill="#4c4c4c" fill-rule="nonzero" fill-opacity="1" /><path clip-path="url(#clip270)" d="M2322.26 1526.97 Q2318.65 1526.97 2316.83 1530.53 Q2315.02 1534.07 2315.02 1541.2 Q2315.02 1548.31 2316.83 1551.87 Q2318.65 1555.42 2322.26 1555.42 Q2325.9 1555.42 2327.7 1551.87 Q2329.53 1548.31 2329.53 1541.2 Q2329.53 1534.07 2327.7 1530.53 Q2325.9 1526.97 2322.26 1526.97 M2322.26 1523.26 Q2328.08 1523.26 2331.13 1527.87 Q2334.21 1532.45 2334.21 1541.2 Q2334.21 1549.93 2331.13 1554.54 Q2328.08 1559.12 2322.26 1559.12 Q2316.45 1559.12 2313.38 1554.54 Q2310.32 1549.93 2310.32 1541.2 Q2310.32 1532.45 2313.38 1527.87 Q2316.45 1523.26 2322.26 1523.26 Z" fill="#4c4c4c" fill-rule="nonzero" fill-opacity="1" /><path clip-path="url(#clip270)" d="M2352.43 1526.97 Q2348.82 1526.97 2346.99 1530.53 Q2345.18 1534.07 2345.18 1541.2 Q2345.18 1548.31 2346.99 1551.87 Q2348.82 1555.42 2352.43 1555.42 Q2356.06 1555.42 2357.87 1551.87 Q2359.7 1548.31 2359.7 1541.2 Q2359.7 1534.07 2357.87 1530.53 Q2356.06 1526.97 2352.43 1526.97 M2352.43 1523.26 Q2358.24 1523.26 2361.29 1527.87 Q2364.37 1532.45 2364.37 1541.2 Q2364.37 1549.93 2361.29 1554.54 Q2358.24 1559.12 2352.43 1559.12 Q2346.62 1559.12 2343.54 1554.54 Q2340.48 1549.93 2340.48 1541.2 Q2340.48 1532.45 2343.54 1527.87 Q2346.62 1523.26 2352.43 1523.26 Z" fill="#4c4c4c" fill-rule="nonzero" fill-opacity="1" /><polyline clip-path="url(#clip272)" style="stroke:#ffffff; stroke-linecap:round; stroke-linejoin:round; stroke-width:4; stroke-opacity:1; fill:none" points="186.274,1445.72 2352.76,1445.72 "/>
<polyline clip-path="url(#clip272)" style="stroke:#ffffff; stroke-linecap:round; stroke-linejoin:round; stroke-width:4; stroke-opacity:1; fill:none" points="186.274,1100.89 2352.76,1100.89 "/>
<polyline clip-path="url(#clip272)" style="stroke:#ffffff; stroke-linecap:round; stroke-linejoin:round; stroke-width:4; stroke-opacity:1; fill:none" points="186.274,756.07 2352.76,756.07 "/>
<polyline clip-path="url(#clip272)" style="stroke:#ffffff; stroke-linecap:round; stroke-linejoin:round; stroke-width:4; stroke-opacity:1; fill:none" points="186.274,411.248 2352.76,411.248 "/>
<polyline clip-path="url(#clip272)" style="stroke:#ffffff; stroke-linecap:round; stroke-linejoin:round; stroke-width:4; stroke-opacity:1; fill:none" points="186.274,66.4249 2352.76,66.4249 "/>
<polyline clip-path="url(#clip272)" style="stroke:#ffffff; stroke-linecap:round; stroke-linejoin:round; stroke-width:2; stroke-opacity:1; fill:none" points="186.274,1273.3 2352.76,1273.3 "/>
<polyline clip-path="url(#clip272)" style="stroke:#ffffff; stroke-linecap:round; stroke-linejoin:round; stroke-width:2; stroke-opacity:1; fill:none" points="186.274,928.482 2352.76,928.482 "/>
<polyline clip-path="url(#clip272)" style="stroke:#ffffff; stroke-linecap:round; stroke-linejoin:round; stroke-width:2; stroke-opacity:1; fill:none" points="186.274,583.659 2352.76,583.659 "/>
<polyline clip-path="url(#clip272)" style="stroke:#ffffff; stroke-linecap:round; stroke-linejoin:round; stroke-width:2; stroke-opacity:1; fill:none" points="186.274,238.836 2352.76,238.836 "/>
<polyline clip-path="url(#clip270)" style="stroke:#ffffff; stroke-linecap:round; stroke-linejoin:round; stroke-width:4; stroke-opacity:1; fill:none" points="186.274,1486.45 186.274,47.2441 "/>
<polyline clip-path="url(#clip270)" style="stroke:#333333; stroke-linecap:round; stroke-linejoin:round; stroke-width:4; stroke-opacity:1; fill:none" points="186.274,1445.72 167.376,1445.72 "/>
<polyline clip-path="url(#clip270)" style="stroke:#333333; stroke-linecap:round; stroke-linejoin:round; stroke-width:4; stroke-opacity:1; fill:none" points="186.274,1100.89 167.376,1100.89 "/>
<polyline clip-path="url(#clip270)" style="stroke:#333333; stroke-linecap:round; stroke-linejoin:round; stroke-width:4; stroke-opacity:1; fill:none" points="186.274,756.07 167.376,756.07 "/>
<polyline clip-path="url(#clip270)" style="stroke:#333333; stroke-linecap:round; stroke-linejoin:round; stroke-width:4; stroke-opacity:1; fill:none" points="186.274,411.248 167.376,411.248 "/>
<polyline clip-path="url(#clip270)" style="stroke:#333333; stroke-linecap:round; stroke-linejoin:round; stroke-width:4; stroke-opacity:1; fill:none" points="186.274,66.4249 167.376,66.4249 "/>
<polyline clip-path="url(#clip270)" style="stroke:#333333; stroke-linecap:round; stroke-linejoin:round; stroke-width:4; stroke-opacity:1; fill:none" points="186.274,1273.3 176.825,1273.3 "/>
<polyline clip-path="url(#clip270)" style="stroke:#333333; stroke-linecap:round; stroke-linejoin:round; stroke-width:4; stroke-opacity:1; fill:none" points="186.274,928.482 176.825,928.482 "/>
<polyline clip-path="url(#clip270)" style="stroke:#333333; stroke-linecap:round; stroke-linejoin:round; stroke-width:4; stroke-opacity:1; fill:none" points="186.274,583.659 176.825,583.659 "/>
<polyline clip-path="url(#clip270)" style="stroke:#333333; stroke-linecap:round; stroke-linejoin:round; stroke-width:4; stroke-opacity:1; fill:none" points="186.274,238.836 176.825,238.836 "/>
<path clip-path="url(#clip270)" d="M44.9365 1431.51 Q41.3254 1431.51 39.4967 1435.08 Q37.6912 1438.62 37.6912 1445.75 Q37.6912 1452.86 39.4967 1456.42 Q41.3254 1459.96 44.9365 1459.96 Q48.5707 1459.96 50.3763 1456.42 Q52.205 1452.86 52.205 1445.75 Q52.205 1438.62 50.3763 1435.08 Q48.5707 1431.51 44.9365 1431.51 M44.9365 1427.81 Q50.7467 1427.81 53.8022 1432.42 Q56.8809 1437 56.8809 1445.75 Q56.8809 1454.48 53.8022 1459.08 Q50.7467 1463.67 44.9365 1463.67 Q39.1264 1463.67 36.0477 1459.08 Q32.9921 1454.48 32.9921 1445.75 Q32.9921 1437 36.0477 1432.42 Q39.1264 1427.81 44.9365 1427.81 Z" fill="#4c4c4c" fill-rule="nonzero" fill-opacity="1" /><path clip-path="url(#clip270)" d="M65.0984 1457.12 L69.9827 1457.12 L69.9827 1463 L65.0984 1463 L65.0984 1457.12 Z" fill="#4c4c4c" fill-rule="nonzero" fill-opacity="1" /><path clip-path="url(#clip270)" d="M90.1677 1431.51 Q86.5567 1431.51 84.728 1435.08 Q82.9224 1438.62 82.9224 1445.75 Q82.9224 1452.86 84.728 1456.42 Q86.5567 1459.96 90.1677 1459.96 Q93.802 1459.96 95.6075 1456.42 Q97.4362 1452.86 97.4362 1445.75 Q97.4362 1438.62 95.6075 1435.08 Q93.802 1431.51 90.1677 1431.51 M90.1677 1427.81 Q95.9779 1427.81 99.0334 1432.42 Q102.112 1437 102.112 1445.75 Q102.112 1454.48 99.0334 1459.08 Q95.9779 1463.67 90.1677 1463.67 Q84.3576 1463.67 81.2789 1459.08 Q78.2234 1454.48 78.2234 1445.75 Q78.2234 1437 81.2789 1432.42 Q84.3576 1427.81 90.1677 1427.81 Z" fill="#4c4c4c" fill-rule="nonzero" fill-opacity="1" /><path clip-path="url(#clip270)" d="M120.33 1431.51 Q116.719 1431.51 114.89 1435.08 Q113.084 1438.62 113.084 1445.75 Q113.084 1452.86 114.89 1456.42 Q116.719 1459.96 120.33 1459.96 Q123.964 1459.96 125.769 1456.42 Q127.598 1452.86 127.598 1445.75 Q127.598 1438.62 125.769 1435.08 Q123.964 1431.51 120.33 1431.51 M120.33 1427.81 Q126.14 1427.81 129.195 1432.42 Q132.274 1437 132.274 1445.75 Q132.274 1454.48 129.195 1459.08 Q126.14 1463.67 120.33 1463.67 Q114.519 1463.67 111.441 1459.08 Q108.385 1454.48 108.385 1445.75 Q108.385 1437 111.441 1432.42 Q114.519 1427.81 120.33 1427.81 Z" fill="#4c4c4c" fill-rule="nonzero" fill-opacity="1" /><path clip-path="url(#clip270)" d="M45.9319 1086.69 Q42.3208 1086.69 40.4921 1090.26 Q38.6865 1093.8 38.6865 1100.93 Q38.6865 1108.03 40.4921 1111.6 Q42.3208 1115.14 45.9319 1115.14 Q49.5661 1115.14 51.3717 1111.6 Q53.2004 1108.03 53.2004 1100.93 Q53.2004 1093.8 51.3717 1090.26 Q49.5661 1086.69 45.9319 1086.69 M45.9319 1082.99 Q51.742 1082.99 54.7976 1087.59 Q57.8763 1092.18 57.8763 1100.93 Q57.8763 1109.65 54.7976 1114.26 Q51.742 1118.84 45.9319 1118.84 Q40.1217 1118.84 37.043 1114.26 Q33.9875 1109.65 33.9875 1100.93 Q33.9875 1092.18 37.043 1087.59 Q40.1217 1082.99 45.9319 1082.99 Z" fill="#4c4c4c" fill-rule="nonzero" fill-opacity="1" /><path clip-path="url(#clip270)" d="M66.0938 1112.29 L70.978 1112.29 L70.978 1118.17 L66.0938 1118.17 L66.0938 1112.29 Z" fill="#4c4c4c" fill-rule="nonzero" fill-opacity="1" /><path clip-path="url(#clip270)" d="M85.1909 1114.24 L101.51 1114.24 L101.51 1118.17 L79.566 1118.17 L79.566 1114.24 Q82.228 1111.48 86.8113 1106.85 Q91.4177 1102.2 92.5983 1100.86 Q94.8436 1098.34 95.7233 1096.6 Q96.626 1094.84 96.626 1093.15 Q96.626 1090.4 94.6816 1088.66 Q92.7603 1086.92 89.6585 1086.92 Q87.4594 1086.92 85.0057 1087.69 Q82.5752 1088.45 79.7974 1090 L79.7974 1085.28 Q82.6215 1084.15 85.0752 1083.57 Q87.5289 1082.99 89.5659 1082.99 Q94.9362 1082.99 98.1307 1085.67 Q101.325 1088.36 101.325 1092.85 Q101.325 1094.98 100.515 1096.9 Q99.7279 1098.8 97.6214 1101.39 Q97.0427 1102.06 93.9409 1105.28 Q90.839 1108.47 85.1909 1114.24 Z" fill="#4c4c4c" fill-rule="nonzero" fill-opacity="1" /><path clip-path="url(#clip270)" d="M111.371 1083.61 L129.728 1083.61 L129.728 1087.55 L115.654 1087.55 L115.654 1096.02 Q116.672 1095.67 117.691 1095.51 Q118.709 1095.33 119.728 1095.33 Q125.515 1095.33 128.894 1098.5 Q132.274 1101.67 132.274 1107.09 Q132.274 1112.66 128.802 1115.77 Q125.33 1118.84 119.01 1118.84 Q116.834 1118.84 114.566 1118.47 Q112.32 1118.1 109.913 1117.36 L109.913 1112.66 Q111.996 1113.8 114.219 1114.35 Q116.441 1114.91 118.918 1114.91 Q122.922 1114.91 125.26 1112.8 Q127.598 1110.7 127.598 1107.09 Q127.598 1103.47 125.26 1101.37 Q122.922 1099.26 118.918 1099.26 Q117.043 1099.26 115.168 1099.68 Q113.316 1100.09 111.371 1100.97 L111.371 1083.61 Z" fill="#4c4c4c" fill-rule="nonzero" fill-opacity="1" /><path clip-path="url(#clip270)" d="M44.9365 741.869 Q41.3254 741.869 39.4967 745.434 Q37.6912 748.975 37.6912 756.105 Q37.6912 763.211 39.4967 766.776 Q41.3254 770.318 44.9365 770.318 Q48.5707 770.318 50.3763 766.776 Q52.205 763.211 52.205 756.105 Q52.205 748.975 50.3763 745.434 Q48.5707 741.869 44.9365 741.869 M44.9365 738.165 Q50.7467 738.165 53.8022 742.772 Q56.8809 747.355 56.8809 756.105 Q56.8809 764.832 53.8022 769.438 Q50.7467 774.022 44.9365 774.022 Q39.1264 774.022 36.0477 769.438 Q32.9921 764.832 32.9921 756.105 Q32.9921 747.355 36.0477 742.772 Q39.1264 738.165 44.9365 738.165 Z" fill="#4c4c4c" fill-rule="nonzero" fill-opacity="1" /><path clip-path="url(#clip270)" d="M65.0984 767.471 L69.9827 767.471 L69.9827 773.35 L65.0984 773.35 L65.0984 767.471 Z" fill="#4c4c4c" fill-rule="nonzero" fill-opacity="1" /><path clip-path="url(#clip270)" d="M80.2141 738.79 L98.5705 738.79 L98.5705 742.725 L84.4965 742.725 L84.4965 751.198 Q85.515 750.85 86.5335 750.688 Q87.552 750.503 88.5705 750.503 Q94.3575 750.503 97.7371 753.674 Q101.117 756.846 101.117 762.262 Q101.117 767.841 97.6446 770.943 Q94.1724 774.022 87.8529 774.022 Q85.677 774.022 83.4085 773.651 Q81.1632 773.281 78.7558 772.54 L78.7558 767.841 Q80.8391 768.975 83.0613 769.531 Q85.2835 770.086 87.7604 770.086 Q91.765 770.086 94.1029 767.98 Q96.4409 765.873 96.4409 762.262 Q96.4409 758.651 94.1029 756.545 Q91.765 754.438 87.7604 754.438 Q85.8854 754.438 84.0104 754.855 Q82.1585 755.272 80.2141 756.151 L80.2141 738.79 Z" fill="#4c4c4c" fill-rule="nonzero" fill-opacity="1" /><path clip-path="url(#clip270)" d="M120.33 741.869 Q116.719 741.869 114.89 745.434 Q113.084 748.975 113.084 756.105 Q113.084 763.211 114.89 766.776 Q116.719 770.318 120.33 770.318 Q123.964 770.318 125.769 766.776 Q127.598 763.211 127.598 756.105 Q127.598 748.975 125.769 745.434 Q123.964 741.869 120.33 741.869 M120.33 738.165 Q126.14 738.165 129.195 742.772 Q132.274 747.355 132.274 756.105 Q132.274 764.832 129.195 769.438 Q126.14 774.022 120.33 774.022 Q114.519 774.022 111.441 769.438 Q108.385 764.832 108.385 756.105 Q108.385 747.355 111.441 742.772 Q114.519 738.165 120.33 738.165 Z" fill="#4c4c4c" fill-rule="nonzero" fill-opacity="1" /><path clip-path="url(#clip270)" d="M45.9319 397.046 Q42.3208 397.046 40.4921 400.611 Q38.6865 404.153 38.6865 411.282 Q38.6865 418.389 40.4921 421.954 Q42.3208 425.495 45.9319 425.495 Q49.5661 425.495 51.3717 421.954 Q53.2004 418.389 53.2004 411.282 Q53.2004 404.153 51.3717 400.611 Q49.5661 397.046 45.9319 397.046 M45.9319 393.343 Q51.742 393.343 54.7976 397.949 Q57.8763 402.532 57.8763 411.282 Q57.8763 420.009 54.7976 424.616 Q51.742 429.199 45.9319 429.199 Q40.1217 429.199 37.043 424.616 Q33.9875 420.009 33.9875 411.282 Q33.9875 402.532 37.043 397.949 Q40.1217 393.343 45.9319 393.343 Z" fill="#4c4c4c" fill-rule="nonzero" fill-opacity="1" /><path clip-path="url(#clip270)" d="M66.0938 422.648 L70.978 422.648 L70.978 428.528 L66.0938 428.528 L66.0938 422.648 Z" fill="#4c4c4c" fill-rule="nonzero" fill-opacity="1" /><path clip-path="url(#clip270)" d="M79.9826 393.968 L102.205 393.968 L102.205 395.958 L89.6585 428.528 L84.7743 428.528 L96.5797 397.903 L79.9826 397.903 L79.9826 393.968 Z" fill="#4c4c4c" fill-rule="nonzero" fill-opacity="1" /><path clip-path="url(#clip270)" d="M111.371 393.968 L129.728 393.968 L129.728 397.903 L115.654 397.903 L115.654 406.375 Q116.672 406.028 117.691 405.866 Q118.709 405.68 119.728 405.68 Q125.515 405.68 128.894 408.852 Q132.274 412.023 132.274 417.44 Q132.274 423.018 128.802 426.12 Q125.33 429.199 119.01 429.199 Q116.834 429.199 114.566 428.828 Q112.32 428.458 109.913 427.717 L109.913 423.018 Q111.996 424.153 114.219 424.708 Q116.441 425.264 118.918 425.264 Q122.922 425.264 125.26 423.157 Q127.598 421.051 127.598 417.44 Q127.598 413.829 125.26 411.722 Q122.922 409.616 118.918 409.616 Q117.043 409.616 115.168 410.032 Q113.316 410.449 111.371 411.329 L111.371 393.968 Z" fill="#4c4c4c" fill-rule="nonzero" fill-opacity="1" /><path clip-path="url(#clip270)" d="M35.7467 79.7697 L43.3856 79.7697 L43.3856 53.4041 L35.0754 55.0708 L35.0754 50.8115 L43.3393 49.1449 L48.0152 49.1449 L48.0152 79.7697 L55.654 79.7697 L55.654 83.7049 L35.7467 83.7049 L35.7467 79.7697 Z" fill="#4c4c4c" fill-rule="nonzero" fill-opacity="1" /><path clip-path="url(#clip270)" d="M65.0984 77.8253 L69.9827 77.8253 L69.9827 83.7049 L65.0984 83.7049 L65.0984 77.8253 Z" fill="#4c4c4c" fill-rule="nonzero" fill-opacity="1" /><path clip-path="url(#clip270)" d="M90.1677 52.2235 Q86.5567 52.2235 84.728 55.7883 Q82.9224 59.33 82.9224 66.4596 Q82.9224 73.566 84.728 77.1308 Q86.5567 80.6725 90.1677 80.6725 Q93.802 80.6725 95.6075 77.1308 Q97.4362 73.566 97.4362 66.4596 Q97.4362 59.33 95.6075 55.7883 Q93.802 52.2235 90.1677 52.2235 M90.1677 48.5199 Q95.9779 48.5199 99.0334 53.1263 Q102.112 57.7096 102.112 66.4596 Q102.112 75.1864 99.0334 79.7928 Q95.9779 84.3762 90.1677 84.3762 Q84.3576 84.3762 81.2789 79.7928 Q78.2234 75.1864 78.2234 66.4596 Q78.2234 57.7096 81.2789 53.1263 Q84.3576 48.5199 90.1677 48.5199 Z" fill="#4c4c4c" fill-rule="nonzero" fill-opacity="1" /><path clip-path="url(#clip270)" d="M120.33 52.2235 Q116.719 52.2235 114.89 55.7883 Q113.084 59.33 113.084 66.4596 Q113.084 73.566 114.89 77.1308 Q116.719 80.6725 120.33 80.6725 Q123.964 80.6725 125.769 77.1308 Q127.598 73.566 127.598 66.4596 Q127.598 59.33 125.769 55.7883 Q123.964 52.2235 120.33 52.2235 M120.33 48.5199 Q126.14 48.5199 129.195 53.1263 Q132.274 57.7096 132.274 66.4596 Q132.274 75.1864 129.195 79.7928 Q126.14 84.3762 120.33 84.3762 Q114.519 84.3762 111.441 79.7928 Q108.385 75.1864 108.385 66.4596 Q108.385 57.7096 111.441 53.1263 Q114.519 48.5199 120.33 48.5199 Z" fill="#4c4c4c" fill-rule="nonzero" fill-opacity="1" /><circle clip-path="url(#clip272)" cx="799.105" cy="1057.79" r="14.4" fill="#009af9" fill-rule="evenodd" fill-opacity="1" stroke="none"/>
<circle clip-path="url(#clip272)" cx="1480.39" cy="1251.75" r="14.4" fill="#009af9" fill-rule="evenodd" fill-opacity="1" stroke="none"/>
<circle clip-path="url(#clip272)" cx="1902.14" cy="583.659" r="14.4" fill="#009af9" fill-rule="evenodd" fill-opacity="1" stroke="none"/>
<circle clip-path="url(#clip272)" cx="2064.35" cy="432.799" r="14.4" fill="#009af9" fill-rule="evenodd" fill-opacity="1" stroke="none"/>
<circle clip-path="url(#clip272)" cx="1967.02" cy="799.173" r="14.4" fill="#009af9" fill-rule="evenodd" fill-opacity="1" stroke="none"/>
<circle clip-path="url(#clip272)" cx="1610.16" cy="303.49" r="14.4" fill="#009af9" fill-rule="evenodd" fill-opacity="1" stroke="none"/>
<circle clip-path="url(#clip272)" cx="993.757" cy="325.042" r="14.4" fill="#009af9" fill-rule="evenodd" fill-opacity="1" stroke="none"/>
<circle clip-path="url(#clip272)" cx="2194.11" cy="863.827" r="14.4" fill="#009af9" fill-rule="evenodd" fill-opacity="1" stroke="none"/>
<circle clip-path="url(#clip272)" cx="1058.64" cy="540.556" r="14.4" fill="#009af9" fill-rule="evenodd" fill-opacity="1" stroke="none"/>
<circle clip-path="url(#clip272)" cx="1739.93" cy="734.519" r="14.4" fill="#009af9" fill-rule="evenodd" fill-opacity="1" stroke="none"/>
<circle clip-path="url(#clip272)" cx="2161.67" cy="1445.72" r="14.4" fill="#009af9" fill-rule="evenodd" fill-opacity="1" stroke="none"/>
<circle clip-path="url(#clip272)" cx="247.59" cy="1294.86" r="14.4" fill="#009af9" fill-rule="evenodd" fill-opacity="1" stroke="none"/>
<circle clip-path="url(#clip272)" cx="2226.56" cy="281.939" r="14.4" fill="#009af9" fill-rule="evenodd" fill-opacity="1" stroke="none"/>
<circle clip-path="url(#clip272)" cx="1869.69" cy="1165.55" r="14.4" fill="#009af9" fill-rule="evenodd" fill-opacity="1" stroke="none"/>
<circle clip-path="url(#clip272)" cx="1253.29" cy="1187.1" r="14.4" fill="#009af9" fill-rule="evenodd" fill-opacity="1" stroke="none"/>
<circle clip-path="url(#clip272)" cx="377.358" cy="346.593" r="14.4" fill="#009af9" fill-rule="evenodd" fill-opacity="1" stroke="none"/>
<circle clip-path="url(#clip272)" cx="1318.18" cy="1402.61" r="14.4" fill="#009af9" fill-rule="evenodd" fill-opacity="1" stroke="none"/>
<circle clip-path="url(#clip272)" cx="1999.46" cy="217.285" r="14.4" fill="#009af9" fill-rule="evenodd" fill-opacity="1" stroke="none"/>
<circle clip-path="url(#clip272)" cx="344.916" cy="928.482" r="14.4" fill="#009af9" fill-rule="evenodd" fill-opacity="1" stroke="none"/>
<circle clip-path="url(#clip272)" cx="507.126" cy="777.622" r="14.4" fill="#009af9" fill-rule="evenodd" fill-opacity="1" stroke="none"/>
<circle clip-path="url(#clip272)" cx="409.8" cy="1144" r="14.4" fill="#009af9" fill-rule="evenodd" fill-opacity="1" stroke="none"/>
<circle clip-path="url(#clip272)" cx="2129.23" cy="648.313" r="14.4" fill="#009af9" fill-rule="evenodd" fill-opacity="1" stroke="none"/>
<circle clip-path="url(#clip272)" cx="1512.83" cy="669.865" r="14.4" fill="#009af9" fill-rule="evenodd" fill-opacity="1" stroke="none"/>
<circle clip-path="url(#clip272)" cx="636.894" cy="1208.65" r="14.4" fill="#009af9" fill-rule="evenodd" fill-opacity="1" stroke="none"/>
<circle clip-path="url(#clip272)" cx="1577.71" cy="885.379" r="14.4" fill="#009af9" fill-rule="evenodd" fill-opacity="1" stroke="none"/>
<circle clip-path="url(#clip272)" cx="2259" cy="1079.34" r="14.4" fill="#009af9" fill-rule="evenodd" fill-opacity="1" stroke="none"/>
<circle clip-path="url(#clip272)" cx="604.452" cy="411.248" r="14.4" fill="#009af9" fill-rule="evenodd" fill-opacity="1" stroke="none"/>
<circle clip-path="url(#clip272)" cx="766.663" cy="260.388" r="14.4" fill="#009af9" fill-rule="evenodd" fill-opacity="1" stroke="none"/>
<circle clip-path="url(#clip272)" cx="669.337" cy="626.762" r="14.4" fill="#009af9" fill-rule="evenodd" fill-opacity="1" stroke="none"/>
<circle clip-path="url(#clip272)" cx="312.474" cy="131.079" r="14.4" fill="#009af9" fill-rule="evenodd" fill-opacity="1" stroke="none"/>
<circle clip-path="url(#clip272)" cx="1772.37" cy="152.631" r="14.4" fill="#009af9" fill-rule="evenodd" fill-opacity="1" stroke="none"/>
<circle clip-path="url(#clip272)" cx="896.431" cy="691.416" r="14.4" fill="#009af9" fill-rule="evenodd" fill-opacity="1" stroke="none"/>
<circle clip-path="url(#clip272)" cx="1837.25" cy="368.145" r="14.4" fill="#009af9" fill-rule="evenodd" fill-opacity="1" stroke="none"/>
<circle clip-path="url(#clip272)" cx="442.242" cy="562.108" r="14.4" fill="#009af9" fill-rule="evenodd" fill-opacity="1" stroke="none"/>
<circle clip-path="url(#clip272)" cx="863.989" cy="1273.3" r="14.4" fill="#009af9" fill-rule="evenodd" fill-opacity="1" stroke="none"/>
<circle clip-path="url(#clip272)" cx="1026.2" cy="1122.44" r="14.4" fill="#009af9" fill-rule="evenodd" fill-opacity="1" stroke="none"/>
<circle clip-path="url(#clip272)" cx="928.873" cy="109.528" r="14.4" fill="#009af9" fill-rule="evenodd" fill-opacity="1" stroke="none"/>
<circle clip-path="url(#clip272)" cx="572.01" cy="993.136" r="14.4" fill="#009af9" fill-rule="evenodd" fill-opacity="1" stroke="none"/>
<circle clip-path="url(#clip272)" cx="2031.9" cy="1014.69" r="14.4" fill="#009af9" fill-rule="evenodd" fill-opacity="1" stroke="none"/>
<circle clip-path="url(#clip272)" cx="1155.97" cy="174.182" r="14.4" fill="#009af9" fill-rule="evenodd" fill-opacity="1" stroke="none"/>
<circle clip-path="url(#clip272)" cx="2096.79" cy="1230.2" r="14.4" fill="#009af9" fill-rule="evenodd" fill-opacity="1" stroke="none"/>
<circle clip-path="url(#clip272)" cx="701.779" cy="1424.16" r="14.4" fill="#009af9" fill-rule="evenodd" fill-opacity="1" stroke="none"/>
<circle clip-path="url(#clip272)" cx="1123.53" cy="756.07" r="14.4" fill="#009af9" fill-rule="evenodd" fill-opacity="1" stroke="none"/>
<circle clip-path="url(#clip272)" cx="1285.74" cy="605.21" r="14.4" fill="#009af9" fill-rule="evenodd" fill-opacity="1" stroke="none"/>
<circle clip-path="url(#clip272)" cx="1188.41" cy="971.584" r="14.4" fill="#009af9" fill-rule="evenodd" fill-opacity="1" stroke="none"/>
<circle clip-path="url(#clip272)" cx="831.547" cy="475.902" r="14.4" fill="#009af9" fill-rule="evenodd" fill-opacity="1" stroke="none"/>
<circle clip-path="url(#clip272)" cx="2291.44" cy="497.453" r="14.4" fill="#009af9" fill-rule="evenodd" fill-opacity="1" stroke="none"/>
<circle clip-path="url(#clip272)" cx="1415.5" cy="1036.24" r="14.4" fill="#009af9" fill-rule="evenodd" fill-opacity="1" stroke="none"/>
<circle clip-path="url(#clip272)" cx="280.032" cy="712.967" r="14.4" fill="#009af9" fill-rule="evenodd" fill-opacity="1" stroke="none"/>
<circle clip-path="url(#clip272)" cx="961.315" cy="906.93" r="14.4" fill="#009af9" fill-rule="evenodd" fill-opacity="1" stroke="none"/>
<circle clip-path="url(#clip272)" cx="1383.06" cy="238.836" r="14.4" fill="#009af9" fill-rule="evenodd" fill-opacity="1" stroke="none"/>
<circle clip-path="url(#clip272)" cx="1545.27" cy="87.9763" r="14.4" fill="#009af9" fill-rule="evenodd" fill-opacity="1" stroke="none"/>
<circle clip-path="url(#clip272)" cx="1447.95" cy="454.35" r="14.4" fill="#009af9" fill-rule="evenodd" fill-opacity="1" stroke="none"/>
<circle clip-path="url(#clip272)" cx="1091.08" cy="1337.96" r="14.4" fill="#009af9" fill-rule="evenodd" fill-opacity="1" stroke="none"/>
<circle clip-path="url(#clip272)" cx="474.684" cy="1359.51" r="14.4" fill="#009af9" fill-rule="evenodd" fill-opacity="1" stroke="none"/>
<circle clip-path="url(#clip272)" cx="1675.04" cy="519.005" r="14.4" fill="#009af9" fill-rule="evenodd" fill-opacity="1" stroke="none"/>
<circle clip-path="url(#clip272)" cx="539.568" cy="195.733" r="14.4" fill="#009af9" fill-rule="evenodd" fill-opacity="1" stroke="none"/>
<circle clip-path="url(#clip272)" cx="1220.85" cy="389.696" r="14.4" fill="#009af9" fill-rule="evenodd" fill-opacity="1" stroke="none"/>
<circle clip-path="url(#clip272)" cx="1642.6" cy="1100.89" r="14.4" fill="#009af9" fill-rule="evenodd" fill-opacity="1" stroke="none"/>
<circle clip-path="url(#clip272)" cx="1804.81" cy="950.033" r="14.4" fill="#009af9" fill-rule="evenodd" fill-opacity="1" stroke="none"/>
<circle clip-path="url(#clip272)" cx="1707.48" cy="1316.41" r="14.4" fill="#009af9" fill-rule="evenodd" fill-opacity="1" stroke="none"/>
<circle clip-path="url(#clip272)" cx="1350.62" cy="820.725" r="14.4" fill="#009af9" fill-rule="evenodd" fill-opacity="1" stroke="none"/>
<circle clip-path="url(#clip272)" cx="734.221" cy="842.276" r="14.4" fill="#009af9" fill-rule="evenodd" fill-opacity="1" stroke="none"/>
<circle clip-path="url(#clip272)" cx="1934.58" cy="1381.06" r="14.4" fill="#009af9" fill-rule="evenodd" fill-opacity="1" stroke="none"/>
<circle clip-path="url(#clip272)" cx="799.105" cy="1057.79" r="14.4" fill="#009af9" fill-rule="evenodd" fill-opacity="1" stroke="none"/>
<circle clip-path="url(#clip272)" cx="1480.39" cy="1251.75" r="14.4" fill="#009af9" fill-rule="evenodd" fill-opacity="1" stroke="none"/>
<circle clip-path="url(#clip272)" cx="1902.14" cy="583.659" r="14.4" fill="#009af9" fill-rule="evenodd" fill-opacity="1" stroke="none"/>
<circle clip-path="url(#clip272)" cx="2064.35" cy="432.799" r="14.4" fill="#009af9" fill-rule="evenodd" fill-opacity="1" stroke="none"/>
<circle clip-path="url(#clip272)" cx="1967.02" cy="799.173" r="14.4" fill="#009af9" fill-rule="evenodd" fill-opacity="1" stroke="none"/>
<circle clip-path="url(#clip272)" cx="1610.16" cy="303.49" r="14.4" fill="#009af9" fill-rule="evenodd" fill-opacity="1" stroke="none"/>
<circle clip-path="url(#clip272)" cx="993.757" cy="325.042" r="14.4" fill="#009af9" fill-rule="evenodd" fill-opacity="1" stroke="none"/>
<circle clip-path="url(#clip272)" cx="2194.11" cy="863.827" r="14.4" fill="#009af9" fill-rule="evenodd" fill-opacity="1" stroke="none"/>
<circle clip-path="url(#clip272)" cx="1058.64" cy="540.556" r="14.4" fill="#009af9" fill-rule="evenodd" fill-opacity="1" stroke="none"/>
<circle clip-path="url(#clip272)" cx="1739.93" cy="734.519" r="14.4" fill="#009af9" fill-rule="evenodd" fill-opacity="1" stroke="none"/>
<circle clip-path="url(#clip272)" cx="2161.67" cy="1445.72" r="14.4" fill="#009af9" fill-rule="evenodd" fill-opacity="1" stroke="none"/>
<circle clip-path="url(#clip272)" cx="247.59" cy="1294.86" r="14.4" fill="#009af9" fill-rule="evenodd" fill-opacity="1" stroke="none"/>
<circle clip-path="url(#clip272)" cx="2226.56" cy="281.939" r="14.4" fill="#009af9" fill-rule="evenodd" fill-opacity="1" stroke="none"/>
<circle clip-path="url(#clip272)" cx="1869.69" cy="1165.55" r="14.4" fill="#009af9" fill-rule="evenodd" fill-opacity="1" stroke="none"/>
<circle clip-path="url(#clip272)" cx="1253.29" cy="1187.1" r="14.4" fill="#009af9" fill-rule="evenodd" fill-opacity="1" stroke="none"/>
<circle clip-path="url(#clip272)" cx="377.358" cy="346.593" r="14.4" fill="#009af9" fill-rule="evenodd" fill-opacity="1" stroke="none"/>
<circle clip-path="url(#clip272)" cx="1318.18" cy="1402.61" r="14.4" fill="#009af9" fill-rule="evenodd" fill-opacity="1" stroke="none"/>
<circle clip-path="url(#clip272)" cx="1999.46" cy="217.285" r="14.4" fill="#009af9" fill-rule="evenodd" fill-opacity="1" stroke="none"/>
<circle clip-path="url(#clip272)" cx="344.916" cy="928.482" r="14.4" fill="#009af9" fill-rule="evenodd" fill-opacity="1" stroke="none"/>
<circle clip-path="url(#clip272)" cx="507.126" cy="777.622" r="14.4" fill="#009af9" fill-rule="evenodd" fill-opacity="1" stroke="none"/>
<circle clip-path="url(#clip272)" cx="409.8" cy="1144" r="14.4" fill="#009af9" fill-rule="evenodd" fill-opacity="1" stroke="none"/>
<circle clip-path="url(#clip272)" cx="2129.23" cy="648.313" r="14.4" fill="#009af9" fill-rule="evenodd" fill-opacity="1" stroke="none"/>
<circle clip-path="url(#clip272)" cx="1512.83" cy="669.865" r="14.4" fill="#009af9" fill-rule="evenodd" fill-opacity="1" stroke="none"/>
<circle clip-path="url(#clip272)" cx="636.894" cy="1208.65" r="14.4" fill="#009af9" fill-rule="evenodd" fill-opacity="1" stroke="none"/>
<circle clip-path="url(#clip272)" cx="1577.71" cy="885.379" r="14.4" fill="#009af9" fill-rule="evenodd" fill-opacity="1" stroke="none"/>
<circle clip-path="url(#clip272)" cx="2259" cy="1079.34" r="14.4" fill="#009af9" fill-rule="evenodd" fill-opacity="1" stroke="none"/>
<circle clip-path="url(#clip272)" cx="604.452" cy="411.248" r="14.4" fill="#009af9" fill-rule="evenodd" fill-opacity="1" stroke="none"/>
<circle clip-path="url(#clip272)" cx="766.663" cy="260.388" r="14.4" fill="#009af9" fill-rule="evenodd" fill-opacity="1" stroke="none"/>
<circle clip-path="url(#clip272)" cx="669.337" cy="626.762" r="14.4" fill="#009af9" fill-rule="evenodd" fill-opacity="1" stroke="none"/>
<circle clip-path="url(#clip272)" cx="312.474" cy="131.079" r="14.4" fill="#009af9" fill-rule="evenodd" fill-opacity="1" stroke="none"/>
<circle clip-path="url(#clip272)" cx="1772.37" cy="152.631" r="14.4" fill="#009af9" fill-rule="evenodd" fill-opacity="1" stroke="none"/>
<circle clip-path="url(#clip272)" cx="896.431" cy="691.416" r="14.4" fill="#009af9" fill-rule="evenodd" fill-opacity="1" stroke="none"/>
<circle clip-path="url(#clip272)" cx="1837.25" cy="368.145" r="14.4" fill="#009af9" fill-rule="evenodd" fill-opacity="1" stroke="none"/>
<circle clip-path="url(#clip272)" cx="442.242" cy="562.108" r="14.4" fill="#009af9" fill-rule="evenodd" fill-opacity="1" stroke="none"/>
<circle clip-path="url(#clip272)" cx="863.989" cy="1273.3" r="14.4" fill="#009af9" fill-rule="evenodd" fill-opacity="1" stroke="none"/>
<circle clip-path="url(#clip272)" cx="1026.2" cy="1122.44" r="14.4" fill="#009af9" fill-rule="evenodd" fill-opacity="1" stroke="none"/>
</svg>
