<?xml version="1.0" encoding="utf-8"?>
<svg xmlns="http://www.w3.org/2000/svg" xmlns:xlink="http://www.w3.org/1999/xlink" width="600" height="400" viewBox="0 0 2400 1600">
<defs>
  <clipPath id="clip510">
    <rect x="0" y="0" width="2400" height="1600"/>
  </clipPath>
</defs>
<path clip-path="url(#clip510)" d="M0 1600 L2400 1600 L2400 8.88178e-14 L0 8.88178e-14  Z" fill="#ffffff" fill-rule="evenodd" fill-opacity="1"/>
<defs>
  <clipPath id="clip511">
    <rect x="480" y="0" width="1681" height="1600"/>
  </clipPath>
</defs>
<path clip-path="url(#clip510)" d="M186.274 1486.45 L2352.76 1486.45 L2352.76 47.2441 L186.274 47.2441  Z" fill="#eaeaea" fill-rule="evenodd" fill-opacity="1"/>
<defs>
  <clipPath id="clip512">
    <rect x="186" y="47" width="2167" height="1440"/>
  </clipPath>
</defs>
<polyline clip-path="url(#clip512)" style="stroke:#ffffff; stroke-linecap:round; stroke-linejoin:round; stroke-width:4; stroke-opacity:1; fill:none" points="612.442,1486.45 612.442,47.2441 "/>
<polyline clip-path="url(#clip512)" style="stroke:#ffffff; stroke-linecap:round; stroke-linejoin:round; stroke-width:4; stroke-opacity:1; fill:none" points="1044.86,1486.45 1044.86,47.2441 "/>
<polyline clip-path="url(#clip512)" style="stroke:#ffffff; stroke-linecap:round; stroke-linejoin:round; stroke-width:4; stroke-opacity:1; fill:none" points="1477.28,1486.45 1477.28,47.2441 "/>
<polyline clip-path="url(#clip512)" style="stroke:#ffffff; stroke-linecap:round; stroke-linejoin:round; stroke-width:4; stroke-opacity:1; fill:none" points="1909.7,1486.45 1909.7,47.2441 "/>
<polyline clip-path="url(#clip512)" style="stroke:#ffffff; stroke-linecap:round; stroke-linejoin:round; stroke-width:4; stroke-opacity:1; fill:none" points="2342.11,1486.45 2342.11,47.2441 "/>
<polyline clip-path="url(#clip512)" style="stroke:#ffffff; stroke-linecap:round; stroke-linejoin:round; stroke-width:2; stroke-opacity:1; fill:none" points="396.233,1486.45 396.233,47.2441 "/>
<polyline clip-path="url(#clip512)" style="stroke:#ffffff; stroke-linecap:round; stroke-linejoin:round; stroke-width:2; stroke-opacity:1; fill:none" points="828.651,1486.45 828.651,47.2441 "/>
<polyline clip-path="url(#clip512)" style="stroke:#ffffff; stroke-linecap:round; stroke-linejoin:round; stroke-width:2; stroke-opacity:1; fill:none" points="1261.07,1486.45 1261.07,47.2441 "/>
<polyline clip-path="url(#clip512)" style="stroke:#ffffff; stroke-linecap:round; stroke-linejoin:round; stroke-width:2; stroke-opacity:1; fill:none" points="1693.49,1486.45 1693.49,47.2441 "/>
<polyline clip-path="url(#clip512)" style="stroke:#ffffff; stroke-linecap:round; stroke-linejoin:round; stroke-width:2; stroke-opacity:1; fill:none" points="2125.91,1486.45 2125.91,47.2441 "/>
<polyline clip-path="url(#clip510)" style="stroke:#ffffff; stroke-linecap:round; stroke-linejoin:round; stroke-width:4; stroke-opacity:1; fill:none" points="186.274,1486.45 2352.76,1486.45 "/>
<polyline clip-path="url(#clip510)" style="stroke:#333333; stroke-linecap:round; stroke-linejoin:round; stroke-width:4; stroke-opacity:1; fill:none" points="612.442,1486.45 612.442,1505.35 "/>
<polyline clip-path="url(#clip510)" style="stroke:#333333; stroke-linecap:round; stroke-linejoin:round; stroke-width:4; stroke-opacity:1; fill:none" points="1044.86,1486.45 1044.86,1505.35 "/>
<polyline clip-path="url(#clip510)" style="stroke:#333333; stroke-linecap:round; stroke-linejoin:round; stroke-width:4; stroke-opacity:1; fill:none" points="1477.28,1486.45 1477.28,1505.35 "/>
<polyline clip-path="url(#clip510)" style="stroke:#333333; stroke-linecap:round; stroke-linejoin:round; stroke-width:4; stroke-opacity:1; fill:none" points="1909.7,1486.45 1909.7,1505.35 "/>
<polyline clip-path="url(#clip510)" style="stroke:#333333; stroke-linecap:round; stroke-linejoin:round; stroke-width:4; stroke-opacity:1; fill:none" points="2342.11,1486.45 2342.11,1505.35 "/>
<polyline clip-path="url(#clip510)" style="stroke:#333333; stroke-linecap:round; stroke-linejoin:round; stroke-width:4; stroke-opacity:1; fill:none" points="396.233,1486.45 396.233,1495.9 "/>
<polyline clip-path="url(#clip510)" style="stroke:#333333; stroke-linecap:round; stroke-linejoin:round; stroke-width:4; stroke-opacity:1; fill:none" points="828.651,1486.45 828.651,1495.9 "/>
<polyline clip-path="url(#clip510)" style="stroke:#333333; stroke-linecap:round; stroke-linejoin:round; stroke-width:4; stroke-opacity:1; fill:none" points="1261.07,1486.45 1261.07,1495.9 "/>
<polyline clip-path="url(#clip510)" style="stroke:#333333; stroke-linecap:round; stroke-linejoin:round; stroke-width:4; stroke-opacity:1; fill:none" points="1693.49,1486.45 1693.49,1495.9 "/>
<polyline clip-path="url(#clip510)" style="stroke:#333333; stroke-linecap:round; stroke-linejoin:round; stroke-width:4; stroke-opacity:1; fill:none" points="2125.91,1486.45 2125.91,1495.9 "/>
<path clip-path="url(#clip510)" d="M590.625 1526.97 Q587.014 1526.97 585.185 1530.53 Q583.38 1534.07 583.38 1541.2 Q583.38 1548.31 585.185 1551.87 Q587.014 1555.42 590.625 1555.42 Q594.259 1555.42 596.065 1551.87 Q597.894 1548.31 597.894 1541.2 Q597.894 1534.07 596.065 1530.53 Q594.259 1526.97 590.625 1526.97 M590.625 1523.26 Q596.435 1523.26 599.491 1527.87 Q602.57 1532.45 602.57 1541.2 Q602.57 1549.93 599.491 1554.54 Q596.435 1559.12 590.625 1559.12 Q584.815 1559.12 581.736 1554.54 Q578.681 1549.93 578.681 1541.2 Q578.681 1532.45 581.736 1527.87 Q584.815 1523.26 590.625 1523.26 Z" fill="#4c4c4c" fill-rule="nonzero" fill-opacity="1" /><path clip-path="url(#clip510)" d="M610.787 1552.57 L615.671 1552.57 L615.671 1558.45 L610.787 1558.45 L610.787 1552.57 Z" fill="#4c4c4c" fill-rule="nonzero" fill-opacity="1" /><path clip-path="url(#clip510)" d="M629.884 1554.51 L646.204 1554.51 L646.204 1558.45 L624.259 1558.45 L624.259 1554.51 Q626.921 1551.76 631.505 1547.13 Q636.111 1542.48 637.292 1541.13 Q639.537 1538.61 640.417 1536.87 Q641.319 1535.11 641.319 1533.42 Q641.319 1530.67 639.375 1528.93 Q637.454 1527.2 634.352 1527.2 Q632.153 1527.2 629.699 1527.96 Q627.269 1528.73 624.491 1530.28 L624.491 1525.55 Q627.315 1524.42 629.769 1523.84 Q632.222 1523.26 634.259 1523.26 Q639.63 1523.26 642.824 1525.95 Q646.018 1528.63 646.018 1533.12 Q646.018 1535.25 645.208 1537.17 Q644.421 1539.07 642.315 1541.67 Q641.736 1542.34 638.634 1545.55 Q635.532 1548.75 629.884 1554.51 Z" fill="#4c4c4c" fill-rule="nonzero" fill-opacity="1" /><path clip-path="url(#clip510)" d="M1022 1526.97 Q1018.39 1526.97 1016.56 1530.53 Q1014.76 1534.07 1014.76 1541.2 Q1014.76 1548.31 1016.56 1551.87 Q1018.39 1555.42 1022 1555.42 Q1025.64 1555.42 1027.44 1551.87 Q1029.27 1548.31 1029.27 1541.2 Q1029.27 1534.07 1027.44 1530.53 Q1025.64 1526.97 1022 1526.97 M1022 1523.26 Q1027.81 1523.26 1030.87 1527.87 Q1033.95 1532.45 1033.95 1541.2 Q1033.95 1549.93 1030.87 1554.54 Q1027.81 1559.12 1022 1559.12 Q1016.19 1559.12 1013.11 1554.54 Q1010.06 1549.93 1010.06 1541.2 Q1010.06 1532.45 1013.11 1527.87 Q1016.19 1523.26 1022 1523.26 Z" fill="#4c4c4c" fill-rule="nonzero" fill-opacity="1" /><path clip-path="url(#clip510)" d="M1042.16 1552.57 L1047.05 1552.57 L1047.05 1558.45 L1042.16 1558.45 L1042.16 1552.57 Z" fill="#4c4c4c" fill-rule="nonzero" fill-opacity="1" /><path clip-path="url(#clip510)" d="M1070.08 1527.96 L1058.27 1546.41 L1070.08 1546.41 L1070.08 1527.96 M1068.85 1523.89 L1074.73 1523.89 L1074.73 1546.41 L1079.66 1546.41 L1079.66 1550.3 L1074.73 1550.3 L1074.73 1558.45 L1070.08 1558.45 L1070.08 1550.3 L1054.48 1550.3 L1054.48 1545.79 L1068.85 1523.89 Z" fill="#4c4c4c" fill-rule="nonzero" fill-opacity="1" /><path clip-path="url(#clip510)" d="M1454.58 1526.97 Q1450.97 1526.97 1449.14 1530.53 Q1447.34 1534.07 1447.34 1541.2 Q1447.34 1548.31 1449.14 1551.87 Q1450.97 1555.42 1454.58 1555.42 Q1458.22 1555.42 1460.02 1551.87 Q1461.85 1548.31 1461.85 1541.2 Q1461.85 1534.07 1460.02 1530.53 Q1458.22 1526.97 1454.58 1526.97 M1454.58 1523.26 Q1460.39 1523.26 1463.45 1527.87 Q1466.53 1532.45 1466.53 1541.2 Q1466.53 1549.93 1463.45 1554.54 Q1460.39 1559.12 1454.58 1559.12 Q1448.77 1559.12 1445.69 1554.54 Q1442.64 1549.93 1442.64 1541.2 Q1442.64 1532.45 1445.69 1527.87 Q1448.77 1523.26 1454.58 1523.26 Z" fill="#4c4c4c" fill-rule="nonzero" fill-opacity="1" /><path clip-path="url(#clip510)" d="M1474.74 1552.57 L1479.63 1552.57 L1479.63 1558.45 L1474.74 1558.45 L1474.74 1552.57 Z" fill="#4c4c4c" fill-rule="nonzero" fill-opacity="1" /><path clip-path="url(#clip510)" d="M1500.39 1539.3 Q1497.24 1539.3 1495.39 1541.46 Q1493.56 1543.61 1493.56 1547.36 Q1493.56 1551.09 1495.39 1553.26 Q1497.24 1555.42 1500.39 1555.42 Q1503.54 1555.42 1505.37 1553.26 Q1507.22 1551.09 1507.22 1547.36 Q1507.22 1543.61 1505.37 1541.46 Q1503.54 1539.3 1500.39 1539.3 M1509.67 1524.65 L1509.67 1528.91 Q1507.91 1528.08 1506.11 1527.64 Q1504.33 1527.2 1502.57 1527.2 Q1497.94 1527.2 1495.48 1530.32 Q1493.05 1533.45 1492.71 1539.77 Q1494.07 1537.75 1496.13 1536.69 Q1498.19 1535.6 1500.67 1535.6 Q1505.88 1535.6 1508.89 1538.77 Q1511.92 1541.92 1511.92 1547.36 Q1511.92 1552.68 1508.77 1555.9 Q1505.62 1559.12 1500.39 1559.12 Q1494.4 1559.12 1491.22 1554.54 Q1488.05 1549.93 1488.05 1541.2 Q1488.05 1533.01 1491.94 1528.15 Q1495.83 1523.26 1502.38 1523.26 Q1504.14 1523.26 1505.92 1523.61 Q1507.73 1523.96 1509.67 1524.65 Z" fill="#4c4c4c" fill-rule="nonzero" fill-opacity="1" /><path clip-path="url(#clip510)" d="M1887.13 1526.97 Q1883.52 1526.97 1881.69 1530.53 Q1879.88 1534.07 1879.88 1541.2 Q1879.88 1548.31 1881.69 1551.87 Q1883.52 1555.42 1887.13 1555.42 Q1890.76 1555.42 1892.57 1551.87 Q1894.4 1548.31 1894.4 1541.2 Q1894.4 1534.07 1892.57 1530.53 Q1890.76 1526.97 1887.13 1526.97 M1887.13 1523.26 Q1892.94 1523.26 1895.99 1527.87 Q1899.07 1532.45 1899.07 1541.2 Q1899.07 1549.93 1895.99 1554.54 Q1892.94 1559.12 1887.13 1559.12 Q1881.32 1559.12 1878.24 1554.54 Q1875.18 1549.93 1875.18 1541.2 Q1875.18 1532.45 1878.24 1527.87 Q1881.32 1523.26 1887.13 1523.26 Z" fill="#4c4c4c" fill-rule="nonzero" fill-opacity="1" /><path clip-path="url(#clip510)" d="M1907.29 1552.57 L1912.17 1552.57 L1912.17 1558.45 L1907.29 1558.45 L1907.29 1552.57 Z" fill="#4c4c4c" fill-rule="nonzero" fill-opacity="1" /><path clip-path="url(#clip510)" d="M1932.36 1542.04 Q1929.02 1542.04 1927.1 1543.82 Q1925.21 1545.6 1925.21 1548.73 Q1925.21 1551.85 1927.1 1553.63 Q1929.02 1555.42 1932.36 1555.42 Q1935.69 1555.42 1937.61 1553.63 Q1939.53 1551.83 1939.53 1548.73 Q1939.53 1545.6 1937.61 1543.82 Q1935.71 1542.04 1932.36 1542.04 M1927.68 1540.05 Q1924.67 1539.3 1922.98 1537.24 Q1921.32 1535.18 1921.32 1532.22 Q1921.32 1528.08 1924.26 1525.67 Q1927.22 1523.26 1932.36 1523.26 Q1937.52 1523.26 1940.46 1525.67 Q1943.4 1528.08 1943.4 1532.22 Q1943.4 1535.18 1941.71 1537.24 Q1940.04 1539.3 1937.06 1540.05 Q1940.44 1540.83 1942.31 1543.12 Q1944.21 1545.42 1944.21 1548.73 Q1944.21 1553.75 1941.13 1556.43 Q1938.08 1559.12 1932.36 1559.12 Q1926.64 1559.12 1923.56 1556.43 Q1920.51 1553.75 1920.51 1548.73 Q1920.51 1545.42 1922.4 1543.12 Q1924.3 1540.83 1927.68 1540.05 M1925.97 1532.66 Q1925.97 1535.35 1927.64 1536.85 Q1929.33 1538.36 1932.36 1538.36 Q1935.37 1538.36 1937.06 1536.85 Q1938.77 1535.35 1938.77 1532.66 Q1938.77 1529.98 1937.06 1528.47 Q1935.37 1526.97 1932.36 1526.97 Q1929.33 1526.97 1927.64 1528.47 Q1925.97 1529.98 1925.97 1532.66 Z" fill="#4c4c4c" fill-rule="nonzero" fill-opacity="1" /><path clip-path="url(#clip510)" d="M2309.27 1554.51 L2316.91 1554.51 L2316.91 1528.15 L2308.6 1529.81 L2308.6 1525.55 L2316.86 1523.89 L2321.54 1523.89 L2321.54 1554.51 L2329.17 1554.51 L2329.17 1558.45 L2309.27 1558.45 L2309.27 1554.51 Z" fill="#4c4c4c" fill-rule="nonzero" fill-opacity="1" /><path clip-path="url(#clip510)" d="M2338.62 1552.57 L2343.5 1552.57 L2343.5 1558.45 L2338.62 1558.45 L2338.62 1552.57 Z" fill="#4c4c4c" fill-rule="nonzero" fill-opacity="1" /><path clip-path="url(#clip510)" d="M2363.69 1526.97 Q2360.08 1526.97 2358.25 1530.53 Q2356.44 1534.07 2356.44 1541.2 Q2356.44 1548.31 2358.25 1551.87 Q2360.08 1555.42 2363.69 1555.42 Q2367.32 1555.42 2369.13 1551.87 Q2370.96 1548.31 2370.96 1541.2 Q2370.96 1534.07 2369.13 1530.53 Q2367.32 1526.97 2363.69 1526.97 M2363.69 1523.26 Q2369.5 1523.26 2372.55 1527.87 Q2375.63 1532.45 2375.63 1541.2 Q2375.63 1549.93 2372.55 1554.54 Q2369.5 1559.12 2363.69 1559.12 Q2357.88 1559.12 2354.8 1554.54 Q2351.74 1549.93 2351.74 1541.2 Q2351.74 1532.45 2354.8 1527.87 Q2357.88 1523.26 2363.69 1523.26 Z" fill="#4c4c4c" fill-rule="nonzero" fill-opacity="1" /><polyline clip-path="url(#clip512)" style="stroke:#ffffff; stroke-linecap:round; stroke-linejoin:round; stroke-width:4; stroke-opacity:1; fill:none" points="186.274,1461.88 2352.76,1461.88 "/>
<polyline clip-path="url(#clip512)" style="stroke:#ffffff; stroke-linecap:round; stroke-linejoin:round; stroke-width:4; stroke-opacity:1; fill:none" points="186.274,1117.06 2352.76,1117.06 "/>
<polyline clip-path="url(#clip512)" style="stroke:#ffffff; stroke-linecap:round; stroke-linejoin:round; stroke-width:4; stroke-opacity:1; fill:none" points="186.274,772.234 2352.76,772.234 "/>
<polyline clip-path="url(#clip512)" style="stroke:#ffffff; stroke-linecap:round; stroke-linejoin:round; stroke-width:4; stroke-opacity:1; fill:none" points="186.274,427.411 2352.76,427.411 "/>
<polyline clip-path="url(#clip512)" style="stroke:#ffffff; stroke-linecap:round; stroke-linejoin:round; stroke-width:4; stroke-opacity:1; fill:none" points="186.274,82.5884 2352.76,82.5884 "/>
<polyline clip-path="url(#clip512)" style="stroke:#ffffff; stroke-linecap:round; stroke-linejoin:round; stroke-width:2; stroke-opacity:1; fill:none" points="186.274,1289.47 2352.76,1289.47 "/>
<polyline clip-path="url(#clip512)" style="stroke:#ffffff; stroke-linecap:round; stroke-linejoin:round; stroke-width:2; stroke-opacity:1; fill:none" points="186.274,944.645 2352.76,944.645 "/>
<polyline clip-path="url(#clip512)" style="stroke:#ffffff; stroke-linecap:round; stroke-linejoin:round; stroke-width:2; stroke-opacity:1; fill:none" points="186.274,599.822 2352.76,599.822 "/>
<polyline clip-path="url(#clip512)" style="stroke:#ffffff; stroke-linecap:round; stroke-linejoin:round; stroke-width:2; stroke-opacity:1; fill:none" points="186.274,255 2352.76,255 "/>
<polyline clip-path="url(#clip510)" style="stroke:#ffffff; stroke-linecap:round; stroke-linejoin:round; stroke-width:4; stroke-opacity:1; fill:none" points="186.274,1486.45 186.274,47.2441 "/>
<polyline clip-path="url(#clip510)" style="stroke:#333333; stroke-linecap:round; stroke-linejoin:round; stroke-width:4; stroke-opacity:1; fill:none" points="186.274,1461.88 167.376,1461.88 "/>
<polyline clip-path="url(#clip510)" style="stroke:#333333; stroke-linecap:round; stroke-linejoin:round; stroke-width:4; stroke-opacity:1; fill:none" points="186.274,1117.06 167.376,1117.06 "/>
<polyline clip-path="url(#clip510)" style="stroke:#333333; stroke-linecap:round; stroke-linejoin:round; stroke-width:4; stroke-opacity:1; fill:none" points="186.274,772.234 167.376,772.234 "/>
<polyline clip-path="url(#clip510)" style="stroke:#333333; stroke-linecap:round; stroke-linejoin:round; stroke-width:4; stroke-opacity:1; fill:none" points="186.274,427.411 167.376,427.411 "/>
<polyline clip-path="url(#clip510)" style="stroke:#333333; stroke-linecap:round; stroke-linejoin:round; stroke-width:4; stroke-opacity:1; fill:none" points="186.274,82.5884 167.376,82.5884 "/>
<polyline clip-path="url(#clip510)" style="stroke:#333333; stroke-linecap:round; stroke-linejoin:round; stroke-width:4; stroke-opacity:1; fill:none" points="186.274,1289.47 176.825,1289.47 "/>
<polyline clip-path="url(#clip510)" style="stroke:#333333; stroke-linecap:round; stroke-linejoin:round; stroke-width:4; stroke-opacity:1; fill:none" points="186.274,944.645 176.825,944.645 "/>
<polyline clip-path="url(#clip510)" style="stroke:#333333; stroke-linecap:round; stroke-linejoin:round; stroke-width:4; stroke-opacity:1; fill:none" points="186.274,599.822 176.825,599.822 "/>
<polyline clip-path="url(#clip510)" style="stroke:#333333; stroke-linecap:round; stroke-linejoin:round; stroke-width:4; stroke-opacity:1; fill:none" points="186.274,255 176.825,255 "/>
<path clip-path="url(#clip510)" d="M44.9365 1447.68 Q41.3254 1447.68 39.4967 1451.24 Q37.6912 1454.78 37.6912 1461.91 Q37.6912 1469.02 39.4967 1472.59 Q41.3254 1476.13 44.9365 1476.13 Q48.5707 1476.13 50.3763 1472.59 Q52.205 1469.02 52.205 1461.91 Q52.205 1454.78 50.3763 1451.24 Q48.5707 1447.68 44.9365 1447.68 M44.9365 1443.97 Q50.7467 1443.97 53.8022 1448.58 Q56.8809 1453.16 56.8809 1461.91 Q56.8809 1470.64 53.8022 1475.25 Q50.7467 1479.83 44.9365 1479.83 Q39.1264 1479.83 36.0477 1475.25 Q32.9921 1470.64 32.9921 1461.91 Q32.9921 1453.16 36.0477 1448.58 Q39.1264 1443.97 44.9365 1443.97 Z" fill="#4c4c4c" fill-rule="nonzero" fill-opacity="1" /><path clip-path="url(#clip510)" d="M65.0984 1473.28 L69.9827 1473.28 L69.9827 1479.16 L65.0984 1479.16 L65.0984 1473.28 Z" fill="#4c4c4c" fill-rule="nonzero" fill-opacity="1" /><path clip-path="url(#clip510)" d="M90.1677 1447.68 Q86.5567 1447.68 84.728 1451.24 Q82.9224 1454.78 82.9224 1461.91 Q82.9224 1469.02 84.728 1472.59 Q86.5567 1476.13 90.1677 1476.13 Q93.802 1476.13 95.6075 1472.59 Q97.4362 1469.02 97.4362 1461.91 Q97.4362 1454.78 95.6075 1451.24 Q93.802 1447.68 90.1677 1447.68 M90.1677 1443.97 Q95.9779 1443.97 99.0334 1448.58 Q102.112 1453.16 102.112 1461.91 Q102.112 1470.64 99.0334 1475.25 Q95.9779 1479.83 90.1677 1479.83 Q84.3576 1479.83 81.2789 1475.25 Q78.2234 1470.64 78.2234 1461.91 Q78.2234 1453.16 81.2789 1448.58 Q84.3576 1443.97 90.1677 1443.97 Z" fill="#4c4c4c" fill-rule="nonzero" fill-opacity="1" /><path clip-path="url(#clip510)" d="M120.33 1447.68 Q116.719 1447.68 114.89 1451.24 Q113.084 1454.78 113.084 1461.91 Q113.084 1469.02 114.89 1472.59 Q116.719 1476.13 120.33 1476.13 Q123.964 1476.13 125.769 1472.59 Q127.598 1469.02 127.598 1461.91 Q127.598 1454.78 125.769 1451.24 Q123.964 1447.68 120.33 1447.68 M120.33 1443.97 Q126.14 1443.97 129.195 1448.58 Q132.274 1453.16 132.274 1461.91 Q132.274 1470.64 129.195 1475.25 Q126.14 1479.83 120.33 1479.83 Q114.519 1479.83 111.441 1475.25 Q108.385 1470.64 108.385 1461.91 Q108.385 1453.16 111.441 1448.58 Q114.519 1443.97 120.33 1443.97 Z" fill="#4c4c4c" fill-rule="nonzero" fill-opacity="1" /><path clip-path="url(#clip510)" d="M45.9319 1102.86 Q42.3208 1102.86 40.4921 1106.42 Q38.6865 1109.96 38.6865 1117.09 Q38.6865 1124.2 40.4921 1127.76 Q42.3208 1131.3 45.9319 1131.3 Q49.5661 1131.3 51.3717 1127.76 Q53.2004 1124.2 53.2004 1117.09 Q53.2004 1109.96 51.3717 1106.42 Q49.5661 1102.86 45.9319 1102.86 M45.9319 1099.15 Q51.742 1099.15 54.7976 1103.76 Q57.8763 1108.34 57.8763 1117.09 Q57.8763 1125.82 54.7976 1130.42 Q51.742 1135.01 45.9319 1135.01 Q40.1217 1135.01 37.043 1130.42 Q33.9875 1125.82 33.9875 1117.09 Q33.9875 1108.34 37.043 1103.76 Q40.1217 1099.15 45.9319 1099.15 Z" fill="#4c4c4c" fill-rule="nonzero" fill-opacity="1" /><path clip-path="url(#clip510)" d="M66.0938 1128.46 L70.978 1128.46 L70.978 1134.34 L66.0938 1134.34 L66.0938 1128.46 Z" fill="#4c4c4c" fill-rule="nonzero" fill-opacity="1" /><path clip-path="url(#clip510)" d="M85.1909 1130.4 L101.51 1130.4 L101.51 1134.34 L79.566 1134.34 L79.566 1130.4 Q82.228 1127.65 86.8113 1123.02 Q91.4177 1118.36 92.5983 1117.02 Q94.8436 1114.5 95.7233 1112.76 Q96.626 1111 96.626 1109.31 Q96.626 1106.56 94.6816 1104.82 Q92.7603 1103.09 89.6585 1103.09 Q87.4594 1103.09 85.0057 1103.85 Q82.5752 1104.61 79.7974 1106.17 L79.7974 1101.44 Q82.6215 1100.31 85.0752 1099.73 Q87.5289 1099.15 89.5659 1099.15 Q94.9362 1099.15 98.1307 1101.84 Q101.325 1104.52 101.325 1109.01 Q101.325 1111.14 100.515 1113.06 Q99.7279 1114.96 97.6214 1117.55 Q97.0427 1118.23 93.9409 1121.44 Q90.839 1124.64 85.1909 1130.4 Z" fill="#4c4c4c" fill-rule="nonzero" fill-opacity="1" /><path clip-path="url(#clip510)" d="M111.371 1099.78 L129.728 1099.78 L129.728 1103.71 L115.654 1103.71 L115.654 1112.18 Q116.672 1111.84 117.691 1111.67 Q118.709 1111.49 119.728 1111.49 Q125.515 1111.49 128.894 1114.66 Q132.274 1117.83 132.274 1123.25 Q132.274 1128.83 128.802 1131.93 Q125.33 1135.01 119.01 1135.01 Q116.834 1135.01 114.566 1134.64 Q112.32 1134.27 109.913 1133.53 L109.913 1128.83 Q111.996 1129.96 114.219 1130.52 Q116.441 1131.07 118.918 1131.07 Q122.922 1131.07 125.26 1128.97 Q127.598 1126.86 127.598 1123.25 Q127.598 1119.64 125.26 1117.53 Q122.922 1115.42 118.918 1115.42 Q117.043 1115.42 115.168 1115.84 Q113.316 1116.26 111.371 1117.14 L111.371 1099.78 Z" fill="#4c4c4c" fill-rule="nonzero" fill-opacity="1" /><path clip-path="url(#clip510)" d="M44.9365 758.033 Q41.3254 758.033 39.4967 761.597 Q37.6912 765.139 37.6912 772.269 Q37.6912 779.375 39.4967 782.94 Q41.3254 786.481 44.9365 786.481 Q48.5707 786.481 50.3763 782.94 Q52.205 779.375 52.205 772.269 Q52.205 765.139 50.3763 761.597 Q48.5707 758.033 44.9365 758.033 M44.9365 754.329 Q50.7467 754.329 53.8022 758.935 Q56.8809 763.519 56.8809 772.269 Q56.8809 780.995 53.8022 785.602 Q50.7467 790.185 44.9365 790.185 Q39.1264 790.185 36.0477 785.602 Q32.9921 780.995 32.9921 772.269 Q32.9921 763.519 36.0477 758.935 Q39.1264 754.329 44.9365 754.329 Z" fill="#4c4c4c" fill-rule="nonzero" fill-opacity="1" /><path clip-path="url(#clip510)" d="M65.0984 783.634 L69.9827 783.634 L69.9827 789.514 L65.0984 789.514 L65.0984 783.634 Z" fill="#4c4c4c" fill-rule="nonzero" fill-opacity="1" /><path clip-path="url(#clip510)" d="M80.2141 754.954 L98.5705 754.954 L98.5705 758.889 L84.4965 758.889 L84.4965 767.361 Q85.515 767.014 86.5335 766.852 Q87.552 766.667 88.5705 766.667 Q94.3575 766.667 97.7371 769.838 Q101.117 773.009 101.117 778.426 Q101.117 784.005 97.6446 787.106 Q94.1724 790.185 87.8529 790.185 Q85.677 790.185 83.4085 789.815 Q81.1632 789.444 78.7558 788.704 L78.7558 784.005 Q80.8391 785.139 83.0613 785.694 Q85.2835 786.25 87.7604 786.25 Q91.765 786.25 94.1029 784.143 Q96.4409 782.037 96.4409 778.426 Q96.4409 774.815 94.1029 772.708 Q91.765 770.602 87.7604 770.602 Q85.8854 770.602 84.0104 771.019 Q82.1585 771.435 80.2141 772.315 L80.2141 754.954 Z" fill="#4c4c4c" fill-rule="nonzero" fill-opacity="1" /><path clip-path="url(#clip510)" d="M120.33 758.033 Q116.719 758.033 114.89 761.597 Q113.084 765.139 113.084 772.269 Q113.084 779.375 114.89 782.94 Q116.719 786.481 120.33 786.481 Q123.964 786.481 125.769 782.94 Q127.598 779.375 127.598 772.269 Q127.598 765.139 125.769 761.597 Q123.964 758.033 120.33 758.033 M120.33 754.329 Q126.14 754.329 129.195 758.935 Q132.274 763.519 132.274 772.269 Q132.274 780.995 129.195 785.602 Q126.14 790.185 120.33 790.185 Q114.519 790.185 111.441 785.602 Q108.385 780.995 108.385 772.269 Q108.385 763.519 111.441 758.935 Q114.519 754.329 120.33 754.329 Z" fill="#4c4c4c" fill-rule="nonzero" fill-opacity="1" /><path clip-path="url(#clip510)" d="M45.9319 413.21 Q42.3208 413.21 40.4921 416.775 Q38.6865 420.316 38.6865 427.446 Q38.6865 434.552 40.4921 438.117 Q42.3208 441.659 45.9319 441.659 Q49.5661 441.659 51.3717 438.117 Q53.2004 434.552 53.2004 427.446 Q53.2004 420.316 51.3717 416.775 Q49.5661 413.21 45.9319 413.21 M45.9319 409.506 Q51.742 409.506 54.7976 414.113 Q57.8763 418.696 57.8763 427.446 Q57.8763 436.173 54.7976 440.779 Q51.742 445.362 45.9319 445.362 Q40.1217 445.362 37.043 440.779 Q33.9875 436.173 33.9875 427.446 Q33.9875 418.696 37.043 414.113 Q40.1217 409.506 45.9319 409.506 Z" fill="#4c4c4c" fill-rule="nonzero" fill-opacity="1" /><path clip-path="url(#clip510)" d="M66.0938 438.812 L70.978 438.812 L70.978 444.691 L66.0938 444.691 L66.0938 438.812 Z" fill="#4c4c4c" fill-rule="nonzero" fill-opacity="1" /><path clip-path="url(#clip510)" d="M79.9826 410.131 L102.205 410.131 L102.205 412.122 L89.6585 444.691 L84.7743 444.691 L96.5797 414.066 L79.9826 414.066 L79.9826 410.131 Z" fill="#4c4c4c" fill-rule="nonzero" fill-opacity="1" /><path clip-path="url(#clip510)" d="M111.371 410.131 L129.728 410.131 L129.728 414.066 L115.654 414.066 L115.654 422.538 Q116.672 422.191 117.691 422.029 Q118.709 421.844 119.728 421.844 Q125.515 421.844 128.894 425.015 Q132.274 428.187 132.274 433.603 Q132.274 439.182 128.802 442.284 Q125.33 445.362 119.01 445.362 Q116.834 445.362 114.566 444.992 Q112.32 444.622 109.913 443.881 L109.913 439.182 Q111.996 440.316 114.219 440.872 Q116.441 441.427 118.918 441.427 Q122.922 441.427 125.26 439.321 Q127.598 437.214 127.598 433.603 Q127.598 429.992 125.26 427.886 Q122.922 425.779 118.918 425.779 Q117.043 425.779 115.168 426.196 Q113.316 426.613 111.371 427.492 L111.371 410.131 Z" fill="#4c4c4c" fill-rule="nonzero" fill-opacity="1" /><path clip-path="url(#clip510)" d="M35.7467 95.9333 L43.3856 95.9333 L43.3856 69.5677 L35.0754 71.2343 L35.0754 66.9751 L43.3393 65.3084 L48.0152 65.3084 L48.0152 95.9333 L55.654 95.9333 L55.654 99.8684 L35.7467 99.8684 L35.7467 95.9333 Z" fill="#4c4c4c" fill-rule="nonzero" fill-opacity="1" /><path clip-path="url(#clip510)" d="M65.0984 93.9888 L69.9827 93.9888 L69.9827 99.8684 L65.0984 99.8684 L65.0984 93.9888 Z" fill="#4c4c4c" fill-rule="nonzero" fill-opacity="1" /><path clip-path="url(#clip510)" d="M90.1677 68.3871 Q86.5567 68.3871 84.728 71.9519 Q82.9224 75.4936 82.9224 82.6231 Q82.9224 89.7296 84.728 93.2944 Q86.5567 96.836 90.1677 96.836 Q93.802 96.836 95.6075 93.2944 Q97.4362 89.7296 97.4362 82.6231 Q97.4362 75.4936 95.6075 71.9519 Q93.802 68.3871 90.1677 68.3871 M90.1677 64.6834 Q95.9779 64.6834 99.0334 69.2899 Q102.112 73.8732 102.112 82.6231 Q102.112 91.3499 99.0334 95.9564 Q95.9779 100.54 90.1677 100.54 Q84.3576 100.54 81.2789 95.9564 Q78.2234 91.3499 78.2234 82.6231 Q78.2234 73.8732 81.2789 69.2899 Q84.3576 64.6834 90.1677 64.6834 Z" fill="#4c4c4c" fill-rule="nonzero" fill-opacity="1" /><path clip-path="url(#clip510)" d="M120.33 68.3871 Q116.719 68.3871 114.89 71.9519 Q113.084 75.4936 113.084 82.6231 Q113.084 89.7296 114.89 93.2944 Q116.719 96.836 120.33 96.836 Q123.964 96.836 125.769 93.2944 Q127.598 89.7296 127.598 82.6231 Q127.598 75.4936 125.769 71.9519 Q123.964 68.3871 120.33 68.3871 M120.33 64.6834 Q126.14 64.6834 129.195 69.2899 Q132.274 73.8732 132.274 82.6231 Q132.274 91.3499 129.195 95.9564 Q126.14 100.54 120.33 100.54 Q114.519 100.54 111.441 95.9564 Q108.385 91.3499 108.385 82.6231 Q108.385 73.8732 111.441 69.2899 Q114.519 64.6834 120.33 64.6834 Z" fill="#4c4c4c" fill-rule="nonzero" fill-opacity="1" /><circle clip-path="url(#clip512)" cx="568.525" cy="1337.96" r="14.4" fill="#009af9" fill-rule="evenodd" fill-opacity="1" stroke="none"/>
<circle clip-path="url(#clip512)" cx="281.372" cy="1305.63" r="14.4" fill="#009af9" fill-rule="evenodd" fill-opacity="1" stroke="none"/>
<circle clip-path="url(#clip512)" cx="399.611" cy="669.865" r="14.4" fill="#009af9" fill-rule="evenodd" fill-opacity="1" stroke="none"/>
<circle clip-path="url(#clip512)" cx="2004.29" cy="120.303" r="14.4" fill="#009af9" fill-rule="evenodd" fill-opacity="1" stroke="none"/>
<circle clip-path="url(#clip512)" cx="1852.27" cy="346.593" r="14.4" fill="#009af9" fill-rule="evenodd" fill-opacity="1" stroke="none"/>
<circle clip-path="url(#clip512)" cx="1024.59" cy="659.089" r="14.4" fill="#009af9" fill-rule="evenodd" fill-opacity="1" stroke="none"/>
<circle clip-path="url(#clip512)" cx="602.307" cy="368.145" r="14.4" fill="#009af9" fill-rule="evenodd" fill-opacity="1" stroke="none"/>
<circle clip-path="url(#clip512)" cx="1666.46" cy="163.406" r="14.4" fill="#009af9" fill-rule="evenodd" fill-opacity="1" stroke="none"/>
<circle clip-path="url(#clip512)" cx="973.917" cy="734.519" r="14.4" fill="#009af9" fill-rule="evenodd" fill-opacity="1" stroke="none"/>
<circle clip-path="url(#clip512)" cx="1767.81" cy="1391.84" r="14.4" fill="#009af9" fill-rule="evenodd" fill-opacity="1" stroke="none"/>
<circle clip-path="url(#clip512)" cx="805.003" cy="1445.72" r="14.4" fill="#009af9" fill-rule="evenodd" fill-opacity="1" stroke="none"/>
<circle clip-path="url(#clip512)" cx="1328.63" cy="206.509" r="14.4" fill="#009af9" fill-rule="evenodd" fill-opacity="1" stroke="none"/>
<circle clip-path="url(#clip512)" cx="2257.66" cy="1122.44" r="14.4" fill="#009af9" fill-rule="evenodd" fill-opacity="1" stroke="none"/>
<circle clip-path="url(#clip512)" cx="348.938" cy="745.295" r="14.4" fill="#009af9" fill-rule="evenodd" fill-opacity="1" stroke="none"/>
<circle clip-path="url(#clip512)" cx="1007.7" cy="1144" r="14.4" fill="#009af9" fill-rule="evenodd" fill-opacity="1" stroke="none"/>
<circle clip-path="url(#clip512)" cx="990.808" cy="249.612" r="14.4" fill="#009af9" fill-rule="evenodd" fill-opacity="1" stroke="none"/>
<circle clip-path="url(#clip512)" cx="1379.31" cy="131.079" r="14.4" fill="#009af9" fill-rule="evenodd" fill-opacity="1" stroke="none"/>
<circle clip-path="url(#clip512)" cx="1092.16" cy="98.752" r="14.4" fill="#009af9" fill-rule="evenodd" fill-opacity="1" stroke="none"/>
<circle clip-path="url(#clip512)" cx="1210.4" cy="842.276" r="14.4" fill="#009af9" fill-rule="evenodd" fill-opacity="1" stroke="none"/>
<circle clip-path="url(#clip512)" cx="652.981" cy="292.715" r="14.4" fill="#009af9" fill-rule="evenodd" fill-opacity="1" stroke="none"/>
<circle clip-path="url(#clip512)" cx="500.959" cy="519.005" r="14.4" fill="#009af9" fill-rule="evenodd" fill-opacity="1" stroke="none"/>
<circle clip-path="url(#clip512)" cx="1835.37" cy="831.5" r="14.4" fill="#009af9" fill-rule="evenodd" fill-opacity="1" stroke="none"/>
<circle clip-path="url(#clip512)" cx="1413.09" cy="540.556" r="14.4" fill="#009af9" fill-rule="evenodd" fill-opacity="1" stroke="none"/>
<circle clip-path="url(#clip512)" cx="315.155" cy="335.818" r="14.4" fill="#009af9" fill-rule="evenodd" fill-opacity="1" stroke="none"/>
<circle clip-path="url(#clip512)" cx="1784.7" cy="906.93" r="14.4" fill="#009af9" fill-rule="evenodd" fill-opacity="1" stroke="none"/>
<circle clip-path="url(#clip512)" cx="416.503" cy="184.958" r="14.4" fill="#009af9" fill-rule="evenodd" fill-opacity="1" stroke="none"/>
<circle clip-path="url(#clip512)" cx="1615.79" cy="238.836" r="14.4" fill="#009af9" fill-rule="evenodd" fill-opacity="1" stroke="none"/>
<circle clip-path="url(#clip512)" cx="2139.42" cy="378.92" r="14.4" fill="#009af9" fill-rule="evenodd" fill-opacity="1" stroke="none"/>
<circle clip-path="url(#clip512)" cx="906.351" cy="1294.86" r="14.4" fill="#009af9" fill-rule="evenodd" fill-opacity="1" stroke="none"/>
<circle clip-path="url(#clip512)" cx="1159.72" cy="917.706" r="14.4" fill="#009af9" fill-rule="evenodd" fill-opacity="1" stroke="none"/>
<circle clip-path="url(#clip512)" cx="1818.48" cy="1316.41" r="14.4" fill="#009af9" fill-rule="evenodd" fill-opacity="1" stroke="none"/>
<circle clip-path="url(#clip512)" cx="1801.59" cy="422.023" r="14.4" fill="#009af9" fill-rule="evenodd" fill-opacity="1" stroke="none"/>
<circle clip-path="url(#clip512)" cx="2190.09" cy="303.49" r="14.4" fill="#009af9" fill-rule="evenodd" fill-opacity="1" stroke="none"/>
<circle clip-path="url(#clip512)" cx="1902.94" cy="271.163" r="14.4" fill="#009af9" fill-rule="evenodd" fill-opacity="1" stroke="none"/>
<circle clip-path="url(#clip512)" cx="2021.18" cy="1014.69" r="14.4" fill="#009af9" fill-rule="evenodd" fill-opacity="1" stroke="none"/>
<circle clip-path="url(#clip512)" cx="1463.77" cy="465.126" r="14.4" fill="#009af9" fill-rule="evenodd" fill-opacity="1" stroke="none"/>
<circle clip-path="url(#clip512)" cx="1311.74" cy="691.416" r="14.4" fill="#009af9" fill-rule="evenodd" fill-opacity="1" stroke="none"/>
<circle clip-path="url(#clip512)" cx="484.068" cy="1003.91" r="14.4" fill="#009af9" fill-rule="evenodd" fill-opacity="1" stroke="none"/>
<circle clip-path="url(#clip512)" cx="2223.88" cy="712.967" r="14.4" fill="#009af9" fill-rule="evenodd" fill-opacity="1" stroke="none"/>
<circle clip-path="url(#clip512)" cx="1125.94" cy="508.229" r="14.4" fill="#009af9" fill-rule="evenodd" fill-opacity="1" stroke="none"/>
<circle clip-path="url(#clip512)" cx="433.394" cy="1079.34" r="14.4" fill="#009af9" fill-rule="evenodd" fill-opacity="1" stroke="none"/>
<circle clip-path="url(#clip512)" cx="1227.29" cy="357.369" r="14.4" fill="#009af9" fill-rule="evenodd" fill-opacity="1" stroke="none"/>
<circle clip-path="url(#clip512)" cx="264.481" cy="411.248" r="14.4" fill="#009af9" fill-rule="evenodd" fill-opacity="1" stroke="none"/>
<circle clip-path="url(#clip512)" cx="788.112" cy="551.332" r="14.4" fill="#009af9" fill-rule="evenodd" fill-opacity="1" stroke="none"/>
<circle clip-path="url(#clip512)" cx="1717.14" cy="87.9763" r="14.4" fill="#009af9" fill-rule="evenodd" fill-opacity="1" stroke="none"/>
<circle clip-path="url(#clip512)" cx="1970.51" cy="1090.12" r="14.4" fill="#009af9" fill-rule="evenodd" fill-opacity="1" stroke="none"/>
<circle clip-path="url(#clip512)" cx="467.177" cy="109.528" r="14.4" fill="#009af9" fill-rule="evenodd" fill-opacity="1" stroke="none"/>
<circle clip-path="url(#clip512)" cx="450.285" cy="594.435" r="14.4" fill="#009af9" fill-rule="evenodd" fill-opacity="1" stroke="none"/>
<circle clip-path="url(#clip512)" cx="838.786" cy="475.902" r="14.4" fill="#009af9" fill-rule="evenodd" fill-opacity="1" stroke="none"/>
<circle clip-path="url(#clip512)" cx="551.633" cy="443.575" r="14.4" fill="#009af9" fill-rule="evenodd" fill-opacity="1" stroke="none"/>
<circle clip-path="url(#clip512)" cx="669.873" cy="1187.1" r="14.4" fill="#009af9" fill-rule="evenodd" fill-opacity="1" stroke="none"/>
<circle clip-path="url(#clip512)" cx="2274.55" cy="637.537" r="14.4" fill="#009af9" fill-rule="evenodd" fill-opacity="1" stroke="none"/>
<circle clip-path="url(#clip512)" cx="2122.53" cy="863.827" r="14.4" fill="#009af9" fill-rule="evenodd" fill-opacity="1" stroke="none"/>
<circle clip-path="url(#clip512)" cx="1294.85" cy="1176.32" r="14.4" fill="#009af9" fill-rule="evenodd" fill-opacity="1" stroke="none"/>
<circle clip-path="url(#clip512)" cx="872.569" cy="885.379" r="14.4" fill="#009af9" fill-rule="evenodd" fill-opacity="1" stroke="none"/>
<circle clip-path="url(#clip512)" cx="1936.72" cy="680.64" r="14.4" fill="#009af9" fill-rule="evenodd" fill-opacity="1" stroke="none"/>
<circle clip-path="url(#clip512)" cx="1244.18" cy="1251.75" r="14.4" fill="#009af9" fill-rule="evenodd" fill-opacity="1" stroke="none"/>
<circle clip-path="url(#clip512)" cx="2038.07" cy="529.78" r="14.4" fill="#009af9" fill-rule="evenodd" fill-opacity="1" stroke="none"/>
<circle clip-path="url(#clip512)" cx="1075.26" cy="583.659" r="14.4" fill="#009af9" fill-rule="evenodd" fill-opacity="1" stroke="none"/>
<circle clip-path="url(#clip512)" cx="1598.9" cy="723.743" r="14.4" fill="#009af9" fill-rule="evenodd" fill-opacity="1" stroke="none"/>
<circle clip-path="url(#clip512)" cx="365.829" cy="260.388" r="14.4" fill="#009af9" fill-rule="evenodd" fill-opacity="1" stroke="none"/>
<circle clip-path="url(#clip512)" cx="619.199" cy="1262.53" r="14.4" fill="#009af9" fill-rule="evenodd" fill-opacity="1" stroke="none"/>
<circle clip-path="url(#clip512)" cx="1277.96" cy="281.939" r="14.4" fill="#009af9" fill-rule="evenodd" fill-opacity="1" stroke="none"/>
<circle clip-path="url(#clip512)" cx="1261.07" cy="766.846" r="14.4" fill="#009af9" fill-rule="evenodd" fill-opacity="1" stroke="none"/>
<circle clip-path="url(#clip512)" cx="1649.57" cy="648.313" r="14.4" fill="#009af9" fill-rule="evenodd" fill-opacity="1" stroke="none"/>
<circle clip-path="url(#clip512)" cx="1362.42" cy="615.986" r="14.4" fill="#009af9" fill-rule="evenodd" fill-opacity="1" stroke="none"/>
<circle clip-path="url(#clip512)" cx="1480.66" cy="1359.51" r="14.4" fill="#009af9" fill-rule="evenodd" fill-opacity="1" stroke="none"/>
<circle clip-path="url(#clip512)" cx="923.243" cy="809.949" r="14.4" fill="#009af9" fill-rule="evenodd" fill-opacity="1" stroke="none"/>
<circle clip-path="url(#clip512)" cx="771.221" cy="1036.24" r="14.4" fill="#009af9" fill-rule="evenodd" fill-opacity="1" stroke="none"/>
<circle clip-path="url(#clip512)" cx="2105.64" cy="1348.73" r="14.4" fill="#009af9" fill-rule="evenodd" fill-opacity="1" stroke="none"/>
<circle clip-path="url(#clip512)" cx="1683.35" cy="1057.79" r="14.4" fill="#009af9" fill-rule="evenodd" fill-opacity="1" stroke="none"/>
<circle clip-path="url(#clip512)" cx="585.416" cy="853.052" r="14.4" fill="#009af9" fill-rule="evenodd" fill-opacity="1" stroke="none"/>
<circle clip-path="url(#clip512)" cx="2054.96" cy="1424.16" r="14.4" fill="#009af9" fill-rule="evenodd" fill-opacity="1" stroke="none"/>
<circle clip-path="url(#clip512)" cx="686.764" cy="702.192" r="14.4" fill="#009af9" fill-rule="evenodd" fill-opacity="1" stroke="none"/>
<circle clip-path="url(#clip512)" cx="1886.05" cy="756.07" r="14.4" fill="#009af9" fill-rule="evenodd" fill-opacity="1" stroke="none"/>
<circle clip-path="url(#clip512)" cx="247.59" cy="896.154" r="14.4" fill="#009af9" fill-rule="evenodd" fill-opacity="1" stroke="none"/>
<circle clip-path="url(#clip512)" cx="1176.61" cy="432.799" r="14.4" fill="#009af9" fill-rule="evenodd" fill-opacity="1" stroke="none"/>
<circle clip-path="url(#clip512)" cx="1429.98" cy="1434.94" r="14.4" fill="#009af9" fill-rule="evenodd" fill-opacity="1" stroke="none"/>
<circle clip-path="url(#clip512)" cx="2088.74" cy="454.35" r="14.4" fill="#009af9" fill-rule="evenodd" fill-opacity="1" stroke="none"/>
<circle clip-path="url(#clip512)" cx="2071.85" cy="939.257" r="14.4" fill="#009af9" fill-rule="evenodd" fill-opacity="1" stroke="none"/>
<circle clip-path="url(#clip512)" cx="298.264" cy="820.725" r="14.4" fill="#009af9" fill-rule="evenodd" fill-opacity="1" stroke="none"/>
<circle clip-path="url(#clip512)" cx="2173.2" cy="788.397" r="14.4" fill="#009af9" fill-rule="evenodd" fill-opacity="1" stroke="none"/>
<circle clip-path="url(#clip512)" cx="2291.44" cy="152.631" r="14.4" fill="#009af9" fill-rule="evenodd" fill-opacity="1" stroke="none"/>
<circle clip-path="url(#clip512)" cx="1734.03" cy="982.36" r="14.4" fill="#009af9" fill-rule="evenodd" fill-opacity="1" stroke="none"/>
<circle clip-path="url(#clip512)" cx="1582" cy="1208.65" r="14.4" fill="#009af9" fill-rule="evenodd" fill-opacity="1" stroke="none"/>
<circle clip-path="url(#clip512)" cx="754.329" cy="141.855" r="14.4" fill="#009af9" fill-rule="evenodd" fill-opacity="1" stroke="none"/>
<circle clip-path="url(#clip512)" cx="332.046" cy="1230.2" r="14.4" fill="#009af9" fill-rule="evenodd" fill-opacity="1" stroke="none"/>
<circle clip-path="url(#clip512)" cx="1396.2" cy="1025.46" r="14.4" fill="#009af9" fill-rule="evenodd" fill-opacity="1" stroke="none"/>
<circle clip-path="url(#clip512)" cx="703.655" cy="217.285" r="14.4" fill="#009af9" fill-rule="evenodd" fill-opacity="1" stroke="none"/>
<circle clip-path="url(#clip512)" cx="1497.55" cy="874.603" r="14.4" fill="#009af9" fill-rule="evenodd" fill-opacity="1" stroke="none"/>
<circle clip-path="url(#clip512)" cx="534.742" cy="928.482" r="14.4" fill="#009af9" fill-rule="evenodd" fill-opacity="1" stroke="none"/>
<circle clip-path="url(#clip512)" cx="1058.37" cy="1068.57" r="14.4" fill="#009af9" fill-rule="evenodd" fill-opacity="1" stroke="none"/>
<circle clip-path="url(#clip512)" cx="1987.4" cy="605.21" r="14.4" fill="#009af9" fill-rule="evenodd" fill-opacity="1" stroke="none"/>
<circle clip-path="url(#clip512)" cx="2240.77" cy="228.061" r="14.4" fill="#009af9" fill-rule="evenodd" fill-opacity="1" stroke="none"/>
<circle clip-path="url(#clip512)" cx="737.438" cy="626.762" r="14.4" fill="#009af9" fill-rule="evenodd" fill-opacity="1" stroke="none"/>
<circle clip-path="url(#clip512)" cx="720.547" cy="1111.67" r="14.4" fill="#009af9" fill-rule="evenodd" fill-opacity="1" stroke="none"/>
<circle clip-path="url(#clip512)" cx="1109.05" cy="993.136" r="14.4" fill="#009af9" fill-rule="evenodd" fill-opacity="1" stroke="none"/>
<circle clip-path="url(#clip512)" cx="821.895" cy="960.809" r="14.4" fill="#009af9" fill-rule="evenodd" fill-opacity="1" stroke="none"/>
<circle clip-path="url(#clip512)" cx="940.134" cy="325.042" r="14.4" fill="#009af9" fill-rule="evenodd" fill-opacity="1" stroke="none"/>
<circle clip-path="url(#clip512)" cx="382.72" cy="1154.77" r="14.4" fill="#009af9" fill-rule="evenodd" fill-opacity="1" stroke="none"/>
</svg>
