<?xml version="1.0" encoding="utf-8"?>
<svg xmlns="http://www.w3.org/2000/svg" xmlns:xlink="http://www.w3.org/1999/xlink" width="600" height="400" viewBox="0 0 2400 1600">
<defs>
  <clipPath id="clip970">
    <rect x="0" y="0" width="2400" height="1600"/>
  </clipPath>
</defs>
<path clip-path="url(#clip970)" d="M0 1600 L2400 1600 L2400 8.88178e-14 L0 8.88178e-14  Z" fill="#ffffff" fill-rule="evenodd" fill-opacity="1"/>
<defs>
  <clipPath id="clip971">
    <rect x="480" y="0" width="1681" height="1600"/>
  </clipPath>
</defs>
<path clip-path="url(#clip970)" d="M186.274 1486.45 L2352.76 1486.45 L2352.76 47.2441 L186.274 47.2441  Z" fill="#eaeaea" fill-rule="evenodd" fill-opacity="1"/>
<defs>
  <clipPath id="clip972">
    <rect x="186" y="47" width="2167" height="1440"/>
  </clipPath>
</defs>
<polyline clip-path="url(#clip972)" style="stroke:#ffffff; stroke-linecap:round; stroke-linejoin:round; stroke-width:4; stroke-opacity:1; fill:none" points="247.59,1486.45 247.59,47.2441 "/>
<polyline clip-path="url(#clip972)" style="stroke:#ffffff; stroke-linecap:round; stroke-linejoin:round; stroke-width:4; stroke-opacity:1; fill:none" points="762.576,1486.45 762.576,47.2441 "/>
<polyline clip-path="url(#clip972)" style="stroke:#ffffff; stroke-linecap:round; stroke-linejoin:round; stroke-width:4; stroke-opacity:1; fill:none" points="1277.56,1486.45 1277.56,47.2441 "/>
<polyline clip-path="url(#clip972)" style="stroke:#ffffff; stroke-linecap:round; stroke-linejoin:round; stroke-width:4; stroke-opacity:1; fill:none" points="1792.55,1486.45 1792.55,47.2441 "/>
<polyline clip-path="url(#clip972)" style="stroke:#ffffff; stroke-linecap:round; stroke-linejoin:round; stroke-width:4; stroke-opacity:1; fill:none" points="2307.53,1486.45 2307.53,47.2441 "/>
<polyline clip-path="url(#clip972)" style="stroke:#ffffff; stroke-linecap:round; stroke-linejoin:round; stroke-width:2; stroke-opacity:1; fill:none" points="505.083,1486.45 505.083,47.2441 "/>
<polyline clip-path="url(#clip972)" style="stroke:#ffffff; stroke-linecap:round; stroke-linejoin:round; stroke-width:2; stroke-opacity:1; fill:none" points="1020.07,1486.45 1020.07,47.2441 "/>
<polyline clip-path="url(#clip972)" style="stroke:#ffffff; stroke-linecap:round; stroke-linejoin:round; stroke-width:2; stroke-opacity:1; fill:none" points="1535.05,1486.45 1535.05,47.2441 "/>
<polyline clip-path="url(#clip972)" style="stroke:#ffffff; stroke-linecap:round; stroke-linejoin:round; stroke-width:2; stroke-opacity:1; fill:none" points="2050.04,1486.45 2050.04,47.2441 "/>
<polyline clip-path="url(#clip970)" style="stroke:#ffffff; stroke-linecap:round; stroke-linejoin:round; stroke-width:4; stroke-opacity:1; fill:none" points="186.274,1486.45 2352.76,1486.45 "/>
<polyline clip-path="url(#clip970)" style="stroke:#333333; stroke-linecap:round; stroke-linejoin:round; stroke-width:4; stroke-opacity:1; fill:none" points="247.59,1486.45 247.59,1505.35 "/>
<polyline clip-path="url(#clip970)" style="stroke:#333333; stroke-linecap:round; stroke-linejoin:round; stroke-width:4; stroke-opacity:1; fill:none" points="762.576,1486.45 762.576,1505.35 "/>
<polyline clip-path="url(#clip970)" style="stroke:#333333; stroke-linecap:round; stroke-linejoin:round; stroke-width:4; stroke-opacity:1; fill:none" points="1277.56,1486.45 1277.56,1505.35 "/>
<polyline clip-path="url(#clip970)" style="stroke:#333333; stroke-linecap:round; stroke-linejoin:round; stroke-width:4; stroke-opacity:1; fill:none" points="1792.55,1486.45 1792.55,1505.35 "/>
<polyline clip-path="url(#clip970)" style="stroke:#333333; stroke-linecap:round; stroke-linejoin:round; stroke-width:4; stroke-opacity:1; fill:none" points="2307.53,1486.45 2307.53,1505.35 "/>
<polyline clip-path="url(#clip970)" style="stroke:#333333; stroke-linecap:round; stroke-linejoin:round; stroke-width:4; stroke-opacity:1; fill:none" points="505.083,1486.45 505.083,1495.9 "/>
<polyline clip-path="url(#clip970)" style="stroke:#333333; stroke-linecap:round; stroke-linejoin:round; stroke-width:4; stroke-opacity:1; fill:none" points="1020.07,1486.45 1020.07,1495.9 "/>
<polyline clip-path="url(#clip970)" style="stroke:#333333; stroke-linecap:round; stroke-linejoin:round; stroke-width:4; stroke-opacity:1; fill:none" points="1535.05,1486.45 1535.05,1495.9 "/>
<polyline clip-path="url(#clip970)" style="stroke:#333333; stroke-linecap:round; stroke-linejoin:round; stroke-width:4; stroke-opacity:1; fill:none" points="2050.04,1486.45 2050.04,1495.9 "/>
<path clip-path="url(#clip970)" d="M209.893 1526.97 Q206.282 1526.97 204.453 1530.53 Q202.648 1534.07 202.648 1541.2 Q202.648 1548.31 204.453 1551.87 Q206.282 1555.42 209.893 1555.42 Q213.527 1555.42 215.333 1551.87 Q217.161 1548.31 217.161 1541.2 Q217.161 1534.07 215.333 1530.53 Q213.527 1526.97 209.893 1526.97 M209.893 1523.26 Q215.703 1523.26 218.759 1527.87 Q221.837 1532.45 221.837 1541.2 Q221.837 1549.93 218.759 1554.54 Q215.703 1559.12 209.893 1559.12 Q204.083 1559.12 201.004 1554.54 Q197.949 1549.93 197.949 1541.2 Q197.949 1532.45 201.004 1527.87 Q204.083 1523.26 209.893 1523.26 Z" fill="#4c4c4c" fill-rule="nonzero" fill-opacity="1" /><path clip-path="url(#clip970)" d="M230.055 1552.57 L234.939 1552.57 L234.939 1558.45 L230.055 1558.45 L230.055 1552.57 Z" fill="#4c4c4c" fill-rule="nonzero" fill-opacity="1" /><path clip-path="url(#clip970)" d="M255.124 1526.97 Q251.513 1526.97 249.684 1530.53 Q247.879 1534.07 247.879 1541.2 Q247.879 1548.31 249.684 1551.87 Q251.513 1555.42 255.124 1555.42 Q258.758 1555.42 260.564 1551.87 Q262.393 1548.31 262.393 1541.2 Q262.393 1534.07 260.564 1530.53 Q258.758 1526.97 255.124 1526.97 M255.124 1523.26 Q260.934 1523.26 263.99 1527.87 Q267.069 1532.45 267.069 1541.2 Q267.069 1549.93 263.99 1554.54 Q260.934 1559.12 255.124 1559.12 Q249.314 1559.12 246.235 1554.54 Q243.18 1549.93 243.18 1541.2 Q243.18 1532.45 246.235 1527.87 Q249.314 1523.26 255.124 1523.26 Z" fill="#4c4c4c" fill-rule="nonzero" fill-opacity="1" /><path clip-path="url(#clip970)" d="M285.286 1526.97 Q281.675 1526.97 279.846 1530.53 Q278.041 1534.07 278.041 1541.2 Q278.041 1548.31 279.846 1551.87 Q281.675 1555.42 285.286 1555.42 Q288.92 1555.42 290.726 1551.87 Q292.555 1548.31 292.555 1541.2 Q292.555 1534.07 290.726 1530.53 Q288.92 1526.97 285.286 1526.97 M285.286 1523.26 Q291.096 1523.26 294.152 1527.87 Q297.23 1532.45 297.23 1541.2 Q297.23 1549.93 294.152 1554.54 Q291.096 1559.12 285.286 1559.12 Q279.476 1559.12 276.397 1554.54 Q273.342 1549.93 273.342 1541.2 Q273.342 1532.45 276.397 1527.87 Q279.476 1523.26 285.286 1523.26 Z" fill="#4c4c4c" fill-rule="nonzero" fill-opacity="1" /><path clip-path="url(#clip970)" d="M725.377 1526.97 Q721.766 1526.97 719.937 1530.53 Q718.131 1534.07 718.131 1541.2 Q718.131 1548.31 719.937 1551.87 Q721.766 1555.42 725.377 1555.42 Q729.011 1555.42 730.816 1551.87 Q732.645 1548.31 732.645 1541.2 Q732.645 1534.07 730.816 1530.53 Q729.011 1526.97 725.377 1526.97 M725.377 1523.26 Q731.187 1523.26 734.242 1527.87 Q737.321 1532.45 737.321 1541.2 Q737.321 1549.93 734.242 1554.54 Q731.187 1559.12 725.377 1559.12 Q719.567 1559.12 716.488 1554.54 Q713.432 1549.93 713.432 1541.2 Q713.432 1532.45 716.488 1527.87 Q719.567 1523.26 725.377 1523.26 Z" fill="#4c4c4c" fill-rule="nonzero" fill-opacity="1" /><path clip-path="url(#clip970)" d="M745.539 1552.57 L750.423 1552.57 L750.423 1558.45 L745.539 1558.45 L745.539 1552.57 Z" fill="#4c4c4c" fill-rule="nonzero" fill-opacity="1" /><path clip-path="url(#clip970)" d="M764.636 1554.51 L780.955 1554.51 L780.955 1558.45 L759.011 1558.45 L759.011 1554.51 Q761.673 1551.76 766.256 1547.13 Q770.863 1542.48 772.043 1541.13 Q774.288 1538.61 775.168 1536.87 Q776.071 1535.11 776.071 1533.42 Q776.071 1530.67 774.126 1528.93 Q772.205 1527.2 769.103 1527.2 Q766.904 1527.2 764.451 1527.96 Q762.02 1528.73 759.242 1530.28 L759.242 1525.55 Q762.066 1524.42 764.52 1523.84 Q766.974 1523.26 769.011 1523.26 Q774.381 1523.26 777.575 1525.95 Q780.77 1528.63 780.77 1533.12 Q780.77 1535.25 779.96 1537.17 Q779.173 1539.07 777.066 1541.67 Q776.488 1542.34 773.386 1545.55 Q770.284 1548.75 764.636 1554.51 Z" fill="#4c4c4c" fill-rule="nonzero" fill-opacity="1" /><path clip-path="url(#clip970)" d="M790.816 1523.89 L809.173 1523.89 L809.173 1527.82 L795.099 1527.82 L795.099 1536.3 Q796.117 1535.95 797.136 1535.79 Q798.154 1535.6 799.173 1535.6 Q804.96 1535.6 808.339 1538.77 Q811.719 1541.94 811.719 1547.36 Q811.719 1552.94 808.247 1556.04 Q804.774 1559.12 798.455 1559.12 Q796.279 1559.12 794.011 1558.75 Q791.765 1558.38 789.358 1557.64 L789.358 1552.94 Q791.441 1554.07 793.663 1554.63 Q795.886 1555.18 798.362 1555.18 Q802.367 1555.18 804.705 1553.08 Q807.043 1550.97 807.043 1547.36 Q807.043 1543.75 804.705 1541.64 Q802.367 1539.54 798.362 1539.54 Q796.487 1539.54 794.612 1539.95 Q792.761 1540.37 790.816 1541.25 L790.816 1523.89 Z" fill="#4c4c4c" fill-rule="nonzero" fill-opacity="1" /><path clip-path="url(#clip970)" d="M1239.87 1526.97 Q1236.25 1526.97 1234.43 1530.53 Q1232.62 1534.07 1232.62 1541.2 Q1232.62 1548.31 1234.43 1551.87 Q1236.25 1555.42 1239.87 1555.42 Q1243.5 1555.42 1245.3 1551.87 Q1247.13 1548.31 1247.13 1541.2 Q1247.13 1534.07 1245.3 1530.53 Q1243.5 1526.97 1239.87 1526.97 M1239.87 1523.26 Q1245.68 1523.26 1248.73 1527.87 Q1251.81 1532.45 1251.81 1541.2 Q1251.81 1549.93 1248.73 1554.54 Q1245.68 1559.12 1239.87 1559.12 Q1234.05 1559.12 1230.98 1554.54 Q1227.92 1549.93 1227.92 1541.2 Q1227.92 1532.45 1230.98 1527.87 Q1234.05 1523.26 1239.87 1523.26 Z" fill="#4c4c4c" fill-rule="nonzero" fill-opacity="1" /><path clip-path="url(#clip970)" d="M1260.03 1552.57 L1264.91 1552.57 L1264.91 1558.45 L1260.03 1558.45 L1260.03 1552.57 Z" fill="#4c4c4c" fill-rule="nonzero" fill-opacity="1" /><path clip-path="url(#clip970)" d="M1275.14 1523.89 L1293.5 1523.89 L1293.5 1527.82 L1279.43 1527.82 L1279.43 1536.3 Q1280.44 1535.95 1281.46 1535.79 Q1282.48 1535.6 1283.5 1535.6 Q1289.29 1535.6 1292.67 1538.77 Q1296.05 1541.94 1296.05 1547.36 Q1296.05 1552.94 1292.57 1556.04 Q1289.1 1559.12 1282.78 1559.12 Q1280.61 1559.12 1278.34 1558.75 Q1276.09 1558.38 1273.68 1557.64 L1273.68 1552.94 Q1275.77 1554.07 1277.99 1554.63 Q1280.21 1555.18 1282.69 1555.18 Q1286.69 1555.18 1289.03 1553.08 Q1291.37 1550.97 1291.37 1547.36 Q1291.37 1543.75 1289.03 1541.64 Q1286.69 1539.54 1282.69 1539.54 Q1280.81 1539.54 1278.94 1539.95 Q1277.09 1540.37 1275.14 1541.25 L1275.14 1523.89 Z" fill="#4c4c4c" fill-rule="nonzero" fill-opacity="1" /><path clip-path="url(#clip970)" d="M1315.26 1526.97 Q1311.65 1526.97 1309.82 1530.53 Q1308.01 1534.07 1308.01 1541.2 Q1308.01 1548.31 1309.82 1551.87 Q1311.65 1555.42 1315.26 1555.42 Q1318.89 1555.42 1320.7 1551.87 Q1322.53 1548.31 1322.53 1541.2 Q1322.53 1534.07 1320.7 1530.53 Q1318.89 1526.97 1315.26 1526.97 M1315.26 1523.26 Q1321.07 1523.26 1324.12 1527.87 Q1327.2 1532.45 1327.2 1541.2 Q1327.2 1549.93 1324.12 1554.54 Q1321.07 1559.12 1315.26 1559.12 Q1309.45 1559.12 1306.37 1554.54 Q1303.31 1549.93 1303.31 1541.2 Q1303.31 1532.45 1306.37 1527.87 Q1309.45 1523.26 1315.26 1523.26 Z" fill="#4c4c4c" fill-rule="nonzero" fill-opacity="1" /><path clip-path="url(#clip970)" d="M1755.35 1526.97 Q1751.74 1526.97 1749.91 1530.53 Q1748.1 1534.07 1748.1 1541.2 Q1748.1 1548.31 1749.91 1551.87 Q1751.74 1555.42 1755.35 1555.42 Q1758.98 1555.42 1760.79 1551.87 Q1762.62 1548.31 1762.62 1541.2 Q1762.62 1534.07 1760.79 1530.53 Q1758.98 1526.97 1755.35 1526.97 M1755.35 1523.26 Q1761.16 1523.26 1764.21 1527.87 Q1767.29 1532.45 1767.29 1541.2 Q1767.29 1549.93 1764.21 1554.54 Q1761.16 1559.12 1755.35 1559.12 Q1749.54 1559.12 1746.46 1554.54 Q1743.4 1549.93 1743.4 1541.2 Q1743.4 1532.45 1746.46 1527.87 Q1749.54 1523.26 1755.35 1523.26 Z" fill="#4c4c4c" fill-rule="nonzero" fill-opacity="1" /><path clip-path="url(#clip970)" d="M1775.51 1552.57 L1780.39 1552.57 L1780.39 1558.45 L1775.51 1558.45 L1775.51 1552.57 Z" fill="#4c4c4c" fill-rule="nonzero" fill-opacity="1" /><path clip-path="url(#clip970)" d="M1789.4 1523.89 L1811.62 1523.89 L1811.62 1525.88 L1799.08 1558.45 L1794.19 1558.45 L1806 1527.82 L1789.4 1527.82 L1789.4 1523.89 Z" fill="#4c4c4c" fill-rule="nonzero" fill-opacity="1" /><path clip-path="url(#clip970)" d="M1820.79 1523.89 L1839.14 1523.89 L1839.14 1527.82 L1825.07 1527.82 L1825.07 1536.3 Q1826.09 1535.95 1827.11 1535.79 Q1828.13 1535.6 1829.14 1535.6 Q1834.93 1535.6 1838.31 1538.77 Q1841.69 1541.94 1841.69 1547.36 Q1841.69 1552.94 1838.22 1556.04 Q1834.75 1559.12 1828.43 1559.12 Q1826.25 1559.12 1823.98 1558.75 Q1821.74 1558.38 1819.33 1557.64 L1819.33 1552.94 Q1821.41 1554.07 1823.64 1554.63 Q1825.86 1555.18 1828.33 1555.18 Q1832.34 1555.18 1834.68 1553.08 Q1837.02 1550.97 1837.02 1547.36 Q1837.02 1543.75 1834.68 1541.64 Q1832.34 1539.54 1828.33 1539.54 Q1826.46 1539.54 1824.58 1539.95 Q1822.73 1540.37 1820.79 1541.25 L1820.79 1523.89 Z" fill="#4c4c4c" fill-rule="nonzero" fill-opacity="1" /><path clip-path="url(#clip970)" d="M2259.61 1554.51 L2267.24 1554.51 L2267.24 1528.15 L2258.93 1529.81 L2258.93 1525.55 L2267.2 1523.89 L2271.87 1523.89 L2271.87 1554.51 L2279.51 1554.51 L2279.51 1558.45 L2259.61 1558.45 L2259.61 1554.51 Z" fill="#4c4c4c" fill-rule="nonzero" fill-opacity="1" /><path clip-path="url(#clip970)" d="M2288.96 1552.57 L2293.84 1552.57 L2293.84 1558.45 L2288.96 1558.45 L2288.96 1552.57 Z" fill="#4c4c4c" fill-rule="nonzero" fill-opacity="1" /><path clip-path="url(#clip970)" d="M2314.03 1526.97 Q2310.42 1526.97 2308.59 1530.53 Q2306.78 1534.07 2306.78 1541.2 Q2306.78 1548.31 2308.59 1551.87 Q2310.42 1555.42 2314.03 1555.42 Q2317.66 1555.42 2319.47 1551.87 Q2321.3 1548.31 2321.3 1541.2 Q2321.3 1534.07 2319.47 1530.53 Q2317.66 1526.97 2314.03 1526.97 M2314.03 1523.26 Q2319.84 1523.26 2322.89 1527.87 Q2325.97 1532.45 2325.97 1541.2 Q2325.97 1549.93 2322.89 1554.54 Q2319.84 1559.12 2314.03 1559.12 Q2308.22 1559.12 2305.14 1554.54 Q2302.08 1549.93 2302.08 1541.2 Q2302.08 1532.45 2305.14 1527.87 Q2308.22 1523.26 2314.03 1523.26 Z" fill="#4c4c4c" fill-rule="nonzero" fill-opacity="1" /><path clip-path="url(#clip970)" d="M2344.19 1526.97 Q2340.58 1526.97 2338.75 1530.53 Q2336.94 1534.07 2336.94 1541.2 Q2336.94 1548.31 2338.75 1551.87 Q2340.58 1555.42 2344.19 1555.42 Q2347.82 1555.42 2349.63 1551.87 Q2351.46 1548.31 2351.46 1541.2 Q2351.46 1534.07 2349.63 1530.53 Q2347.82 1526.97 2344.19 1526.97 M2344.19 1523.26 Q2350 1523.26 2353.05 1527.87 Q2356.13 1532.45 2356.13 1541.2 Q2356.13 1549.93 2353.05 1554.54 Q2350 1559.12 2344.19 1559.12 Q2338.38 1559.12 2335.3 1554.54 Q2332.24 1549.93 2332.24 1541.2 Q2332.24 1532.45 2335.3 1527.87 Q2338.38 1523.26 2344.19 1523.26 Z" fill="#4c4c4c" fill-rule="nonzero" fill-opacity="1" /><polyline clip-path="url(#clip972)" style="stroke:#ffffff; stroke-linecap:round; stroke-linejoin:round; stroke-width:4; stroke-opacity:1; fill:none" points="186.274,1451.1 2352.76,1451.1 "/>
<polyline clip-path="url(#clip972)" style="stroke:#ffffff; stroke-linecap:round; stroke-linejoin:round; stroke-width:4; stroke-opacity:1; fill:none" points="186.274,1106.28 2352.76,1106.28 "/>
<polyline clip-path="url(#clip972)" style="stroke:#ffffff; stroke-linecap:round; stroke-linejoin:round; stroke-width:4; stroke-opacity:1; fill:none" points="186.274,761.458 2352.76,761.458 "/>
<polyline clip-path="url(#clip972)" style="stroke:#ffffff; stroke-linecap:round; stroke-linejoin:round; stroke-width:4; stroke-opacity:1; fill:none" points="186.274,416.635 2352.76,416.635 "/>
<polyline clip-path="url(#clip972)" style="stroke:#ffffff; stroke-linecap:round; stroke-linejoin:round; stroke-width:4; stroke-opacity:1; fill:none" points="186.274,71.8127 2352.76,71.8127 "/>
<polyline clip-path="url(#clip972)" style="stroke:#ffffff; stroke-linecap:round; stroke-linejoin:round; stroke-width:2; stroke-opacity:1; fill:none" points="186.274,1278.69 2352.76,1278.69 "/>
<polyline clip-path="url(#clip972)" style="stroke:#ffffff; stroke-linecap:round; stroke-linejoin:round; stroke-width:2; stroke-opacity:1; fill:none" points="186.274,933.869 2352.76,933.869 "/>
<polyline clip-path="url(#clip972)" style="stroke:#ffffff; stroke-linecap:round; stroke-linejoin:round; stroke-width:2; stroke-opacity:1; fill:none" points="186.274,589.047 2352.76,589.047 "/>
<polyline clip-path="url(#clip972)" style="stroke:#ffffff; stroke-linecap:round; stroke-linejoin:round; stroke-width:2; stroke-opacity:1; fill:none" points="186.274,244.224 2352.76,244.224 "/>
<polyline clip-path="url(#clip970)" style="stroke:#ffffff; stroke-linecap:round; stroke-linejoin:round; stroke-width:4; stroke-opacity:1; fill:none" points="186.274,1486.45 186.274,47.2441 "/>
<polyline clip-path="url(#clip970)" style="stroke:#333333; stroke-linecap:round; stroke-linejoin:round; stroke-width:4; stroke-opacity:1; fill:none" points="186.274,1451.1 167.376,1451.1 "/>
<polyline clip-path="url(#clip970)" style="stroke:#333333; stroke-linecap:round; stroke-linejoin:round; stroke-width:4; stroke-opacity:1; fill:none" points="186.274,1106.28 167.376,1106.28 "/>
<polyline clip-path="url(#clip970)" style="stroke:#333333; stroke-linecap:round; stroke-linejoin:round; stroke-width:4; stroke-opacity:1; fill:none" points="186.274,761.458 167.376,761.458 "/>
<polyline clip-path="url(#clip970)" style="stroke:#333333; stroke-linecap:round; stroke-linejoin:round; stroke-width:4; stroke-opacity:1; fill:none" points="186.274,416.635 167.376,416.635 "/>
<polyline clip-path="url(#clip970)" style="stroke:#333333; stroke-linecap:round; stroke-linejoin:round; stroke-width:4; stroke-opacity:1; fill:none" points="186.274,71.8127 167.376,71.8127 "/>
<polyline clip-path="url(#clip970)" style="stroke:#333333; stroke-linecap:round; stroke-linejoin:round; stroke-width:4; stroke-opacity:1; fill:none" points="186.274,1278.69 176.825,1278.69 "/>
<polyline clip-path="url(#clip970)" style="stroke:#333333; stroke-linecap:round; stroke-linejoin:round; stroke-width:4; stroke-opacity:1; fill:none" points="186.274,933.869 176.825,933.869 "/>
<polyline clip-path="url(#clip970)" style="stroke:#333333; stroke-linecap:round; stroke-linejoin:round; stroke-width:4; stroke-opacity:1; fill:none" points="186.274,589.047 176.825,589.047 "/>
<polyline clip-path="url(#clip970)" style="stroke:#333333; stroke-linecap:round; stroke-linejoin:round; stroke-width:4; stroke-opacity:1; fill:none" points="186.274,244.224 176.825,244.224 "/>
<path clip-path="url(#clip970)" d="M44.9365 1436.9 Q41.3254 1436.9 39.4967 1440.47 Q37.6912 1444.01 37.6912 1451.14 Q37.6912 1458.24 39.4967 1461.81 Q41.3254 1465.35 44.9365 1465.35 Q48.5707 1465.35 50.3763 1461.81 Q52.205 1458.24 52.205 1451.14 Q52.205 1444.01 50.3763 1440.47 Q48.5707 1436.9 44.9365 1436.9 M44.9365 1433.2 Q50.7467 1433.2 53.8022 1437.81 Q56.8809 1442.39 56.8809 1451.14 Q56.8809 1459.87 53.8022 1464.47 Q50.7467 1469.05 44.9365 1469.05 Q39.1264 1469.05 36.0477 1464.47 Q32.9921 1459.87 32.9921 1451.14 Q32.9921 1442.39 36.0477 1437.81 Q39.1264 1433.2 44.9365 1433.2 Z" fill="#4c4c4c" fill-rule="nonzero" fill-opacity="1" /><path clip-path="url(#clip970)" d="M65.0984 1462.5 L69.9827 1462.5 L69.9827 1468.38 L65.0984 1468.38 L65.0984 1462.5 Z" fill="#4c4c4c" fill-rule="nonzero" fill-opacity="1" /><path clip-path="url(#clip970)" d="M90.1677 1436.9 Q86.5567 1436.9 84.728 1440.47 Q82.9224 1444.01 82.9224 1451.14 Q82.9224 1458.24 84.728 1461.81 Q86.5567 1465.35 90.1677 1465.35 Q93.802 1465.35 95.6075 1461.81 Q97.4362 1458.24 97.4362 1451.14 Q97.4362 1444.01 95.6075 1440.47 Q93.802 1436.9 90.1677 1436.9 M90.1677 1433.2 Q95.9779 1433.2 99.0334 1437.81 Q102.112 1442.39 102.112 1451.14 Q102.112 1459.87 99.0334 1464.47 Q95.9779 1469.05 90.1677 1469.05 Q84.3576 1469.05 81.2789 1464.47 Q78.2234 1459.87 78.2234 1451.14 Q78.2234 1442.39 81.2789 1437.81 Q84.3576 1433.2 90.1677 1433.2 Z" fill="#4c4c4c" fill-rule="nonzero" fill-opacity="1" /><path clip-path="url(#clip970)" d="M120.33 1436.9 Q116.719 1436.9 114.89 1440.47 Q113.084 1444.01 113.084 1451.14 Q113.084 1458.24 114.89 1461.81 Q116.719 1465.35 120.33 1465.35 Q123.964 1465.35 125.769 1461.81 Q127.598 1458.24 127.598 1451.14 Q127.598 1444.01 125.769 1440.47 Q123.964 1436.9 120.33 1436.9 M120.33 1433.2 Q126.14 1433.2 129.195 1437.81 Q132.274 1442.39 132.274 1451.14 Q132.274 1459.87 129.195 1464.47 Q126.14 1469.05 120.33 1469.05 Q114.519 1469.05 111.441 1464.47 Q108.385 1459.87 108.385 1451.14 Q108.385 1442.39 111.441 1437.81 Q114.519 1433.2 120.33 1433.2 Z" fill="#4c4c4c" fill-rule="nonzero" fill-opacity="1" /><path clip-path="url(#clip970)" d="M45.9319 1092.08 Q42.3208 1092.08 40.4921 1095.64 Q38.6865 1099.19 38.6865 1106.32 Q38.6865 1113.42 40.4921 1116.99 Q42.3208 1120.53 45.9319 1120.53 Q49.5661 1120.53 51.3717 1116.99 Q53.2004 1113.42 53.2004 1106.32 Q53.2004 1099.19 51.3717 1095.64 Q49.5661 1092.08 45.9319 1092.08 M45.9319 1088.38 Q51.742 1088.38 54.7976 1092.98 Q57.8763 1097.57 57.8763 1106.32 Q57.8763 1115.04 54.7976 1119.65 Q51.742 1124.23 45.9319 1124.23 Q40.1217 1124.23 37.043 1119.65 Q33.9875 1115.04 33.9875 1106.32 Q33.9875 1097.57 37.043 1092.98 Q40.1217 1088.38 45.9319 1088.38 Z" fill="#4c4c4c" fill-rule="nonzero" fill-opacity="1" /><path clip-path="url(#clip970)" d="M66.0938 1117.68 L70.978 1117.68 L70.978 1123.56 L66.0938 1123.56 L66.0938 1117.68 Z" fill="#4c4c4c" fill-rule="nonzero" fill-opacity="1" /><path clip-path="url(#clip970)" d="M85.1909 1119.63 L101.51 1119.63 L101.51 1123.56 L79.566 1123.56 L79.566 1119.63 Q82.228 1116.87 86.8113 1112.24 Q91.4177 1107.59 92.5983 1106.25 Q94.8436 1103.72 95.7233 1101.99 Q96.626 1100.23 96.626 1098.54 Q96.626 1095.78 94.6816 1094.05 Q92.7603 1092.31 89.6585 1092.31 Q87.4594 1092.31 85.0057 1093.07 Q82.5752 1093.84 79.7974 1095.39 L79.7974 1090.67 Q82.6215 1089.53 85.0752 1088.95 Q87.5289 1088.38 89.5659 1088.38 Q94.9362 1088.38 98.1307 1091.06 Q101.325 1093.75 101.325 1098.24 Q101.325 1100.37 100.515 1102.29 Q99.7279 1104.19 97.6214 1106.78 Q97.0427 1107.45 93.9409 1110.67 Q90.839 1113.86 85.1909 1119.63 Z" fill="#4c4c4c" fill-rule="nonzero" fill-opacity="1" /><path clip-path="url(#clip970)" d="M111.371 1089 L129.728 1089 L129.728 1092.94 L115.654 1092.94 L115.654 1101.41 Q116.672 1101.06 117.691 1100.9 Q118.709 1100.71 119.728 1100.71 Q125.515 1100.71 128.894 1103.89 Q132.274 1107.06 132.274 1112.47 Q132.274 1118.05 128.802 1121.15 Q125.33 1124.23 119.01 1124.23 Q116.834 1124.23 114.566 1123.86 Q112.32 1123.49 109.913 1122.75 L109.913 1118.05 Q111.996 1119.19 114.219 1119.74 Q116.441 1120.3 118.918 1120.3 Q122.922 1120.3 125.26 1118.19 Q127.598 1116.08 127.598 1112.47 Q127.598 1108.86 125.26 1106.76 Q122.922 1104.65 118.918 1104.65 Q117.043 1104.65 115.168 1105.07 Q113.316 1105.48 111.371 1106.36 L111.371 1089 Z" fill="#4c4c4c" fill-rule="nonzero" fill-opacity="1" /><path clip-path="url(#clip970)" d="M44.9365 747.257 Q41.3254 747.257 39.4967 750.822 Q37.6912 754.363 37.6912 761.493 Q37.6912 768.599 39.4967 772.164 Q41.3254 775.706 44.9365 775.706 Q48.5707 775.706 50.3763 772.164 Q52.205 768.599 52.205 761.493 Q52.205 754.363 50.3763 750.822 Q48.5707 747.257 44.9365 747.257 M44.9365 743.553 Q50.7467 743.553 53.8022 748.16 Q56.8809 752.743 56.8809 761.493 Q56.8809 770.22 53.8022 774.826 Q50.7467 779.409 44.9365 779.409 Q39.1264 779.409 36.0477 774.826 Q32.9921 770.22 32.9921 761.493 Q32.9921 752.743 36.0477 748.16 Q39.1264 743.553 44.9365 743.553 Z" fill="#4c4c4c" fill-rule="nonzero" fill-opacity="1" /><path clip-path="url(#clip970)" d="M65.0984 772.859 L69.9827 772.859 L69.9827 778.738 L65.0984 778.738 L65.0984 772.859 Z" fill="#4c4c4c" fill-rule="nonzero" fill-opacity="1" /><path clip-path="url(#clip970)" d="M80.2141 744.178 L98.5705 744.178 L98.5705 748.113 L84.4965 748.113 L84.4965 756.585 Q85.515 756.238 86.5335 756.076 Q87.552 755.891 88.5705 755.891 Q94.3575 755.891 97.7371 759.062 Q101.117 762.234 101.117 767.65 Q101.117 773.229 97.6446 776.331 Q94.1724 779.409 87.8529 779.409 Q85.677 779.409 83.4085 779.039 Q81.1632 778.669 78.7558 777.928 L78.7558 773.229 Q80.8391 774.363 83.0613 774.919 Q85.2835 775.474 87.7604 775.474 Q91.765 775.474 94.1029 773.368 Q96.4409 771.261 96.4409 767.65 Q96.4409 764.039 94.1029 761.933 Q91.765 759.826 87.7604 759.826 Q85.8854 759.826 84.0104 760.243 Q82.1585 760.66 80.2141 761.539 L80.2141 744.178 Z" fill="#4c4c4c" fill-rule="nonzero" fill-opacity="1" /><path clip-path="url(#clip970)" d="M120.33 747.257 Q116.719 747.257 114.89 750.822 Q113.084 754.363 113.084 761.493 Q113.084 768.599 114.89 772.164 Q116.719 775.706 120.33 775.706 Q123.964 775.706 125.769 772.164 Q127.598 768.599 127.598 761.493 Q127.598 754.363 125.769 750.822 Q123.964 747.257 120.33 747.257 M120.33 743.553 Q126.14 743.553 129.195 748.16 Q132.274 752.743 132.274 761.493 Q132.274 770.22 129.195 774.826 Q126.14 779.409 120.33 779.409 Q114.519 779.409 111.441 774.826 Q108.385 770.22 108.385 761.493 Q108.385 752.743 111.441 748.16 Q114.519 743.553 120.33 743.553 Z" fill="#4c4c4c" fill-rule="nonzero" fill-opacity="1" /><path clip-path="url(#clip970)" d="M45.9319 402.434 Q42.3208 402.434 40.4921 405.999 Q38.6865 409.541 38.6865 416.67 Q38.6865 423.777 40.4921 427.341 Q42.3208 430.883 45.9319 430.883 Q49.5661 430.883 51.3717 427.341 Q53.2004 423.777 53.2004 416.67 Q53.2004 409.541 51.3717 405.999 Q49.5661 402.434 45.9319 402.434 M45.9319 398.73 Q51.742 398.73 54.7976 403.337 Q57.8763 407.92 57.8763 416.67 Q57.8763 425.397 54.7976 430.003 Q51.742 434.587 45.9319 434.587 Q40.1217 434.587 37.043 430.003 Q33.9875 425.397 33.9875 416.67 Q33.9875 407.92 37.043 403.337 Q40.1217 398.73 45.9319 398.73 Z" fill="#4c4c4c" fill-rule="nonzero" fill-opacity="1" /><path clip-path="url(#clip970)" d="M66.0938 428.036 L70.978 428.036 L70.978 433.915 L66.0938 433.915 L66.0938 428.036 Z" fill="#4c4c4c" fill-rule="nonzero" fill-opacity="1" /><path clip-path="url(#clip970)" d="M79.9826 399.355 L102.205 399.355 L102.205 401.346 L89.6585 433.915 L84.7743 433.915 L96.5797 403.291 L79.9826 403.291 L79.9826 399.355 Z" fill="#4c4c4c" fill-rule="nonzero" fill-opacity="1" /><path clip-path="url(#clip970)" d="M111.371 399.355 L129.728 399.355 L129.728 403.291 L115.654 403.291 L115.654 411.763 Q116.672 411.416 117.691 411.254 Q118.709 411.068 119.728 411.068 Q125.515 411.068 128.894 414.24 Q132.274 417.411 132.274 422.828 Q132.274 428.406 128.802 431.508 Q125.33 434.587 119.01 434.587 Q116.834 434.587 114.566 434.216 Q112.32 433.846 109.913 433.105 L109.913 428.406 Q111.996 429.54 114.219 430.096 Q116.441 430.652 118.918 430.652 Q122.922 430.652 125.26 428.545 Q127.598 426.439 127.598 422.828 Q127.598 419.216 125.26 417.11 Q122.922 415.003 118.918 415.003 Q117.043 415.003 115.168 415.42 Q113.316 415.837 111.371 416.716 L111.371 399.355 Z" fill="#4c4c4c" fill-rule="nonzero" fill-opacity="1" /><path clip-path="url(#clip970)" d="M35.7467 85.1575 L43.3856 85.1575 L43.3856 58.7919 L35.0754 60.4586 L35.0754 56.1994 L43.3393 54.5327 L48.0152 54.5327 L48.0152 85.1575 L55.654 85.1575 L55.654 89.0927 L35.7467 89.0927 L35.7467 85.1575 Z" fill="#4c4c4c" fill-rule="nonzero" fill-opacity="1" /><path clip-path="url(#clip970)" d="M65.0984 83.2131 L69.9827 83.2131 L69.9827 89.0927 L65.0984 89.0927 L65.0984 83.2131 Z" fill="#4c4c4c" fill-rule="nonzero" fill-opacity="1" /><path clip-path="url(#clip970)" d="M90.1677 57.6114 Q86.5567 57.6114 84.728 61.1762 Q82.9224 64.7178 82.9224 71.8474 Q82.9224 78.9539 84.728 82.5187 Q86.5567 86.0603 90.1677 86.0603 Q93.802 86.0603 95.6075 82.5187 Q97.4362 78.9539 97.4362 71.8474 Q97.4362 64.7178 95.6075 61.1762 Q93.802 57.6114 90.1677 57.6114 M90.1677 53.9077 Q95.9779 53.9077 99.0334 58.5142 Q102.112 63.0975 102.112 71.8474 Q102.112 80.5742 99.0334 85.1807 Q95.9779 89.764 90.1677 89.764 Q84.3576 89.764 81.2789 85.1807 Q78.2234 80.5742 78.2234 71.8474 Q78.2234 63.0975 81.2789 58.5142 Q84.3576 53.9077 90.1677 53.9077 Z" fill="#4c4c4c" fill-rule="nonzero" fill-opacity="1" /><path clip-path="url(#clip970)" d="M120.33 57.6114 Q116.719 57.6114 114.89 61.1762 Q113.084 64.7178 113.084 71.8474 Q113.084 78.9539 114.89 82.5187 Q116.719 86.0603 120.33 86.0603 Q123.964 86.0603 125.769 82.5187 Q127.598 78.9539 127.598 71.8474 Q127.598 64.7178 125.769 61.1762 Q123.964 57.6114 120.33 57.6114 M120.33 53.9077 Q126.14 53.9077 129.195 58.5142 Q132.274 63.0975 132.274 71.8474 Q132.274 80.5742 129.195 85.1807 Q126.14 89.764 120.33 89.764 Q114.519 89.764 111.441 85.1807 Q108.385 80.5742 108.385 71.8474 Q108.385 63.0975 111.441 58.5142 Q114.519 53.9077 120.33 53.9077 Z" fill="#4c4c4c" fill-rule="nonzero" fill-opacity="1" /><circle clip-path="url(#clip972)" cx="1647.71" cy="637.537" r="14.4" fill="#009af9" fill-rule="evenodd" fill-opacity="1" stroke="none"/>
<circle clip-path="url(#clip972)" cx="1374.12" cy="605.21" r="14.4" fill="#009af9" fill-rule="evenodd" fill-opacity="1" stroke="none"/>
<circle clip-path="url(#clip972)" cx="1486.77" cy="1348.73" r="14.4" fill="#009af9" fill-rule="evenodd" fill-opacity="1" stroke="none"/>
<circle clip-path="url(#clip972)" cx="955.695" cy="799.173" r="14.4" fill="#009af9" fill-rule="evenodd" fill-opacity="1" stroke="none"/>
<circle clip-path="url(#clip972)" cx="810.856" cy="1025.46" r="14.4" fill="#009af9" fill-rule="evenodd" fill-opacity="1" stroke="none"/>
<circle clip-path="url(#clip972)" cx="2082.23" cy="1337.96" r="14.4" fill="#009af9" fill-rule="evenodd" fill-opacity="1" stroke="none"/>
<circle clip-path="url(#clip972)" cx="1679.89" cy="1047.01" r="14.4" fill="#009af9" fill-rule="evenodd" fill-opacity="1" stroke="none"/>
<circle clip-path="url(#clip972)" cx="633.829" cy="842.276" r="14.4" fill="#009af9" fill-rule="evenodd" fill-opacity="1" stroke="none"/>
<circle clip-path="url(#clip972)" cx="2033.95" cy="1413.39" r="14.4" fill="#009af9" fill-rule="evenodd" fill-opacity="1" stroke="none"/>
<circle clip-path="url(#clip972)" cx="730.389" cy="691.416" r="14.4" fill="#009af9" fill-rule="evenodd" fill-opacity="1" stroke="none"/>
<circle clip-path="url(#clip972)" cx="1873.01" cy="745.295" r="14.4" fill="#009af9" fill-rule="evenodd" fill-opacity="1" stroke="none"/>
<circle clip-path="url(#clip972)" cx="311.963" cy="885.379" r="14.4" fill="#009af9" fill-rule="evenodd" fill-opacity="1" stroke="none"/>
<circle clip-path="url(#clip972)" cx="1197.1" cy="422.023" r="14.4" fill="#009af9" fill-rule="evenodd" fill-opacity="1" stroke="none"/>
<circle clip-path="url(#clip972)" cx="1438.49" cy="1424.16" r="14.4" fill="#009af9" fill-rule="evenodd" fill-opacity="1" stroke="none"/>
<circle clip-path="url(#clip972)" cx="2066.13" cy="443.575" r="14.4" fill="#009af9" fill-rule="evenodd" fill-opacity="1" stroke="none"/>
<circle clip-path="url(#clip972)" cx="2050.04" cy="928.482" r="14.4" fill="#009af9" fill-rule="evenodd" fill-opacity="1" stroke="none"/>
<circle clip-path="url(#clip972)" cx="360.243" cy="809.949" r="14.4" fill="#009af9" fill-rule="evenodd" fill-opacity="1" stroke="none"/>
<circle clip-path="url(#clip972)" cx="2146.6" cy="777.622" r="14.4" fill="#009af9" fill-rule="evenodd" fill-opacity="1" stroke="none"/>
<circle clip-path="url(#clip972)" cx="2259.25" cy="141.855" r="14.4" fill="#009af9" fill-rule="evenodd" fill-opacity="1" stroke="none"/>
<circle clip-path="url(#clip972)" cx="1728.17" cy="971.584" r="14.4" fill="#009af9" fill-rule="evenodd" fill-opacity="1" stroke="none"/>
<circle clip-path="url(#clip972)" cx="1583.33" cy="1197.87" r="14.4" fill="#009af9" fill-rule="evenodd" fill-opacity="1" stroke="none"/>
<circle clip-path="url(#clip972)" cx="794.762" cy="131.079" r="14.4" fill="#009af9" fill-rule="evenodd" fill-opacity="1" stroke="none"/>
<circle clip-path="url(#clip972)" cx="392.429" cy="1219.43" r="14.4" fill="#009af9" fill-rule="evenodd" fill-opacity="1" stroke="none"/>
<circle clip-path="url(#clip972)" cx="1406.31" cy="1014.69" r="14.4" fill="#009af9" fill-rule="evenodd" fill-opacity="1" stroke="none"/>
<circle clip-path="url(#clip972)" cx="746.482" cy="206.509" r="14.4" fill="#009af9" fill-rule="evenodd" fill-opacity="1" stroke="none"/>
<circle clip-path="url(#clip972)" cx="1502.87" cy="863.827" r="14.4" fill="#009af9" fill-rule="evenodd" fill-opacity="1" stroke="none"/>
<circle clip-path="url(#clip972)" cx="585.549" cy="917.706" r="14.4" fill="#009af9" fill-rule="evenodd" fill-opacity="1" stroke="none"/>
<circle clip-path="url(#clip972)" cx="1084.44" cy="1057.79" r="14.4" fill="#009af9" fill-rule="evenodd" fill-opacity="1" stroke="none"/>
<circle clip-path="url(#clip972)" cx="1969.57" cy="594.435" r="14.4" fill="#009af9" fill-rule="evenodd" fill-opacity="1" stroke="none"/>
<circle clip-path="url(#clip972)" cx="2210.97" cy="217.285" r="14.4" fill="#009af9" fill-rule="evenodd" fill-opacity="1" stroke="none"/>
<circle clip-path="url(#clip972)" cx="778.669" cy="615.986" r="14.4" fill="#009af9" fill-rule="evenodd" fill-opacity="1" stroke="none"/>
<circle clip-path="url(#clip972)" cx="762.576" cy="1100.89" r="14.4" fill="#009af9" fill-rule="evenodd" fill-opacity="1" stroke="none"/>
<circle clip-path="url(#clip972)" cx="1132.72" cy="982.36" r="14.4" fill="#009af9" fill-rule="evenodd" fill-opacity="1" stroke="none"/>
<circle clip-path="url(#clip972)" cx="859.135" cy="950.033" r="14.4" fill="#009af9" fill-rule="evenodd" fill-opacity="1" stroke="none"/>
<circle clip-path="url(#clip972)" cx="971.789" cy="314.266" r="14.4" fill="#009af9" fill-rule="evenodd" fill-opacity="1" stroke="none"/>
<circle clip-path="url(#clip972)" cx="440.709" cy="1144" r="14.4" fill="#009af9" fill-rule="evenodd" fill-opacity="1" stroke="none"/>
<circle clip-path="url(#clip972)" cx="295.869" cy="1370.29" r="14.4" fill="#009af9" fill-rule="evenodd" fill-opacity="1" stroke="none"/>
<circle clip-path="url(#clip972)" cx="1567.24" cy="303.49" r="14.4" fill="#009af9" fill-rule="evenodd" fill-opacity="1" stroke="none"/>
<circle clip-path="url(#clip972)" cx="1164.91" cy="1391.84" r="14.4" fill="#009af9" fill-rule="evenodd" fill-opacity="1" stroke="none"/>
<circle clip-path="url(#clip972)" cx="2178.79" cy="1187.1" r="14.4" fill="#009af9" fill-rule="evenodd" fill-opacity="1" stroke="none"/>
<circle clip-path="url(#clip972)" cx="1518.96" cy="378.92" r="14.4" fill="#009af9" fill-rule="evenodd" fill-opacity="1" stroke="none"/>
<circle clip-path="url(#clip972)" cx="2275.35" cy="1036.24" r="14.4" fill="#009af9" fill-rule="evenodd" fill-opacity="1" stroke="none"/>
<circle clip-path="url(#clip972)" cx="1358.03" cy="1090.12" r="14.4" fill="#009af9" fill-rule="evenodd" fill-opacity="1" stroke="none"/>
<circle clip-path="url(#clip972)" cx="1856.92" cy="1230.2" r="14.4" fill="#009af9" fill-rule="evenodd" fill-opacity="1" stroke="none"/>
<circle clip-path="url(#clip972)" cx="682.109" cy="766.846" r="14.4" fill="#009af9" fill-rule="evenodd" fill-opacity="1" stroke="none"/>
<circle clip-path="url(#clip972)" cx="923.509" cy="389.696" r="14.4" fill="#009af9" fill-rule="evenodd" fill-opacity="1" stroke="none"/>
<circle clip-path="url(#clip972)" cx="1551.15" cy="788.397" r="14.4" fill="#009af9" fill-rule="evenodd" fill-opacity="1" stroke="none"/>
<circle clip-path="url(#clip972)" cx="1535.05" cy="1273.3" r="14.4" fill="#009af9" fill-rule="evenodd" fill-opacity="1" stroke="none"/>
<circle clip-path="url(#clip972)" cx="1905.2" cy="1154.77" r="14.4" fill="#009af9" fill-rule="evenodd" fill-opacity="1" stroke="none"/>
<circle clip-path="url(#clip972)" cx="1631.61" cy="1122.44" r="14.4" fill="#009af9" fill-rule="evenodd" fill-opacity="1" stroke="none"/>
<circle clip-path="url(#clip972)" cx="1744.27" cy="486.678" r="14.4" fill="#009af9" fill-rule="evenodd" fill-opacity="1" stroke="none"/>
<circle clip-path="url(#clip972)" cx="1213.19" cy="1316.41" r="14.4" fill="#009af9" fill-rule="evenodd" fill-opacity="1" stroke="none"/>
<circle clip-path="url(#clip972)" cx="1068.35" cy="163.406" r="14.4" fill="#009af9" fill-rule="evenodd" fill-opacity="1" stroke="none"/>
<circle clip-path="url(#clip972)" cx="279.776" cy="475.902" r="14.4" fill="#009af9" fill-rule="evenodd" fill-opacity="1" stroke="none"/>
<circle clip-path="url(#clip972)" cx="1937.39" cy="184.958" r="14.4" fill="#009af9" fill-rule="evenodd" fill-opacity="1" stroke="none"/>
<circle clip-path="url(#clip972)" cx="891.322" cy="1359.51" r="14.4" fill="#009af9" fill-rule="evenodd" fill-opacity="1" stroke="none"/>
<circle clip-path="url(#clip972)" cx="2291.44" cy="551.332" r="14.4" fill="#009af9" fill-rule="evenodd" fill-opacity="1" stroke="none"/>
<circle clip-path="url(#clip972)" cx="987.882" cy="1208.65" r="14.4" fill="#009af9" fill-rule="evenodd" fill-opacity="1" stroke="none"/>
<circle clip-path="url(#clip972)" cx="2130.51" cy="1262.53" r="14.4" fill="#009af9" fill-rule="evenodd" fill-opacity="1" stroke="none"/>
<circle clip-path="url(#clip972)" cx="569.456" cy="1402.61" r="14.4" fill="#009af9" fill-rule="evenodd" fill-opacity="1" stroke="none"/>
<circle clip-path="url(#clip972)" cx="1454.59" cy="939.257" r="14.4" fill="#009af9" fill-rule="evenodd" fill-opacity="1" stroke="none"/>
<circle clip-path="url(#clip972)" cx="1695.99" cy="562.108" r="14.4" fill="#009af9" fill-rule="evenodd" fill-opacity="1" stroke="none"/>
<circle clip-path="url(#clip972)" cx="263.683" cy="960.809" r="14.4" fill="#009af9" fill-rule="evenodd" fill-opacity="1" stroke="none"/>
<circle clip-path="url(#clip972)" cx="247.59" cy="1445.72" r="14.4" fill="#009af9" fill-rule="evenodd" fill-opacity="1" stroke="none"/>
<circle clip-path="url(#clip972)" cx="617.736" cy="1327.18" r="14.4" fill="#009af9" fill-rule="evenodd" fill-opacity="1" stroke="none"/>
<circle clip-path="url(#clip972)" cx="344.149" cy="1294.86" r="14.4" fill="#009af9" fill-rule="evenodd" fill-opacity="1" stroke="none"/>
<circle clip-path="url(#clip972)" cx="456.803" cy="659.089" r="14.4" fill="#009af9" fill-rule="evenodd" fill-opacity="1" stroke="none"/>
<circle clip-path="url(#clip972)" cx="1985.67" cy="109.528" r="14.4" fill="#009af9" fill-rule="evenodd" fill-opacity="1" stroke="none"/>
<circle clip-path="url(#clip972)" cx="1840.83" cy="335.818" r="14.4" fill="#009af9" fill-rule="evenodd" fill-opacity="1" stroke="none"/>
<circle clip-path="url(#clip972)" cx="1052.26" cy="648.313" r="14.4" fill="#009af9" fill-rule="evenodd" fill-opacity="1" stroke="none"/>
<circle clip-path="url(#clip972)" cx="649.922" cy="357.369" r="14.4" fill="#009af9" fill-rule="evenodd" fill-opacity="1" stroke="none"/>
<circle clip-path="url(#clip972)" cx="1663.8" cy="152.631" r="14.4" fill="#009af9" fill-rule="evenodd" fill-opacity="1" stroke="none"/>
<circle clip-path="url(#clip972)" cx="1003.98" cy="723.743" r="14.4" fill="#009af9" fill-rule="evenodd" fill-opacity="1" stroke="none"/>
<circle clip-path="url(#clip972)" cx="1760.36" cy="1381.06" r="14.4" fill="#009af9" fill-rule="evenodd" fill-opacity="1" stroke="none"/>
<circle clip-path="url(#clip972)" cx="843.042" cy="1434.94" r="14.4" fill="#009af9" fill-rule="evenodd" fill-opacity="1" stroke="none"/>
<circle clip-path="url(#clip972)" cx="1341.93" cy="195.733" r="14.4" fill="#009af9" fill-rule="evenodd" fill-opacity="1" stroke="none"/>
<circle clip-path="url(#clip972)" cx="2227.07" cy="1111.67" r="14.4" fill="#009af9" fill-rule="evenodd" fill-opacity="1" stroke="none"/>
<circle clip-path="url(#clip972)" cx="408.523" cy="734.519" r="14.4" fill="#009af9" fill-rule="evenodd" fill-opacity="1" stroke="none"/>
<circle clip-path="url(#clip972)" cx="1036.16" cy="1133.22" r="14.4" fill="#009af9" fill-rule="evenodd" fill-opacity="1" stroke="none"/>
<circle clip-path="url(#clip972)" cx="1020.07" cy="238.836" r="14.4" fill="#009af9" fill-rule="evenodd" fill-opacity="1" stroke="none"/>
<circle clip-path="url(#clip972)" cx="1390.21" cy="120.303" r="14.4" fill="#009af9" fill-rule="evenodd" fill-opacity="1" stroke="none"/>
<circle clip-path="url(#clip972)" cx="1116.63" cy="87.9763" r="14.4" fill="#009af9" fill-rule="evenodd" fill-opacity="1" stroke="none"/>
<circle clip-path="url(#clip972)" cx="1229.28" cy="831.5" r="14.4" fill="#009af9" fill-rule="evenodd" fill-opacity="1" stroke="none"/>
<circle clip-path="url(#clip972)" cx="698.202" cy="281.939" r="14.4" fill="#009af9" fill-rule="evenodd" fill-opacity="1" stroke="none"/>
<circle clip-path="url(#clip972)" cx="553.362" cy="508.229" r="14.4" fill="#009af9" fill-rule="evenodd" fill-opacity="1" stroke="none"/>
<circle clip-path="url(#clip972)" cx="1824.73" cy="820.725" r="14.4" fill="#009af9" fill-rule="evenodd" fill-opacity="1" stroke="none"/>
<circle clip-path="url(#clip972)" cx="1422.4" cy="529.78" r="14.4" fill="#009af9" fill-rule="evenodd" fill-opacity="1" stroke="none"/>
<circle clip-path="url(#clip972)" cx="376.336" cy="325.042" r="14.4" fill="#009af9" fill-rule="evenodd" fill-opacity="1" stroke="none"/>
<circle clip-path="url(#clip972)" cx="1776.45" cy="896.154" r="14.4" fill="#009af9" fill-rule="evenodd" fill-opacity="1" stroke="none"/>
<circle clip-path="url(#clip972)" cx="472.896" cy="174.182" r="14.4" fill="#009af9" fill-rule="evenodd" fill-opacity="1" stroke="none"/>
<circle clip-path="url(#clip972)" cx="1615.52" cy="228.061" r="14.4" fill="#009af9" fill-rule="evenodd" fill-opacity="1" stroke="none"/>
<circle clip-path="url(#clip972)" cx="2114.41" cy="368.145" r="14.4" fill="#009af9" fill-rule="evenodd" fill-opacity="1" stroke="none"/>
<circle clip-path="url(#clip972)" cx="939.602" cy="1284.08" r="14.4" fill="#009af9" fill-rule="evenodd" fill-opacity="1" stroke="none"/>
<circle clip-path="url(#clip972)" cx="1181" cy="906.93" r="14.4" fill="#009af9" fill-rule="evenodd" fill-opacity="1" stroke="none"/>
<circle clip-path="url(#clip972)" cx="1808.64" cy="1305.63" r="14.4" fill="#009af9" fill-rule="evenodd" fill-opacity="1" stroke="none"/>
<circle clip-path="url(#clip972)" cx="1792.55" cy="411.248" r="14.4" fill="#009af9" fill-rule="evenodd" fill-opacity="1" stroke="none"/>
<circle clip-path="url(#clip972)" cx="2162.69" cy="292.715" r="14.4" fill="#009af9" fill-rule="evenodd" fill-opacity="1" stroke="none"/>
<circle clip-path="url(#clip972)" cx="1889.11" cy="260.388" r="14.4" fill="#009af9" fill-rule="evenodd" fill-opacity="1" stroke="none"/>
<circle clip-path="url(#clip972)" cx="2001.76" cy="1003.91" r="14.4" fill="#009af9" fill-rule="evenodd" fill-opacity="1" stroke="none"/>
<circle clip-path="url(#clip972)" cx="1470.68" cy="454.35" r="14.4" fill="#009af9" fill-rule="evenodd" fill-opacity="1" stroke="none"/>
</svg>
