<?xml version="1.0" encoding="utf-8"?>
<svg xmlns="http://www.w3.org/2000/svg" xmlns:xlink="http://www.w3.org/1999/xlink" width="600" height="400" viewBox="0 0 2400 1600">
<defs>
  <clipPath id="clip380">
    <rect x="0" y="0" width="2400" height="1600"/>
  </clipPath>
</defs>
<path clip-path="url(#clip380)" d="M0 1600 L2400 1600 L2400 8.88178e-14 L0 8.88178e-14  Z" fill="#ffffff" fill-rule="evenodd" fill-opacity="1"/>
<defs>
  <clipPath id="clip381">
    <rect x="480" y="0" width="1681" height="1600"/>
  </clipPath>
</defs>
<path clip-path="url(#clip380)" d="M305.345 1486.45 L2352.76 1486.45 L2352.76 47.2441 L305.345 47.2441  Z" fill="#eaeaea" fill-rule="evenodd" fill-opacity="1"/>
<defs>
  <clipPath id="clip382">
    <rect x="305" y="47" width="2048" height="1440"/>
  </clipPath>
</defs>
<polyline clip-path="url(#clip382)" style="stroke:#ffffff; stroke-linecap:round; stroke-linejoin:round; stroke-width:4; stroke-opacity:1; fill:none" points="343.78,1486.45 343.78,47.2441 "/>
<polyline clip-path="url(#clip382)" style="stroke:#ffffff; stroke-linecap:round; stroke-linejoin:round; stroke-width:4; stroke-opacity:1; fill:none" points="831.537,1486.45 831.537,47.2441 "/>
<polyline clip-path="url(#clip382)" style="stroke:#ffffff; stroke-linecap:round; stroke-linejoin:round; stroke-width:4; stroke-opacity:1; fill:none" points="1319.3,1486.45 1319.3,47.2441 "/>
<polyline clip-path="url(#clip382)" style="stroke:#ffffff; stroke-linecap:round; stroke-linejoin:round; stroke-width:4; stroke-opacity:1; fill:none" points="1807.05,1486.45 1807.05,47.2441 "/>
<polyline clip-path="url(#clip382)" style="stroke:#ffffff; stroke-linecap:round; stroke-linejoin:round; stroke-width:4; stroke-opacity:1; fill:none" points="2294.81,1486.45 2294.81,47.2441 "/>
<polyline clip-path="url(#clip382)" style="stroke:#ffffff; stroke-linecap:round; stroke-linejoin:round; stroke-width:2; stroke-opacity:1; fill:none" points="587.659,1486.45 587.659,47.2441 "/>
<polyline clip-path="url(#clip382)" style="stroke:#ffffff; stroke-linecap:round; stroke-linejoin:round; stroke-width:2; stroke-opacity:1; fill:none" points="1075.42,1486.45 1075.42,47.2441 "/>
<polyline clip-path="url(#clip382)" style="stroke:#ffffff; stroke-linecap:round; stroke-linejoin:round; stroke-width:2; stroke-opacity:1; fill:none" points="1563.17,1486.45 1563.17,47.2441 "/>
<polyline clip-path="url(#clip382)" style="stroke:#ffffff; stroke-linecap:round; stroke-linejoin:round; stroke-width:2; stroke-opacity:1; fill:none" points="2050.93,1486.45 2050.93,47.2441 "/>
<polyline clip-path="url(#clip380)" style="stroke:#ffffff; stroke-linecap:round; stroke-linejoin:round; stroke-width:4; stroke-opacity:1; fill:none" points="305.345,1486.45 2352.76,1486.45 "/>
<polyline clip-path="url(#clip380)" style="stroke:#333333; stroke-linecap:round; stroke-linejoin:round; stroke-width:4; stroke-opacity:1; fill:none" points="343.78,1486.45 343.78,1505.35 "/>
<polyline clip-path="url(#clip380)" style="stroke:#333333; stroke-linecap:round; stroke-linejoin:round; stroke-width:4; stroke-opacity:1; fill:none" points="831.537,1486.45 831.537,1505.35 "/>
<polyline clip-path="url(#clip380)" style="stroke:#333333; stroke-linecap:round; stroke-linejoin:round; stroke-width:4; stroke-opacity:1; fill:none" points="1319.3,1486.45 1319.3,1505.35 "/>
<polyline clip-path="url(#clip380)" style="stroke:#333333; stroke-linecap:round; stroke-linejoin:round; stroke-width:4; stroke-opacity:1; fill:none" points="1807.05,1486.45 1807.05,1505.35 "/>
<polyline clip-path="url(#clip380)" style="stroke:#333333; stroke-linecap:round; stroke-linejoin:round; stroke-width:4; stroke-opacity:1; fill:none" points="2294.81,1486.45 2294.81,1505.35 "/>
<polyline clip-path="url(#clip380)" style="stroke:#333333; stroke-linecap:round; stroke-linejoin:round; stroke-width:4; stroke-opacity:1; fill:none" points="587.659,1486.45 587.659,1495.9 "/>
<polyline clip-path="url(#clip380)" style="stroke:#333333; stroke-linecap:round; stroke-linejoin:round; stroke-width:4; stroke-opacity:1; fill:none" points="1075.42,1486.45 1075.42,1495.9 "/>
<polyline clip-path="url(#clip380)" style="stroke:#333333; stroke-linecap:round; stroke-linejoin:round; stroke-width:4; stroke-opacity:1; fill:none" points="1563.17,1486.45 1563.17,1495.9 "/>
<polyline clip-path="url(#clip380)" style="stroke:#333333; stroke-linecap:round; stroke-linejoin:round; stroke-width:4; stroke-opacity:1; fill:none" points="2050.93,1486.45 2050.93,1495.9 "/>
<path clip-path="url(#clip380)" d="M343.78 1526.97 Q340.169 1526.97 338.34 1530.53 Q336.535 1534.07 336.535 1541.2 Q336.535 1548.31 338.34 1551.87 Q340.169 1555.42 343.78 1555.42 Q347.414 1555.42 349.22 1551.87 Q351.048 1548.31 351.048 1541.2 Q351.048 1534.07 349.22 1530.53 Q347.414 1526.97 343.78 1526.97 M343.78 1523.26 Q349.59 1523.26 352.646 1527.87 Q355.724 1532.45 355.724 1541.2 Q355.724 1549.93 352.646 1554.54 Q349.59 1559.12 343.78 1559.12 Q337.97 1559.12 334.891 1554.54 Q331.835 1549.93 331.835 1541.2 Q331.835 1532.45 334.891 1527.87 Q337.97 1523.26 343.78 1523.26 Z" fill="#4c4c4c" fill-rule="nonzero" fill-opacity="1" /><path clip-path="url(#clip380)" d="M810.808 1554.51 L827.128 1554.51 L827.128 1558.45 L805.183 1558.45 L805.183 1554.51 Q807.845 1551.76 812.429 1547.13 Q817.035 1542.48 818.216 1541.13 Q820.461 1538.61 821.341 1536.87 Q822.244 1535.11 822.244 1533.42 Q822.244 1530.67 820.299 1528.93 Q818.378 1527.2 815.276 1527.2 Q813.077 1527.2 810.623 1527.96 Q808.193 1528.73 805.415 1530.28 L805.415 1525.55 Q808.239 1524.42 810.693 1523.84 Q813.146 1523.26 815.183 1523.26 Q820.554 1523.26 823.748 1525.95 Q826.943 1528.63 826.943 1533.12 Q826.943 1535.25 826.132 1537.17 Q825.345 1539.07 823.239 1541.67 Q822.66 1542.34 819.558 1545.55 Q816.457 1548.75 810.808 1554.51 Z" fill="#4c4c4c" fill-rule="nonzero" fill-opacity="1" /><path clip-path="url(#clip380)" d="M836.989 1523.89 L855.345 1523.89 L855.345 1527.82 L841.271 1527.82 L841.271 1536.3 Q842.29 1535.95 843.308 1535.79 Q844.327 1535.6 845.345 1535.6 Q851.132 1535.6 854.512 1538.77 Q857.891 1541.94 857.891 1547.36 Q857.891 1552.94 854.419 1556.04 Q850.947 1559.12 844.628 1559.12 Q842.452 1559.12 840.183 1558.75 Q837.938 1558.38 835.53 1557.64 L835.53 1552.94 Q837.614 1554.07 839.836 1554.63 Q842.058 1555.18 844.535 1555.18 Q848.54 1555.18 850.878 1553.08 Q853.216 1550.97 853.216 1547.36 Q853.216 1543.75 850.878 1541.64 Q848.54 1539.54 844.535 1539.54 Q842.66 1539.54 840.785 1539.95 Q838.933 1540.37 836.989 1541.25 L836.989 1523.89 Z" fill="#4c4c4c" fill-rule="nonzero" fill-opacity="1" /><path clip-path="url(#clip380)" d="M1293.99 1523.89 L1312.35 1523.89 L1312.35 1527.82 L1298.28 1527.82 L1298.28 1536.3 Q1299.3 1535.95 1300.31 1535.79 Q1301.33 1535.6 1302.35 1535.6 Q1308.14 1535.6 1311.52 1538.77 Q1314.9 1541.94 1314.9 1547.36 Q1314.9 1552.94 1311.42 1556.04 Q1307.95 1559.12 1301.63 1559.12 Q1299.46 1559.12 1297.19 1558.75 Q1294.94 1558.38 1292.54 1557.64 L1292.54 1552.94 Q1294.62 1554.07 1296.84 1554.63 Q1299.06 1555.18 1301.54 1555.18 Q1305.55 1555.18 1307.88 1553.08 Q1310.22 1550.97 1310.22 1547.36 Q1310.22 1543.75 1307.88 1541.64 Q1305.55 1539.54 1301.54 1539.54 Q1299.67 1539.54 1297.79 1539.95 Q1295.94 1540.37 1293.99 1541.25 L1293.99 1523.89 Z" fill="#4c4c4c" fill-rule="nonzero" fill-opacity="1" /><path clip-path="url(#clip380)" d="M1334.11 1526.97 Q1330.5 1526.97 1328.67 1530.53 Q1326.86 1534.07 1326.86 1541.2 Q1326.86 1548.31 1328.67 1551.87 Q1330.5 1555.42 1334.11 1555.42 Q1337.74 1555.42 1339.55 1551.87 Q1341.38 1548.31 1341.38 1541.2 Q1341.38 1534.07 1339.55 1530.53 Q1337.74 1526.97 1334.11 1526.97 M1334.11 1523.26 Q1339.92 1523.26 1342.98 1527.87 Q1346.05 1532.45 1346.05 1541.2 Q1346.05 1549.93 1342.98 1554.54 Q1339.92 1559.12 1334.11 1559.12 Q1328.3 1559.12 1325.22 1554.54 Q1322.17 1549.93 1322.17 1541.2 Q1322.17 1532.45 1325.22 1527.87 Q1328.3 1523.26 1334.11 1523.26 Z" fill="#4c4c4c" fill-rule="nonzero" fill-opacity="1" /><path clip-path="url(#clip380)" d="M1780.91 1523.89 L1803.13 1523.89 L1803.13 1525.88 L1790.58 1558.45 L1785.7 1558.45 L1797.5 1527.82 L1780.91 1527.82 L1780.91 1523.89 Z" fill="#4c4c4c" fill-rule="nonzero" fill-opacity="1" /><path clip-path="url(#clip380)" d="M1812.3 1523.89 L1830.65 1523.89 L1830.65 1527.82 L1816.58 1527.82 L1816.58 1536.3 Q1817.6 1535.95 1818.62 1535.79 Q1819.63 1535.6 1820.65 1535.6 Q1826.44 1535.6 1829.82 1538.77 Q1833.2 1541.94 1833.2 1547.36 Q1833.2 1552.94 1829.73 1556.04 Q1826.25 1559.12 1819.93 1559.12 Q1817.76 1559.12 1815.49 1558.75 Q1813.24 1558.38 1810.84 1557.64 L1810.84 1552.94 Q1812.92 1554.07 1815.14 1554.63 Q1817.37 1555.18 1819.84 1555.18 Q1823.85 1555.18 1826.18 1553.08 Q1828.52 1550.97 1828.52 1547.36 Q1828.52 1543.75 1826.18 1541.64 Q1823.85 1539.54 1819.84 1539.54 Q1817.97 1539.54 1816.09 1539.95 Q1814.24 1540.37 1812.3 1541.25 L1812.3 1523.89 Z" fill="#4c4c4c" fill-rule="nonzero" fill-opacity="1" /><path clip-path="url(#clip380)" d="M2254.42 1554.51 L2262.06 1554.51 L2262.06 1528.15 L2253.75 1529.81 L2253.75 1525.55 L2262.01 1523.89 L2266.69 1523.89 L2266.69 1554.51 L2274.32 1554.51 L2274.32 1558.45 L2254.42 1558.45 L2254.42 1554.51 Z" fill="#4c4c4c" fill-rule="nonzero" fill-opacity="1" /><path clip-path="url(#clip380)" d="M2293.77 1526.97 Q2290.16 1526.97 2288.33 1530.53 Q2286.52 1534.07 2286.52 1541.2 Q2286.52 1548.31 2288.33 1551.87 Q2290.16 1555.42 2293.77 1555.42 Q2297.4 1555.42 2299.21 1551.87 Q2301.04 1548.31 2301.04 1541.2 Q2301.04 1534.07 2299.21 1530.53 Q2297.4 1526.97 2293.77 1526.97 M2293.77 1523.26 Q2299.58 1523.26 2302.63 1527.87 Q2305.71 1532.45 2305.71 1541.2 Q2305.71 1549.93 2302.63 1554.54 Q2299.58 1559.12 2293.77 1559.12 Q2287.96 1559.12 2284.88 1554.54 Q2281.82 1549.93 2281.82 1541.2 Q2281.82 1532.45 2284.88 1527.87 Q2287.96 1523.26 2293.77 1523.26 Z" fill="#4c4c4c" fill-rule="nonzero" fill-opacity="1" /><path clip-path="url(#clip380)" d="M2323.93 1526.97 Q2320.32 1526.97 2318.49 1530.53 Q2316.69 1534.07 2316.69 1541.2 Q2316.69 1548.31 2318.49 1551.87 Q2320.32 1555.42 2323.93 1555.42 Q2327.56 1555.42 2329.37 1551.87 Q2331.2 1548.31 2331.2 1541.2 Q2331.2 1534.07 2329.37 1530.53 Q2327.56 1526.97 2323.93 1526.97 M2323.93 1523.26 Q2329.74 1523.26 2332.8 1527.87 Q2335.87 1532.45 2335.87 1541.2 Q2335.87 1549.93 2332.8 1554.54 Q2329.74 1559.12 2323.93 1559.12 Q2318.12 1559.12 2315.04 1554.54 Q2311.99 1549.93 2311.99 1541.2 Q2311.99 1532.45 2315.04 1527.87 Q2318.12 1523.26 2323.93 1523.26 Z" fill="#4c4c4c" fill-rule="nonzero" fill-opacity="1" /><polyline clip-path="url(#clip382)" style="stroke:#ffffff; stroke-linecap:round; stroke-linejoin:round; stroke-width:4; stroke-opacity:1; fill:none" points="305.345,1445.75 2352.76,1445.75 "/>
<polyline clip-path="url(#clip382)" style="stroke:#ffffff; stroke-linecap:round; stroke-linejoin:round; stroke-width:4; stroke-opacity:1; fill:none" points="305.345,1128.05 2352.76,1128.05 "/>
<polyline clip-path="url(#clip382)" style="stroke:#ffffff; stroke-linecap:round; stroke-linejoin:round; stroke-width:4; stroke-opacity:1; fill:none" points="305.345,810.362 2352.76,810.362 "/>
<polyline clip-path="url(#clip382)" style="stroke:#ffffff; stroke-linecap:round; stroke-linejoin:round; stroke-width:4; stroke-opacity:1; fill:none" points="305.345,492.67 2352.76,492.67 "/>
<polyline clip-path="url(#clip382)" style="stroke:#ffffff; stroke-linecap:round; stroke-linejoin:round; stroke-width:4; stroke-opacity:1; fill:none" points="305.345,174.978 2352.76,174.978 "/>
<polyline clip-path="url(#clip382)" style="stroke:#ffffff; stroke-linecap:round; stroke-linejoin:round; stroke-width:2; stroke-opacity:1; fill:none" points="305.345,1286.9 2352.76,1286.9 "/>
<polyline clip-path="url(#clip382)" style="stroke:#ffffff; stroke-linecap:round; stroke-linejoin:round; stroke-width:2; stroke-opacity:1; fill:none" points="305.345,969.208 2352.76,969.208 "/>
<polyline clip-path="url(#clip382)" style="stroke:#ffffff; stroke-linecap:round; stroke-linejoin:round; stroke-width:2; stroke-opacity:1; fill:none" points="305.345,651.516 2352.76,651.516 "/>
<polyline clip-path="url(#clip382)" style="stroke:#ffffff; stroke-linecap:round; stroke-linejoin:round; stroke-width:2; stroke-opacity:1; fill:none" points="305.345,333.824 2352.76,333.824 "/>
<polyline clip-path="url(#clip380)" style="stroke:#ffffff; stroke-linecap:round; stroke-linejoin:round; stroke-width:4; stroke-opacity:1; fill:none" points="305.345,1486.45 305.345,47.2441 "/>
<polyline clip-path="url(#clip380)" style="stroke:#333333; stroke-linecap:round; stroke-linejoin:round; stroke-width:4; stroke-opacity:1; fill:none" points="305.345,1445.75 286.447,1445.75 "/>
<polyline clip-path="url(#clip380)" style="stroke:#333333; stroke-linecap:round; stroke-linejoin:round; stroke-width:4; stroke-opacity:1; fill:none" points="305.345,1128.05 286.447,1128.05 "/>
<polyline clip-path="url(#clip380)" style="stroke:#333333; stroke-linecap:round; stroke-linejoin:round; stroke-width:4; stroke-opacity:1; fill:none" points="305.345,810.362 286.447,810.362 "/>
<polyline clip-path="url(#clip380)" style="stroke:#333333; stroke-linecap:round; stroke-linejoin:round; stroke-width:4; stroke-opacity:1; fill:none" points="305.345,492.67 286.447,492.67 "/>
<polyline clip-path="url(#clip380)" style="stroke:#333333; stroke-linecap:round; stroke-linejoin:round; stroke-width:4; stroke-opacity:1; fill:none" points="305.345,174.978 286.447,174.978 "/>
<polyline clip-path="url(#clip380)" style="stroke:#333333; stroke-linecap:round; stroke-linejoin:round; stroke-width:4; stroke-opacity:1; fill:none" points="305.345,1286.9 295.896,1286.9 "/>
<polyline clip-path="url(#clip380)" style="stroke:#333333; stroke-linecap:round; stroke-linejoin:round; stroke-width:4; stroke-opacity:1; fill:none" points="305.345,969.208 295.896,969.208 "/>
<polyline clip-path="url(#clip380)" style="stroke:#333333; stroke-linecap:round; stroke-linejoin:round; stroke-width:4; stroke-opacity:1; fill:none" points="305.345,651.516 295.896,651.516 "/>
<polyline clip-path="url(#clip380)" style="stroke:#333333; stroke-linecap:round; stroke-linejoin:round; stroke-width:4; stroke-opacity:1; fill:none" points="305.345,333.824 295.896,333.824 "/>
<path clip-path="url(#clip380)" d="M239.4 1431.55 Q235.789 1431.55 233.96 1435.11 Q232.155 1438.65 232.155 1445.78 Q232.155 1452.89 233.96 1456.45 Q235.789 1459.99 239.4 1459.99 Q243.034 1459.99 244.84 1456.45 Q246.669 1452.89 246.669 1445.78 Q246.669 1438.65 244.84 1435.11 Q243.034 1431.55 239.4 1431.55 M239.4 1427.84 Q245.21 1427.84 248.266 1432.45 Q251.345 1437.03 251.345 1445.78 Q251.345 1454.51 248.266 1459.11 Q245.21 1463.7 239.4 1463.7 Q233.59 1463.7 230.511 1459.11 Q227.456 1454.51 227.456 1445.78 Q227.456 1437.03 230.511 1432.45 Q233.59 1427.84 239.4 1427.84 Z" fill="#4c4c4c" fill-rule="nonzero" fill-opacity="1" /><path clip-path="url(#clip380)" d="M34.7485 1117.22 L53.1049 1117.22 L53.1049 1121.16 L39.0309 1121.16 L39.0309 1129.63 Q40.0494 1129.28 41.0679 1129.12 Q42.0864 1128.93 43.1049 1128.93 Q48.8919 1128.93 52.2715 1132.11 Q55.6511 1135.28 55.6511 1140.69 Q55.6511 1146.27 52.1789 1149.37 Q48.7067 1152.45 42.3873 1152.45 Q40.2114 1152.45 37.9429 1152.08 Q35.6976 1151.71 33.2902 1150.97 L33.2902 1146.27 Q35.3735 1147.41 37.5957 1147.96 Q39.8179 1148.52 42.2947 1148.52 Q46.2993 1148.52 48.6373 1146.41 Q50.9752 1144.31 50.9752 1140.69 Q50.9752 1137.08 48.6373 1134.98 Q46.2993 1132.87 42.2947 1132.87 Q40.4197 1132.87 38.5448 1133.29 Q36.6929 1133.7 34.7485 1134.58 L34.7485 1117.22 Z" fill="#4c4c4c" fill-rule="nonzero" fill-opacity="1" /><path clip-path="url(#clip380)" d="M64.8641 1145.9 L69.7483 1145.9 L69.7483 1151.78 L64.8641 1151.78 L64.8641 1145.9 Z" fill="#4c4c4c" fill-rule="nonzero" fill-opacity="1" /><path clip-path="url(#clip380)" d="M89.9334 1120.3 Q86.3223 1120.3 84.4936 1123.87 Q82.688 1127.41 82.688 1134.54 Q82.688 1141.64 84.4936 1145.21 Q86.3223 1148.75 89.9334 1148.75 Q93.5676 1148.75 95.3732 1145.21 Q97.2019 1141.64 97.2019 1134.54 Q97.2019 1127.41 95.3732 1123.87 Q93.5676 1120.3 89.9334 1120.3 M89.9334 1116.6 Q95.7435 1116.6 98.7991 1121.2 Q101.878 1125.79 101.878 1134.54 Q101.878 1143.26 98.7991 1147.87 Q95.7435 1152.45 89.9334 1152.45 Q84.1232 1152.45 81.0445 1147.87 Q77.989 1143.26 77.989 1134.54 Q77.989 1125.79 81.0445 1121.2 Q84.1232 1116.6 89.9334 1116.6 Z" fill="#4c4c4c" fill-rule="nonzero" fill-opacity="1" /><path clip-path="url(#clip380)" d="M120.095 1120.3 Q116.484 1120.3 114.655 1123.87 Q112.85 1127.41 112.85 1134.54 Q112.85 1141.64 114.655 1145.21 Q116.484 1148.75 120.095 1148.75 Q123.729 1148.75 125.535 1145.21 Q127.364 1141.64 127.364 1134.54 Q127.364 1127.41 125.535 1123.87 Q123.729 1120.3 120.095 1120.3 M120.095 1116.6 Q125.905 1116.6 128.961 1121.2 Q132.04 1125.79 132.04 1134.54 Q132.04 1143.26 128.961 1147.87 Q125.905 1152.45 120.095 1152.45 Q114.285 1152.45 111.206 1147.87 Q108.151 1143.26 108.151 1134.54 Q108.151 1125.79 111.206 1121.2 Q114.285 1116.6 120.095 1116.6 Z" fill="#4c4c4c" fill-rule="nonzero" fill-opacity="1" /><path clip-path="url(#clip380)" d="M168.428 1126.32 L157.85 1136.94 L168.428 1147.52 L165.674 1150.32 L155.049 1139.7 L144.424 1150.32 L141.692 1147.52 L152.248 1136.94 L141.692 1126.32 L144.424 1123.52 L155.049 1134.14 L165.674 1123.52 L168.428 1126.32 Z" fill="#4c4c4c" fill-rule="nonzero" fill-opacity="1" /><path clip-path="url(#clip380)" d="M180.789 1147.85 L188.428 1147.85 L188.428 1121.48 L180.118 1123.15 L180.118 1118.89 L188.382 1117.22 L193.058 1117.22 L193.058 1147.85 L200.697 1147.85 L200.697 1151.78 L180.789 1151.78 L180.789 1147.85 Z" fill="#4c4c4c" fill-rule="nonzero" fill-opacity="1" /><path clip-path="url(#clip380)" d="M220.141 1120.3 Q216.53 1120.3 214.701 1123.87 Q212.896 1127.41 212.896 1134.54 Q212.896 1141.64 214.701 1145.21 Q216.53 1148.75 220.141 1148.75 Q223.775 1148.75 225.581 1145.21 Q227.409 1141.64 227.409 1134.54 Q227.409 1127.41 225.581 1123.87 Q223.775 1120.3 220.141 1120.3 M220.141 1116.6 Q225.951 1116.6 229.007 1121.2 Q232.085 1125.79 232.085 1134.54 Q232.085 1143.26 229.007 1147.87 Q225.951 1152.45 220.141 1152.45 Q214.331 1152.45 211.252 1147.87 Q208.197 1143.26 208.197 1134.54 Q208.197 1125.79 211.252 1121.2 Q214.331 1116.6 220.141 1116.6 Z" fill="#4c4c4c" fill-rule="nonzero" fill-opacity="1" /><path clip-path="url(#clip380)" d="M241.715 1111.04 Q239.007 1111.04 237.446 1112.48 Q235.903 1113.93 235.903 1116.47 Q235.903 1119.01 237.446 1120.46 Q239.007 1121.91 241.715 1121.91 Q244.423 1121.91 245.984 1120.46 Q247.545 1118.99 247.545 1116.47 Q247.545 1113.93 245.984 1112.48 Q244.442 1111.04 241.715 1111.04 M237.916 1109.42 Q235.471 1108.82 234.098 1107.14 Q232.744 1105.47 232.744 1103.06 Q232.744 1099.7 235.132 1097.74 Q237.54 1095.78 241.715 1095.78 Q245.909 1095.78 248.298 1097.74 Q250.686 1099.7 250.686 1103.06 Q250.686 1105.47 249.313 1107.14 Q247.959 1108.82 245.533 1109.42 Q248.279 1110.06 249.802 1111.92 Q251.345 1113.78 251.345 1116.47 Q251.345 1120.55 248.843 1122.74 Q246.36 1124.92 241.715 1124.92 Q237.069 1124.92 234.568 1122.74 Q232.085 1120.55 232.085 1116.47 Q232.085 1113.78 233.628 1111.92 Q235.17 1110.06 237.916 1109.42 M236.524 1103.42 Q236.524 1105.6 237.878 1106.82 Q239.251 1108.05 241.715 1108.05 Q244.16 1108.05 245.533 1106.82 Q246.925 1105.6 246.925 1103.42 Q246.925 1101.24 245.533 1100.02 Q244.16 1098.79 241.715 1098.79 Q239.251 1098.79 237.878 1100.02 Q236.524 1101.24 236.524 1103.42 Z" fill="#4c4c4c" fill-rule="nonzero" fill-opacity="1" /><path clip-path="url(#clip380)" d="M35.3995 830.155 L43.0384 830.155 L43.0384 803.789 L34.7282 805.456 L34.7282 801.196 L42.9921 799.53 L47.668 799.53 L47.668 830.155 L55.3068 830.155 L55.3068 834.09 L35.3995 834.09 L35.3995 830.155 Z" fill="#4c4c4c" fill-rule="nonzero" fill-opacity="1" /><path clip-path="url(#clip380)" d="M64.7512 828.21 L69.6354 828.21 L69.6354 834.09 L64.7512 834.09 L64.7512 828.21 Z" fill="#4c4c4c" fill-rule="nonzero" fill-opacity="1" /><path clip-path="url(#clip380)" d="M89.8205 802.608 Q86.2094 802.608 84.3807 806.173 Q82.5752 809.715 82.5752 816.845 Q82.5752 823.951 84.3807 827.516 Q86.2094 831.057 89.8205 831.057 Q93.4548 831.057 95.2603 827.516 Q97.089 823.951 97.089 816.845 Q97.089 809.715 95.2603 806.173 Q93.4548 802.608 89.8205 802.608 M89.8205 798.905 Q95.6307 798.905 98.6862 803.511 Q101.765 808.095 101.765 816.845 Q101.765 825.571 98.6862 830.178 Q95.6307 834.761 89.8205 834.761 Q84.0104 834.761 80.9317 830.178 Q77.8761 825.571 77.8761 816.845 Q77.8761 808.095 80.9317 803.511 Q84.0104 798.905 89.8205 798.905 Z" fill="#4c4c4c" fill-rule="nonzero" fill-opacity="1" /><path clip-path="url(#clip380)" d="M119.982 802.608 Q116.371 802.608 114.543 806.173 Q112.737 809.715 112.737 816.845 Q112.737 823.951 114.543 827.516 Q116.371 831.057 119.982 831.057 Q123.617 831.057 125.422 827.516 Q127.251 823.951 127.251 816.845 Q127.251 809.715 125.422 806.173 Q123.617 802.608 119.982 802.608 M119.982 798.905 Q125.793 798.905 128.848 803.511 Q131.927 808.095 131.927 816.845 Q131.927 825.571 128.848 830.178 Q125.793 834.761 119.982 834.761 Q114.172 834.761 111.094 830.178 Q108.038 825.571 108.038 816.845 Q108.038 808.095 111.094 803.511 Q114.172 798.905 119.982 798.905 Z" fill="#4c4c4c" fill-rule="nonzero" fill-opacity="1" /><path clip-path="url(#clip380)" d="M168.315 808.627 L157.737 819.252 L168.315 829.831 L165.561 832.631 L154.936 822.007 L144.311 832.631 L141.58 829.831 L152.135 819.252 L141.58 808.627 L144.311 805.826 L154.936 816.451 L165.561 805.826 L168.315 808.627 Z" fill="#4c4c4c" fill-rule="nonzero" fill-opacity="1" /><path clip-path="url(#clip380)" d="M180.677 830.155 L188.315 830.155 L188.315 803.789 L180.005 805.456 L180.005 801.196 L188.269 799.53 L192.945 799.53 L192.945 830.155 L200.584 830.155 L200.584 834.09 L180.677 834.09 L180.677 830.155 Z" fill="#4c4c4c" fill-rule="nonzero" fill-opacity="1" /><path clip-path="url(#clip380)" d="M220.028 802.608 Q216.417 802.608 214.588 806.173 Q212.783 809.715 212.783 816.845 Q212.783 823.951 214.588 827.516 Q216.417 831.057 220.028 831.057 Q223.662 831.057 225.468 827.516 Q227.297 823.951 227.297 816.845 Q227.297 809.715 225.468 806.173 Q223.662 802.608 220.028 802.608 M220.028 798.905 Q225.838 798.905 228.894 803.511 Q231.973 808.095 231.973 816.845 Q231.973 825.571 228.894 830.178 Q225.838 834.761 220.028 834.761 Q214.218 834.761 211.139 830.178 Q208.084 825.571 208.084 816.845 Q208.084 808.095 211.139 803.511 Q214.218 798.905 220.028 798.905 Z" fill="#4c4c4c" fill-rule="nonzero" fill-opacity="1" /><path clip-path="url(#clip380)" d="M233.778 806.096 L233.778 802.636 Q235.207 803.313 236.674 803.67 Q238.141 804.028 239.552 804.028 Q243.314 804.028 245.288 801.507 Q247.282 798.968 247.564 793.815 Q246.473 795.432 244.799 796.298 Q243.126 797.163 241.094 797.163 Q236.881 797.163 234.418 794.624 Q231.973 792.066 231.973 787.646 Q231.973 783.32 234.53 780.706 Q237.088 778.092 241.339 778.092 Q246.21 778.092 248.768 781.834 Q251.345 785.558 251.345 792.668 Q251.345 799.307 248.185 803.275 Q245.044 807.225 239.721 807.225 Q238.292 807.225 236.825 806.943 Q235.358 806.661 233.778 806.096 M241.339 794.191 Q243.897 794.191 245.382 792.442 Q246.887 790.693 246.887 787.646 Q246.887 784.618 245.382 782.869 Q243.897 781.101 241.339 781.101 Q238.781 781.101 237.276 782.869 Q235.791 784.618 235.791 787.646 Q235.791 790.693 237.276 792.442 Q238.781 794.191 241.339 794.191 Z" fill="#4c4c4c" fill-rule="nonzero" fill-opacity="1" /><path clip-path="url(#clip380)" d="M35.3995 512.463 L43.0384 512.463 L43.0384 486.097 L34.7282 487.764 L34.7282 483.504 L42.9921 481.838 L47.668 481.838 L47.668 512.463 L55.3068 512.463 L55.3068 516.398 L35.3995 516.398 L35.3995 512.463 Z" fill="#4c4c4c" fill-rule="nonzero" fill-opacity="1" /><path clip-path="url(#clip380)" d="M64.7512 510.518 L69.6354 510.518 L69.6354 516.398 L64.7512 516.398 L64.7512 510.518 Z" fill="#4c4c4c" fill-rule="nonzero" fill-opacity="1" /><path clip-path="url(#clip380)" d="M79.8669 481.838 L98.2233 481.838 L98.2233 485.773 L84.1493 485.773 L84.1493 494.245 Q85.1678 493.898 86.1863 493.736 Q87.2048 493.551 88.2233 493.551 Q94.0103 493.551 97.3899 496.722 Q100.77 499.893 100.77 505.31 Q100.77 510.888 97.2973 513.99 Q93.8251 517.069 87.5057 517.069 Q85.3298 517.069 83.0613 516.699 Q80.8159 516.328 78.4085 515.588 L78.4085 510.888 Q80.4919 512.023 82.7141 512.578 Q84.9363 513.134 87.4131 513.134 Q91.4177 513.134 93.7557 511.027 Q96.0936 508.921 96.0936 505.31 Q96.0936 501.699 93.7557 499.592 Q91.4177 497.486 87.4131 497.486 Q85.5381 497.486 83.6632 497.902 Q81.8113 498.319 79.8669 499.199 L79.8669 481.838 Z" fill="#4c4c4c" fill-rule="nonzero" fill-opacity="1" /><path clip-path="url(#clip380)" d="M119.982 484.916 Q116.371 484.916 114.543 488.481 Q112.737 492.023 112.737 499.152 Q112.737 506.259 114.543 509.824 Q116.371 513.365 119.982 513.365 Q123.617 513.365 125.422 509.824 Q127.251 506.259 127.251 499.152 Q127.251 492.023 125.422 488.481 Q123.617 484.916 119.982 484.916 M119.982 481.213 Q125.793 481.213 128.848 485.819 Q131.927 490.402 131.927 499.152 Q131.927 507.879 128.848 512.486 Q125.793 517.069 119.982 517.069 Q114.172 517.069 111.094 512.486 Q108.038 507.879 108.038 499.152 Q108.038 490.402 111.094 485.819 Q114.172 481.213 119.982 481.213 Z" fill="#4c4c4c" fill-rule="nonzero" fill-opacity="1" /><path clip-path="url(#clip380)" d="M168.315 490.935 L157.737 501.56 L168.315 512.138 L165.561 514.939 L154.936 504.314 L144.311 514.939 L141.58 512.138 L152.135 501.56 L141.58 490.935 L144.311 488.134 L154.936 498.759 L165.561 488.134 L168.315 490.935 Z" fill="#4c4c4c" fill-rule="nonzero" fill-opacity="1" /><path clip-path="url(#clip380)" d="M180.677 512.463 L188.315 512.463 L188.315 486.097 L180.005 487.764 L180.005 483.504 L188.269 481.838 L192.945 481.838 L192.945 512.463 L200.584 512.463 L200.584 516.398 L180.677 516.398 L180.677 512.463 Z" fill="#4c4c4c" fill-rule="nonzero" fill-opacity="1" /><path clip-path="url(#clip380)" d="M220.028 484.916 Q216.417 484.916 214.588 488.481 Q212.783 492.023 212.783 499.152 Q212.783 506.259 214.588 509.824 Q216.417 513.365 220.028 513.365 Q223.662 513.365 225.468 509.824 Q227.297 506.259 227.297 499.152 Q227.297 492.023 225.468 488.481 Q223.662 484.916 220.028 484.916 M220.028 481.213 Q225.838 481.213 228.894 485.819 Q231.973 490.402 231.973 499.152 Q231.973 507.879 228.894 512.486 Q225.838 517.069 220.028 517.069 Q214.218 517.069 211.139 512.486 Q208.084 507.879 208.084 499.152 Q208.084 490.402 211.139 485.819 Q214.218 481.213 220.028 481.213 Z" fill="#4c4c4c" fill-rule="nonzero" fill-opacity="1" /><path clip-path="url(#clip380)" d="M233.778 488.404 L233.778 484.944 Q235.207 485.621 236.674 485.978 Q238.141 486.335 239.552 486.335 Q243.314 486.335 245.288 483.815 Q247.282 481.276 247.564 476.123 Q246.473 477.74 244.799 478.605 Q243.126 479.471 241.094 479.471 Q236.881 479.471 234.418 476.932 Q231.973 474.374 231.973 469.954 Q231.973 465.628 234.53 463.014 Q237.088 460.4 241.339 460.4 Q246.21 460.4 248.768 464.142 Q251.345 467.866 251.345 474.976 Q251.345 481.615 248.185 485.583 Q245.044 489.533 239.721 489.533 Q238.292 489.533 236.825 489.251 Q235.358 488.969 233.778 488.404 M241.339 476.499 Q243.897 476.499 245.382 474.75 Q246.887 473.001 246.887 469.954 Q246.887 466.926 245.382 465.177 Q243.897 463.409 241.339 463.409 Q238.781 463.409 237.276 465.177 Q235.791 466.926 235.791 469.954 Q235.791 473.001 237.276 474.75 Q238.781 476.499 241.339 476.499 Z" fill="#4c4c4c" fill-rule="nonzero" fill-opacity="1" /><path clip-path="url(#clip380)" d="M38.6171 194.77 L54.9365 194.77 L54.9365 198.706 L32.9921 198.706 L32.9921 194.77 Q35.6541 192.016 40.2375 187.386 Q44.8439 182.733 46.0245 181.391 Q48.2698 178.868 49.1494 177.132 Q50.0522 175.372 50.0522 173.683 Q50.0522 170.928 48.1078 169.192 Q46.1865 167.456 43.0847 167.456 Q40.8856 167.456 38.4319 168.22 Q36.0014 168.984 33.2236 170.534 L33.2236 165.812 Q36.0477 164.678 38.5014 164.099 Q40.955 163.521 42.9921 163.521 Q48.3624 163.521 51.5568 166.206 Q54.7513 168.891 54.7513 173.382 Q54.7513 175.511 53.9411 177.433 Q53.1541 179.331 51.0476 181.923 Q50.4689 182.595 47.367 185.812 Q44.2652 189.007 38.6171 194.77 Z" fill="#4c4c4c" fill-rule="nonzero" fill-opacity="1" /><path clip-path="url(#clip380)" d="M64.7512 192.826 L69.6354 192.826 L69.6354 198.706 L64.7512 198.706 L64.7512 192.826 Z" fill="#4c4c4c" fill-rule="nonzero" fill-opacity="1" /><path clip-path="url(#clip380)" d="M89.8205 167.224 Q86.2094 167.224 84.3807 170.789 Q82.5752 174.331 82.5752 181.46 Q82.5752 188.567 84.3807 192.132 Q86.2094 195.673 89.8205 195.673 Q93.4548 195.673 95.2603 192.132 Q97.089 188.567 97.089 181.46 Q97.089 174.331 95.2603 170.789 Q93.4548 167.224 89.8205 167.224 M89.8205 163.521 Q95.6307 163.521 98.6862 168.127 Q101.765 172.71 101.765 181.46 Q101.765 190.187 98.6862 194.794 Q95.6307 199.377 89.8205 199.377 Q84.0104 199.377 80.9317 194.794 Q77.8761 190.187 77.8761 181.46 Q77.8761 172.71 80.9317 168.127 Q84.0104 163.521 89.8205 163.521 Z" fill="#4c4c4c" fill-rule="nonzero" fill-opacity="1" /><path clip-path="url(#clip380)" d="M119.982 167.224 Q116.371 167.224 114.543 170.789 Q112.737 174.331 112.737 181.46 Q112.737 188.567 114.543 192.132 Q116.371 195.673 119.982 195.673 Q123.617 195.673 125.422 192.132 Q127.251 188.567 127.251 181.46 Q127.251 174.331 125.422 170.789 Q123.617 167.224 119.982 167.224 M119.982 163.521 Q125.793 163.521 128.848 168.127 Q131.927 172.71 131.927 181.46 Q131.927 190.187 128.848 194.794 Q125.793 199.377 119.982 199.377 Q114.172 199.377 111.094 194.794 Q108.038 190.187 108.038 181.46 Q108.038 172.71 111.094 168.127 Q114.172 163.521 119.982 163.521 Z" fill="#4c4c4c" fill-rule="nonzero" fill-opacity="1" /><path clip-path="url(#clip380)" d="M168.315 173.243 L157.737 183.868 L168.315 194.446 L165.561 197.247 L154.936 186.622 L144.311 197.247 L141.58 194.446 L152.135 183.868 L141.58 173.243 L144.311 170.442 L154.936 181.067 L165.561 170.442 L168.315 173.243 Z" fill="#4c4c4c" fill-rule="nonzero" fill-opacity="1" /><path clip-path="url(#clip380)" d="M180.677 194.77 L188.315 194.77 L188.315 168.405 L180.005 170.072 L180.005 165.812 L188.269 164.146 L192.945 164.146 L192.945 194.77 L200.584 194.77 L200.584 198.706 L180.677 198.706 L180.677 194.77 Z" fill="#4c4c4c" fill-rule="nonzero" fill-opacity="1" /><path clip-path="url(#clip380)" d="M220.028 167.224 Q216.417 167.224 214.588 170.789 Q212.783 174.331 212.783 181.46 Q212.783 188.567 214.588 192.132 Q216.417 195.673 220.028 195.673 Q223.662 195.673 225.468 192.132 Q227.297 188.567 227.297 181.46 Q227.297 174.331 225.468 170.789 Q223.662 167.224 220.028 167.224 M220.028 163.521 Q225.838 163.521 228.894 168.127 Q231.973 172.71 231.973 181.46 Q231.973 190.187 228.894 194.794 Q225.838 199.377 220.028 199.377 Q214.218 199.377 211.139 194.794 Q208.084 190.187 208.084 181.46 Q208.084 172.71 211.139 168.127 Q214.218 163.521 220.028 163.521 Z" fill="#4c4c4c" fill-rule="nonzero" fill-opacity="1" /><path clip-path="url(#clip380)" d="M233.778 170.712 L233.778 167.252 Q235.207 167.929 236.674 168.286 Q238.141 168.643 239.552 168.643 Q243.314 168.643 245.288 166.123 Q247.282 163.584 247.564 158.431 Q246.473 160.048 244.799 160.913 Q243.126 161.778 241.094 161.778 Q236.881 161.778 234.418 159.239 Q231.973 156.682 231.973 152.262 Q231.973 147.936 234.53 145.322 Q237.088 142.707 241.339 142.707 Q246.21 142.707 248.768 146.45 Q251.345 150.174 251.345 157.283 Q251.345 163.923 248.185 167.891 Q245.044 171.841 239.721 171.841 Q238.292 171.841 236.825 171.559 Q235.358 171.276 233.778 170.712 M241.339 158.807 Q243.897 158.807 245.382 157.058 Q246.887 155.309 246.887 152.262 Q246.887 149.234 245.382 147.485 Q243.897 145.717 241.339 145.717 Q238.781 145.717 237.276 147.485 Q235.791 149.234 235.791 152.262 Q235.791 155.309 237.276 157.058 Q238.781 158.807 241.339 158.807 Z" fill="#4c4c4c" fill-rule="nonzero" fill-opacity="1" /><polyline clip-path="url(#clip382)" style="stroke:#009af9; stroke-linecap:round; stroke-linejoin:round; stroke-width:4; stroke-opacity:1; fill:none" points="363.29,1445.72 382.8,1329.72 402.311,625.214 421.821,229.163 441.331,124.993 460.842,1186.92 480.352,743.074 499.862,902.673 519.373,1087.02 538.883,431.241 558.393,1323.56 577.903,681.107 597.414,651.307 616.924,341.111 636.434,638.087 655.945,747.526 675.455,249.599 694.965,87.9763 714.476,454.847 733.986,126.827 753.496,1040.36 773.007,864.41 792.517,218.402 812.027,554.745 831.537,215.623 851.048,133.756 870.558,1221 890.068,275.042 909.579,208.378 929.089,1044.55 948.599,168.263 968.11,879.973 987.62,1024.86 1007.13,743.187 1026.64,906.192 1046.15,368.103 1065.66,505.429 1085.17,703.099 1104.68,637.42 1124.19,1317.99 1143.7,614.119 1163.21,855.938 1182.72,627.675 1202.23,292.862 1221.74,773.902 1241.25,391.215 1260.76,1347.97 1280.27,1183.96 1299.78,1140.64 1319.3,380.954 1338.81,1331.18 1358.32,1198.31 1377.83,604.277 1397.34,655.521 1416.85,436.972 1436.36,1017.12 1455.87,846.955 1475.38,883.603 1494.89,205.588 1514.4,91.7683 1533.91,658.364 1553.42,1222.08 1572.93,492.63 1592.44,988.854 1611.95,823.842 1631.46,1341.75 1650.97,1270.01 1670.48,1207.61 1689.99,842.951 1709.5,1394.85 1729.01,757.827 1748.52,807.97 1768.03,655.692 1787.54,525.935 1807.05,1318.29 1826.56,1354.73 1846.07,309.543 1865.58,913.897 1885.09,1185.32 1904.6,1220.06 1924.11,137.832 1943.62,93.8166 1963.14,1290.79 1982.65,257.779 2002.16,596.699 2021.67,527.927 2041.18,607.895 2060.69,643.835 2080.2,1239.84 2099.71,1097.79 2119.22,355.612 2138.73,636.549 2158.24,222.286 2177.75,1074.99 2197.26,1175.65 2216.77,1076.68 2236.28,904.911 2255.79,1314.85 2275.3,561.451 2294.81,582.638 "/>
<path clip-path="url(#clip380)" d="M2027.34 198.898 L2284.51 198.898 L2284.51 95.2176 L2027.34 95.2176  Z" fill="#eaeaea" fill-rule="evenodd" fill-opacity="1"/>
<polyline clip-path="url(#clip380)" style="stroke:#ffffff; stroke-linecap:round; stroke-linejoin:round; stroke-width:4; stroke-opacity:1; fill:none" points="2027.34,198.898 2284.51,198.898 2284.51,95.2176 2027.34,95.2176 2027.34,198.898 "/>
<polyline clip-path="url(#clip380)" style="stroke:#009af9; stroke-linecap:round; stroke-linejoin:round; stroke-width:4; stroke-opacity:1; fill:none" points="2050.09,147.058 2186.58,147.058 "/>
<path clip-path="url(#clip380)" d="M2223.17 166.745 Q2221.37 171.375 2219.65 172.787 Q2217.94 174.199 2215.07 174.199 L2211.67 174.199 L2211.67 170.634 L2214.17 170.634 Q2215.93 170.634 2216.9 169.8 Q2217.87 168.967 2219.05 165.865 L2219.82 163.921 L2209.33 138.412 L2213.84 138.412 L2221.95 158.689 L2230.05 138.412 L2234.56 138.412 L2223.17 166.745 Z" fill="#000000" fill-rule="nonzero" fill-opacity="1" /><path clip-path="url(#clip380)" d="M2241.85 160.402 L2249.49 160.402 L2249.49 134.037 L2241.18 135.703 L2241.18 131.444 L2249.45 129.778 L2254.12 129.778 L2254.12 160.402 L2261.76 160.402 L2261.76 164.338 L2241.85 164.338 L2241.85 160.402 Z" fill="#000000" fill-rule="nonzero" fill-opacity="1" /></svg>
