<?xml version="1.0" encoding="utf-8"?>
<svg xmlns="http://www.w3.org/2000/svg" xmlns:xlink="http://www.w3.org/1999/xlink" width="600" height="400" viewBox="0 0 2400 1600">
<defs>
  <clipPath id="clip120">
    <rect x="0" y="0" width="2400" height="1600"/>
  </clipPath>
</defs>
<path clip-path="url(#clip120)" d="M0 1600 L2400 1600 L2400 8.88178e-14 L0 8.88178e-14  Z" fill="#ffffff" fill-rule="evenodd" fill-opacity="1"/>
<defs>
  <clipPath id="clip121">
    <rect x="480" y="0" width="1681" height="1600"/>
  </clipPath>
</defs>
<path clip-path="url(#clip120)" d="M258.782 1410.9 L2352.76 1410.9 L2352.76 47.2441 L258.782 47.2441  Z" fill="#ffffff" fill-rule="evenodd" fill-opacity="1"/>
<defs>
  <clipPath id="clip122">
    <rect x="258" y="47" width="2095" height="1365"/>
  </clipPath>
</defs>
<polyline clip-path="url(#clip122)" style="stroke:#000000; stroke-linecap:round; stroke-linejoin:round; stroke-width:2; stroke-opacity:0.1; fill:none" points="882.459,1410.9 882.459,47.2441 "/>
<polyline clip-path="url(#clip122)" style="stroke:#000000; stroke-linecap:round; stroke-linejoin:round; stroke-width:2; stroke-opacity:0.1; fill:none" points="1729.08,1410.9 1729.08,47.2441 "/>
<polyline clip-path="url(#clip120)" style="stroke:#000000; stroke-linecap:round; stroke-linejoin:round; stroke-width:4; stroke-opacity:1; fill:none" points="258.782,1410.9 2352.76,1410.9 "/>
<polyline clip-path="url(#clip120)" style="stroke:#000000; stroke-linecap:round; stroke-linejoin:round; stroke-width:4; stroke-opacity:1; fill:none" points="882.459,1410.9 882.459,1392 "/>
<polyline clip-path="url(#clip120)" style="stroke:#000000; stroke-linecap:round; stroke-linejoin:round; stroke-width:4; stroke-opacity:1; fill:none" points="1729.08,1410.9 1729.08,1392 "/>
<path clip-path="url(#clip120)" d="M847.903 1485.02 L855.542 1485.02 L855.542 1458.66 L847.231 1460.32 L847.231 1456.06 L855.495 1454.4 L860.171 1454.4 L860.171 1485.02 L867.81 1485.02 L867.81 1488.96 L847.903 1488.96 L847.903 1485.02 Z" fill="#000000" fill-rule="nonzero" fill-opacity="1" /><path clip-path="url(#clip120)" d="M887.254 1457.48 Q883.643 1457.48 881.815 1461.04 Q880.009 1464.58 880.009 1471.71 Q880.009 1478.82 881.815 1482.38 Q883.643 1485.92 887.254 1485.92 Q890.889 1485.92 892.694 1482.38 Q894.523 1478.82 894.523 1471.71 Q894.523 1464.58 892.694 1461.04 Q890.889 1457.48 887.254 1457.48 M887.254 1453.77 Q893.065 1453.77 896.12 1458.38 Q899.199 1462.96 899.199 1471.71 Q899.199 1480.44 896.12 1485.04 Q893.065 1489.63 887.254 1489.63 Q881.444 1489.63 878.366 1485.04 Q875.31 1480.44 875.31 1471.71 Q875.31 1462.96 878.366 1458.38 Q881.444 1453.77 887.254 1453.77 Z" fill="#000000" fill-rule="nonzero" fill-opacity="1" /><path clip-path="url(#clip120)" d="M911.894 1446.41 Q914.621 1446.99 916.145 1448.83 Q917.687 1450.68 917.687 1453.38 Q917.687 1457.54 914.828 1459.82 Q911.969 1462.09 906.703 1462.09 Q904.935 1462.09 903.054 1461.73 Q901.192 1461.4 899.199 1460.7 L899.199 1457.03 Q900.779 1457.95 902.659 1458.42 Q904.54 1458.89 906.59 1458.89 Q910.164 1458.89 912.026 1457.48 Q913.906 1456.07 913.906 1453.38 Q913.906 1450.9 912.157 1449.51 Q910.427 1448.1 907.324 1448.1 L904.051 1448.1 L904.051 1444.98 L907.474 1444.98 Q910.277 1444.98 911.762 1443.87 Q913.248 1442.74 913.248 1440.63 Q913.248 1438.47 911.706 1437.32 Q910.183 1436.16 907.324 1436.16 Q905.763 1436.16 903.976 1436.49 Q902.189 1436.83 900.045 1437.55 L900.045 1434.16 Q902.208 1433.56 904.089 1433.26 Q905.988 1432.96 907.662 1432.96 Q911.988 1432.96 914.508 1434.93 Q917.029 1436.89 917.029 1440.24 Q917.029 1442.57 915.693 1444.19 Q914.358 1445.79 911.894 1446.41 Z" fill="#000000" fill-rule="nonzero" fill-opacity="1" /><path clip-path="url(#clip120)" d="M1694.07 1485.02 L1701.71 1485.02 L1701.71 1458.66 L1693.4 1460.32 L1693.4 1456.06 L1701.66 1454.4 L1706.34 1454.4 L1706.34 1485.02 L1713.98 1485.02 L1713.98 1488.96 L1694.07 1488.96 L1694.07 1485.02 Z" fill="#000000" fill-rule="nonzero" fill-opacity="1" /><path clip-path="url(#clip120)" d="M1733.42 1457.48 Q1729.81 1457.48 1727.98 1461.04 Q1726.18 1464.58 1726.18 1471.71 Q1726.18 1478.82 1727.98 1482.38 Q1729.81 1485.92 1733.42 1485.92 Q1737.06 1485.92 1738.86 1482.38 Q1740.69 1478.82 1740.69 1471.71 Q1740.69 1464.58 1738.86 1461.04 Q1737.06 1457.48 1733.42 1457.48 M1733.42 1453.77 Q1739.23 1453.77 1742.29 1458.38 Q1745.37 1462.96 1745.37 1471.71 Q1745.37 1480.44 1742.29 1485.04 Q1739.23 1489.63 1733.42 1489.63 Q1727.61 1489.63 1724.53 1485.04 Q1721.48 1480.44 1721.48 1471.71 Q1721.48 1462.96 1724.53 1458.38 Q1727.61 1453.77 1733.42 1453.77 Z" fill="#000000" fill-rule="nonzero" fill-opacity="1" /><path clip-path="url(#clip120)" d="M1755.39 1445.99 Q1752.83 1445.99 1751.33 1447.74 Q1749.84 1449.49 1749.84 1452.54 Q1749.84 1455.57 1751.33 1457.33 Q1752.83 1459.08 1755.39 1459.08 Q1757.95 1459.08 1759.44 1457.33 Q1760.94 1455.57 1760.94 1452.54 Q1760.94 1449.49 1759.44 1447.74 Q1757.95 1445.99 1755.39 1445.99 M1762.93 1434.09 L1762.93 1437.55 Q1761.5 1436.87 1760.04 1436.51 Q1758.59 1436.16 1757.16 1436.16 Q1753.4 1436.16 1751.4 1438.69 Q1749.43 1441.23 1749.15 1446.37 Q1750.26 1444.73 1751.93 1443.87 Q1753.61 1442.98 1755.62 1442.98 Q1759.85 1442.98 1762.29 1445.56 Q1764.76 1448.12 1764.76 1452.54 Q1764.76 1456.86 1762.2 1459.48 Q1759.64 1462.09 1755.39 1462.09 Q1750.52 1462.09 1747.94 1458.37 Q1745.37 1454.62 1745.37 1447.53 Q1745.37 1440.88 1748.53 1436.93 Q1751.69 1432.96 1757.01 1432.96 Q1758.44 1432.96 1759.89 1433.24 Q1761.35 1433.52 1762.93 1434.09 Z" fill="#000000" fill-rule="nonzero" fill-opacity="1" /><path clip-path="url(#clip120)" d="M1335.07 1523.67 Q1335.07 1524.99 1333.94 1524.99 Q1330.31 1525.12 1328.82 1526.34 Q1327.37 1527.54 1326.83 1529.85 L1317.62 1566.6 Q1317.29 1567.76 1317.1 1567.89 Q1316.91 1567.99 1316.55 1567.99 Q1316.1 1567.99 1315.84 1567.76 Q1315.62 1567.54 1315.3 1566.73 L1298.87 1527.89 Q1298.74 1527.63 1298.58 1527.28 Q1298.42 1526.92 1298.29 1526.7 L1289.56 1561.51 Q1289.31 1562.51 1289.31 1563.03 Q1289.31 1564.28 1290.18 1565.09 Q1291.08 1565.86 1293.65 1565.96 Q1294.98 1565.96 1294.98 1566.67 Q1294.98 1567.99 1293.78 1567.99 Q1292.69 1567.99 1290.4 1567.89 Q1288.12 1567.79 1286.99 1567.79 Q1285.89 1567.79 1283.67 1567.89 Q1281.45 1567.99 1280.39 1567.99 Q1279.55 1567.99 1279.55 1567.25 Q1279.55 1566.67 1279.77 1566.38 Q1280 1566.05 1280.19 1566.02 Q1280.39 1565.96 1280.68 1565.96 Q1282.61 1565.89 1283.93 1565.51 Q1285.25 1565.12 1285.99 1564.38 Q1286.76 1563.64 1287.12 1562.9 Q1287.5 1562.12 1287.79 1561 L1296.62 1525.57 Q1296.62 1524.99 1292.14 1524.99 Q1291.37 1524.99 1291.05 1524.96 Q1290.76 1524.93 1290.53 1524.77 Q1290.31 1524.6 1290.31 1524.25 Q1290.31 1523.35 1290.69 1523.16 Q1291.08 1522.93 1292.21 1522.93 L1301.06 1522.93 Q1302.19 1522.93 1302.48 1523.12 Q1302.77 1523.28 1303.16 1524.19 L1317.74 1558.61 L1325.12 1529.27 Q1325.31 1528.69 1325.31 1527.89 Q1325.31 1526.6 1324.35 1525.83 Q1323.41 1525.02 1320.84 1524.99 Q1319.64 1524.99 1319.64 1524.25 Q1319.64 1523.64 1319.87 1523.35 Q1320.13 1523.03 1320.32 1522.99 Q1320.55 1522.93 1320.84 1522.93 Q1321.93 1522.93 1324.19 1523.03 Q1326.44 1523.12 1327.57 1523.12 Q1328.66 1523.12 1330.88 1523.03 Q1333.14 1522.93 1334.23 1522.93 Q1334.62 1522.93 1334.81 1523.12 Q1335.04 1523.28 1335.07 1523.48 L1335.07 1523.67 Z" fill="#000000" fill-rule="nonzero" fill-opacity="1" /><polyline clip-path="url(#clip122)" style="stroke:#000000; stroke-linecap:round; stroke-linejoin:round; stroke-width:2; stroke-opacity:0.1; fill:none" points="258.782,1236.23 2352.76,1236.23 "/>
<polyline clip-path="url(#clip122)" style="stroke:#000000; stroke-linecap:round; stroke-linejoin:round; stroke-width:2; stroke-opacity:0.1; fill:none" points="258.782,548.599 2352.76,548.599 "/>
<polyline clip-path="url(#clip120)" style="stroke:#000000; stroke-linecap:round; stroke-linejoin:round; stroke-width:4; stroke-opacity:1; fill:none" points="258.782,1410.9 258.782,47.2441 "/>
<polyline clip-path="url(#clip120)" style="stroke:#000000; stroke-linecap:round; stroke-linejoin:round; stroke-width:4; stroke-opacity:1; fill:none" points="258.782,1236.23 277.68,1236.23 "/>
<polyline clip-path="url(#clip120)" style="stroke:#000000; stroke-linecap:round; stroke-linejoin:round; stroke-width:4; stroke-opacity:1; fill:none" points="258.782,548.599 277.68,548.599 "/>
<path clip-path="url(#clip120)" d="M114.931 1256.02 L122.57 1256.02 L122.57 1229.66 L114.26 1231.32 L114.26 1227.06 L122.524 1225.4 L127.2 1225.4 L127.2 1256.02 L134.839 1256.02 L134.839 1259.96 L114.931 1259.96 L114.931 1256.02 Z" fill="#000000" fill-rule="nonzero" fill-opacity="1" /><path clip-path="url(#clip120)" d="M154.283 1228.48 Q150.672 1228.48 148.843 1232.04 Q147.038 1235.58 147.038 1242.71 Q147.038 1249.82 148.843 1253.38 Q150.672 1256.92 154.283 1256.92 Q157.917 1256.92 159.723 1253.38 Q161.552 1249.82 161.552 1242.71 Q161.552 1235.58 159.723 1232.04 Q157.917 1228.48 154.283 1228.48 M154.283 1224.77 Q160.093 1224.77 163.149 1229.38 Q166.227 1233.96 166.227 1242.71 Q166.227 1251.44 163.149 1256.04 Q160.093 1260.63 154.283 1260.63 Q148.473 1260.63 145.394 1256.04 Q142.339 1251.44 142.339 1242.71 Q142.339 1233.96 145.394 1229.38 Q148.473 1224.77 154.283 1224.77 Z" fill="#000000" fill-rule="nonzero" fill-opacity="1" /><path clip-path="url(#clip120)" d="M175.932 1206.97 Q172.998 1206.97 171.512 1209.86 Q170.045 1212.74 170.045 1218.53 Q170.045 1224.31 171.512 1227.2 Q172.998 1230.08 175.932 1230.08 Q178.885 1230.08 180.352 1227.2 Q181.838 1224.31 181.838 1218.53 Q181.838 1212.74 180.352 1209.86 Q178.885 1206.97 175.932 1206.97 M175.932 1203.96 Q180.653 1203.96 183.136 1207.7 Q185.637 1211.43 185.637 1218.53 Q185.637 1225.63 183.136 1229.37 Q180.653 1233.09 175.932 1233.09 Q171.212 1233.09 168.71 1229.37 Q166.227 1225.63 166.227 1218.53 Q166.227 1211.43 168.71 1207.7 Q171.212 1203.96 175.932 1203.96 Z" fill="#000000" fill-rule="nonzero" fill-opacity="1" /><path clip-path="url(#clip120)" d="M192.314 1227.77 L196.282 1227.77 L196.282 1232.55 L192.314 1232.55 L192.314 1227.77 Z" fill="#000000" fill-rule="nonzero" fill-opacity="1" /><path clip-path="url(#clip120)" d="M214.996 1207.78 L205.404 1222.77 L214.996 1222.77 L214.996 1207.78 M213.999 1204.47 L218.776 1204.47 L218.776 1222.77 L222.782 1222.77 L222.782 1225.93 L218.776 1225.93 L218.776 1232.55 L214.996 1232.55 L214.996 1225.93 L202.32 1225.93 L202.32 1222.26 L213.999 1204.47 Z" fill="#000000" fill-rule="nonzero" fill-opacity="1" /><path clip-path="url(#clip120)" d="M116.135 568.391 L123.774 568.391 L123.774 542.026 L115.464 543.692 L115.464 539.433 L123.728 537.766 L128.404 537.766 L128.404 568.391 L136.042 568.391 L136.042 572.326 L116.135 572.326 L116.135 568.391 Z" fill="#000000" fill-rule="nonzero" fill-opacity="1" /><path clip-path="url(#clip120)" d="M155.487 540.845 Q151.876 540.845 150.047 544.41 Q148.241 547.951 148.241 555.081 Q148.241 562.188 150.047 565.752 Q151.876 569.294 155.487 569.294 Q159.121 569.294 160.927 565.752 Q162.755 562.188 162.755 555.081 Q162.755 547.951 160.927 544.41 Q159.121 540.845 155.487 540.845 M155.487 537.141 Q161.297 537.141 164.352 541.748 Q167.431 546.331 167.431 555.081 Q167.431 563.808 164.352 568.414 Q161.297 572.998 155.487 572.998 Q149.677 572.998 146.598 568.414 Q143.542 563.808 143.542 555.081 Q143.542 546.331 146.598 541.748 Q149.677 537.141 155.487 537.141 Z" fill="#000000" fill-rule="nonzero" fill-opacity="1" /><path clip-path="url(#clip120)" d="M177.136 519.337 Q174.202 519.337 172.716 522.234 Q171.249 525.111 171.249 530.904 Q171.249 536.678 172.716 539.575 Q174.202 542.452 177.136 542.452 Q180.089 542.452 181.556 539.575 Q183.042 536.678 183.042 530.904 Q183.042 525.111 181.556 522.234 Q180.089 519.337 177.136 519.337 M177.136 516.328 Q181.857 516.328 184.339 520.071 Q186.841 523.795 186.841 530.904 Q186.841 537.995 184.339 541.737 Q181.857 545.461 177.136 545.461 Q172.415 545.461 169.914 541.737 Q167.431 537.995 167.431 530.904 Q167.431 523.795 169.914 520.071 Q172.415 516.328 177.136 516.328 Z" fill="#000000" fill-rule="nonzero" fill-opacity="1" /><path clip-path="url(#clip120)" d="M193.518 540.139 L197.486 540.139 L197.486 544.916 L193.518 544.916 L193.518 540.139 Z" fill="#000000" fill-rule="nonzero" fill-opacity="1" /><path clip-path="url(#clip120)" d="M205.799 516.836 L220.714 516.836 L220.714 520.033 L209.278 520.033 L209.278 526.917 Q210.106 526.635 210.934 526.503 Q211.761 526.353 212.589 526.353 Q217.291 526.353 220.037 528.929 Q222.782 531.506 222.782 535.907 Q222.782 540.44 219.961 542.96 Q217.14 545.461 212.006 545.461 Q210.238 545.461 208.394 545.16 Q206.57 544.86 204.614 544.258 L204.614 540.44 Q206.307 541.361 208.112 541.813 Q209.918 542.264 211.93 542.264 Q215.184 542.264 217.084 540.553 Q218.983 538.841 218.983 535.907 Q218.983 532.973 217.084 531.262 Q215.184 529.55 211.93 529.55 Q210.407 529.55 208.883 529.889 Q207.379 530.227 205.799 530.942 L205.799 516.836 Z" fill="#000000" fill-rule="nonzero" fill-opacity="1" /><path clip-path="url(#clip120)" d="M33.9512 716.015 L34.8755 716.579 Q33.365 720.073 30.9528 724.424 Q33.365 728.775 34.8755 732.27 L33.9512 732.811 Q30.6372 729.001 28.0897 724.424 Q30.6597 719.803 33.9512 716.015 Z" fill="#000000" fill-rule="nonzero" fill-opacity="1" /><path clip-path="url(#clip120)" d="M43.485 711.083 Q45.7394 711.083 45.7394 714.304 L45.7394 721.84 Q51.0856 723 56.2386 723 Q62.3899 723 67.1241 721.1 Q68.0581 720.713 68.5734 720.713 Q69.5396 720.713 70.3125 721.583 Q71.0855 722.42 71.0855 723.418 Q71.0855 724.256 70.4413 724.803 Q69.7972 725.318 67.7683 725.769 Q65.385 726.317 62.7441 726.317 Q59.588 726.317 56.5606 725.802 Q53.5011 725.286 45.7394 723.547 L45.7394 730.987 L60.3287 734.69 Q65.2562 736.011 66.7699 736.462 Q67.6716 736.752 67.9615 736.848 Q68.2513 736.945 68.9599 737.235 Q69.6362 737.492 69.8938 737.686 Q70.1193 737.879 70.4735 738.201 Q70.86 738.523 70.9566 738.909 Q71.0855 739.296 71.0855 739.779 Q71.0855 740.52 70.6024 741.099 Q70.1515 741.679 69.2819 741.679 Q68.7022 741.679 67.7038 741.164 Q54.4994 735.045 45.7394 732.726 L45.7394 736.462 Q45.7394 741.615 50.828 744.835 Q51.5043 745.351 51.5687 745.64 Q51.6009 745.769 51.6009 745.898 Q51.6009 746.252 51.4399 746.478 Q51.2789 746.671 51.1178 746.671 L50.9568 746.703 Q50.7636 746.703 49.894 746.22 Q48.9922 745.705 47.6074 744.739 Q46.2225 743.74 45.0309 742.677 Q43.9359 741.647 43.2596 740.648 Q42.5511 739.618 42.2934 738.652 Q42.0358 737.686 41.9714 737.138 Q41.9069 736.591 41.9069 735.818 L41.9069 713.724 Q41.9069 712.887 41.9714 712.436 Q42.0036 711.985 42.39 711.534 Q42.7443 711.083 43.485 711.083 Z" fill="#000000" fill-rule="nonzero" fill-opacity="1" /><polyline clip-path="url(#clip122)" style="stroke:#009af9; stroke-linecap:round; stroke-linejoin:round; stroke-width:4; stroke-opacity:1; fill:none" points="318.046,513.186 340.391,705.92 367.74,1372.3 396.712,178.961 430.347,513.186 456.711,150.761 484.848,85.838 515.3,439.445 543.625,918.736 571.362,928.201 600.253,627.328 627.601,513.186 656.315,546.447 684.591,593.029 713.043,570.242 741.268,594.615 769.544,545.247 797.751,496.839 825.832,548.951 854.188,638.976 882.459,539.431 910.59,553.216 938.831,568.367 967.105,530.074 995.299,645.096 1023.55,602.58 1051.78,566.927 1079.98,574.753 1108.21,578.507 1136.44,571.271 1164.67,575.042 1192.88,575.569 1221.1,561.484 1249.32,572.252 1277.54,564.359 1305.77,552.948 1333.99,559.68 1362.21,550.918 1390.43,567.757 1418.65,568.616 1446.87,563.061 1475.09,575.98 1503.31,567.813 1531.53,572.838 1559.75,569.008 1587.98,569.461 1616.2,568.087 1644.42,567.494 1672.64,567.242 1700.86,565.344 1729.08,570.236 1757.3,568.558 1785.52,567.211 1813.74,567.713 1841.96,568.286 1870.18,568.358 1898.4,568.272 1926.62,568.218 1954.84,567.511 1983.07,569.262 2011.29,567.835 2039.51,568.58 2067.73,567.912 2095.95,567.945 2124.17,567.451 2152.39,567.846 2180.61,567.883 2208.83,568.019 2237.05,568.238 2265.27,568.019 2293.49,568.253 "/>
<polyline clip-path="url(#clip122)" style="stroke:#ff0000; stroke-linecap:round; stroke-linejoin:round; stroke-width:4; stroke-opacity:1; fill:none" stroke-dasharray="16, 10" points="-1835.19,568.197 4446.73,568.197 "/>
<path clip-path="url(#clip120)" d="M1871.34 1365.44 L2282.96 1365.44 L2282.96 1209.92 L1871.34 1209.92  Z" fill="#ffffff" fill-rule="evenodd" fill-opacity="1"/>
<polyline clip-path="url(#clip120)" style="stroke:#000000; stroke-linecap:round; stroke-linejoin:round; stroke-width:4; stroke-opacity:1; fill:none" points="1871.34,1365.44 2282.96,1365.44 2282.96,1209.92 1871.34,1209.92 1871.34,1365.44 "/>
<polyline clip-path="url(#clip120)" style="stroke:#009af9; stroke-linecap:round; stroke-linejoin:round; stroke-width:4; stroke-opacity:1; fill:none" points="1894.6,1261.76 2034.2,1261.76 "/>
<path clip-path="url(#clip120)" d="M2057.47 1244.48 L2079.32 1244.48 L2079.32 1248.42 L2062.15 1248.42 L2062.15 1258.65 L2078.6 1258.65 L2078.6 1262.58 L2062.15 1262.58 L2062.15 1275.11 L2079.74 1275.11 L2079.74 1279.04 L2057.47 1279.04 L2057.47 1244.48 Z" fill="#000000" fill-rule="nonzero" fill-opacity="1" /><path clip-path="url(#clip120)" d="M2103.77 1253.88 L2103.77 1257.91 Q2101.96 1256.98 2100.02 1256.52 Q2098.07 1256.06 2095.99 1256.06 Q2092.82 1256.06 2091.22 1257.03 Q2089.65 1258 2089.65 1259.94 Q2089.65 1261.43 2090.78 1262.28 Q2091.91 1263.12 2095.34 1263.88 L2096.8 1264.2 Q2101.33 1265.18 2103.23 1266.96 Q2105.15 1268.72 2105.15 1271.89 Q2105.15 1275.5 2102.28 1277.61 Q2099.44 1279.71 2094.44 1279.71 Q2092.35 1279.71 2090.08 1279.3 Q2087.84 1278.9 2085.34 1278.09 L2085.34 1273.69 Q2087.7 1274.92 2089.99 1275.55 Q2092.28 1276.15 2094.53 1276.15 Q2097.54 1276.15 2099.16 1275.13 Q2100.78 1274.09 2100.78 1272.21 Q2100.78 1270.48 2099.6 1269.55 Q2098.44 1268.62 2094.48 1267.77 L2093 1267.42 Q2089.04 1266.59 2087.28 1264.87 Q2085.52 1263.14 2085.52 1260.13 Q2085.52 1256.47 2088.12 1254.48 Q2090.71 1252.49 2095.48 1252.49 Q2097.84 1252.49 2099.92 1252.84 Q2102.01 1253.19 2103.77 1253.88 Z" fill="#000000" fill-rule="nonzero" fill-opacity="1" /><path clip-path="url(#clip120)" d="M2116.15 1245.75 L2116.15 1253.12 L2124.92 1253.12 L2124.92 1256.43 L2116.15 1256.43 L2116.15 1270.5 Q2116.15 1273.67 2117.01 1274.57 Q2117.89 1275.48 2120.55 1275.48 L2124.92 1275.48 L2124.92 1279.04 L2120.55 1279.04 Q2115.62 1279.04 2113.74 1277.21 Q2111.87 1275.36 2111.87 1270.5 L2111.87 1256.43 L2108.74 1256.43 L2108.74 1253.12 L2111.87 1253.12 L2111.87 1245.75 L2116.15 1245.75 Z" fill="#000000" fill-rule="nonzero" fill-opacity="1" /><path clip-path="url(#clip120)" d="M2130.52 1253.12 L2134.78 1253.12 L2134.78 1279.04 L2130.52 1279.04 L2130.52 1253.12 M2130.52 1243.02 L2134.78 1243.02 L2134.78 1248.42 L2130.52 1248.42 L2130.52 1243.02 Z" fill="#000000" fill-rule="nonzero" fill-opacity="1" /><path clip-path="url(#clip120)" d="M2163.88 1258.09 Q2165.48 1255.22 2167.7 1253.86 Q2169.92 1252.49 2172.93 1252.49 Q2176.98 1252.49 2179.18 1255.34 Q2181.38 1258.16 2181.38 1263.39 L2181.38 1279.04 L2177.1 1279.04 L2177.1 1263.53 Q2177.1 1259.81 2175.78 1258 Q2174.46 1256.19 2171.75 1256.19 Q2168.44 1256.19 2166.52 1258.39 Q2164.6 1260.59 2164.6 1264.39 L2164.6 1279.04 L2160.32 1279.04 L2160.32 1263.53 Q2160.32 1259.78 2159 1258 Q2157.68 1256.19 2154.92 1256.19 Q2151.66 1256.19 2149.74 1258.42 Q2147.82 1260.62 2147.82 1264.39 L2147.82 1279.04 L2143.53 1279.04 L2143.53 1253.12 L2147.82 1253.12 L2147.82 1257.14 Q2149.27 1254.76 2151.31 1253.63 Q2153.35 1252.49 2156.15 1252.49 Q2158.97 1252.49 2160.94 1253.93 Q2162.93 1255.36 2163.88 1258.09 Z" fill="#000000" fill-rule="nonzero" fill-opacity="1" /><path clip-path="url(#clip120)" d="M2201.66 1266.01 Q2196.5 1266.01 2194.51 1267.19 Q2192.51 1268.37 2192.51 1271.22 Q2192.51 1273.49 2194 1274.83 Q2195.5 1276.15 2198.07 1276.15 Q2201.61 1276.15 2203.74 1273.65 Q2205.89 1271.12 2205.89 1266.96 L2205.89 1266.01 L2201.66 1266.01 M2210.15 1264.25 L2210.15 1279.04 L2205.89 1279.04 L2205.89 1275.11 Q2204.44 1277.47 2202.26 1278.6 Q2200.08 1279.71 2196.94 1279.71 Q2192.95 1279.71 2190.59 1277.49 Q2188.26 1275.25 2188.26 1271.5 Q2188.26 1267.12 2191.17 1264.9 Q2194.11 1262.68 2199.92 1262.68 L2205.89 1262.68 L2205.89 1262.26 Q2205.89 1259.32 2203.95 1257.72 Q2202.03 1256.1 2198.53 1256.1 Q2196.31 1256.1 2194.2 1256.63 Q2192.1 1257.17 2190.15 1258.23 L2190.15 1254.3 Q2192.49 1253.39 2194.69 1252.95 Q2196.89 1252.49 2198.97 1252.49 Q2204.6 1252.49 2207.38 1255.41 Q2210.15 1258.32 2210.15 1264.25 Z" fill="#000000" fill-rule="nonzero" fill-opacity="1" /><path clip-path="url(#clip120)" d="M2223.14 1245.75 L2223.14 1253.12 L2231.91 1253.12 L2231.91 1256.43 L2223.14 1256.43 L2223.14 1270.5 Q2223.14 1273.67 2224 1274.57 Q2224.88 1275.48 2227.54 1275.48 L2231.91 1275.48 L2231.91 1279.04 L2227.54 1279.04 Q2222.61 1279.04 2220.73 1277.21 Q2218.86 1275.36 2218.86 1270.5 L2218.86 1256.43 L2215.73 1256.43 L2215.73 1253.12 L2218.86 1253.12 L2218.86 1245.75 L2223.14 1245.75 Z" fill="#000000" fill-rule="nonzero" fill-opacity="1" /><path clip-path="url(#clip120)" d="M2259.69 1265.01 L2259.69 1267.1 L2240.11 1267.1 Q2240.38 1271.5 2242.75 1273.81 Q2245.13 1276.1 2249.37 1276.1 Q2251.82 1276.1 2254.11 1275.5 Q2256.43 1274.9 2258.7 1273.69 L2258.7 1277.72 Q2256.4 1278.69 2254 1279.2 Q2251.59 1279.71 2249.11 1279.71 Q2242.91 1279.71 2239.27 1276.1 Q2235.66 1272.49 2235.66 1266.33 Q2235.66 1259.97 2239.09 1256.24 Q2242.54 1252.49 2248.37 1252.49 Q2253.6 1252.49 2256.63 1255.87 Q2259.69 1259.23 2259.69 1265.01 M2255.43 1263.76 Q2255.38 1260.27 2253.46 1258.19 Q2251.57 1256.1 2248.42 1256.1 Q2244.85 1256.1 2242.7 1258.12 Q2240.57 1260.13 2240.25 1263.79 L2255.43 1263.76 Z" fill="#000000" fill-rule="nonzero" fill-opacity="1" /><polyline clip-path="url(#clip120)" style="stroke:#ff0000; stroke-linecap:round; stroke-linejoin:round; stroke-width:4; stroke-opacity:1; fill:none" stroke-dasharray="16, 10" points="1894.6,1313.6 2034.2,1313.6 "/>
<path clip-path="url(#clip120)" d="M2083.37 1304.04 Q2083.37 1305.68 2081.03 1305.68 L2075.55 1305.68 Q2074.71 1309.57 2074.71 1313.32 Q2074.71 1317.79 2076.09 1321.24 Q2076.37 1321.92 2076.37 1322.29 Q2076.37 1322.99 2075.74 1323.55 Q2075.13 1324.12 2074.4 1324.12 Q2073.79 1324.12 2073.4 1323.65 Q2073.02 1323.18 2072.69 1321.7 Q2072.3 1319.97 2072.3 1318.05 Q2072.3 1315.76 2072.67 1313.55 Q2073.05 1311.33 2074.31 1305.68 L2068.9 1305.68 L2066.21 1316.29 Q2065.25 1319.88 2064.92 1320.98 Q2064.71 1321.63 2064.64 1321.84 Q2064.57 1322.06 2064.36 1322.57 Q2064.17 1323.06 2064.03 1323.25 Q2063.89 1323.41 2063.65 1323.67 Q2063.42 1323.95 2063.14 1324.02 Q2062.86 1324.12 2062.51 1324.12 Q2061.97 1324.12 2061.54 1323.77 Q2061.12 1323.44 2061.12 1322.81 Q2061.12 1322.38 2061.5 1321.66 Q2065.95 1312.05 2067.63 1305.68 L2064.92 1305.68 Q2061.17 1305.68 2058.83 1309.38 Q2058.45 1309.88 2058.24 1309.92 Q2058.15 1309.95 2058.05 1309.95 Q2057.8 1309.95 2057.63 1309.83 Q2057.49 1309.71 2057.49 1309.59 L2057.47 1309.48 Q2057.47 1309.34 2057.82 1308.7 Q2058.2 1308.05 2058.9 1307.04 Q2059.62 1306.03 2060.4 1305.17 Q2061.15 1304.37 2061.87 1303.88 Q2062.62 1303.36 2063.32 1303.18 Q2064.03 1302.99 2064.43 1302.94 Q2064.82 1302.9 2065.39 1302.9 L2081.45 1302.9 Q2082.06 1302.9 2082.39 1302.94 Q2082.72 1302.97 2083.05 1303.25 Q2083.37 1303.51 2083.37 1304.04 Z" fill="#000000" fill-rule="nonzero" fill-opacity="1" /></svg>
