<?xml version="1.0" encoding="utf-8"?>
<svg xmlns="http://www.w3.org/2000/svg" xmlns:xlink="http://www.w3.org/1999/xlink" width="800" height="1400" viewBox="0 0 3200 5600">
<defs>
  <clipPath id="clip020">
    <rect x="0" y="0" width="3200" height="5600"/>
  </clipPath>
</defs>
<path clip-path="url(#clip020)" d="M0 5600 L3200 5600 L3200 0 L0 0  Z" fill="#ffffff" fill-rule="evenodd" fill-opacity="1"/>
<defs>
  <clipPath id="clip021">
    <rect x="1120" y="559" width="3200" height="3921"/>
  </clipPath>
</defs>
<path clip-path="url(#clip020)" d="M126.341 5429.17 L3152.76 5429.17 L3152.76 47.2441 L126.341 47.2441  Z" fill="#eaeaea" fill-rule="evenodd" fill-opacity="1"/>
<defs>
  <clipPath id="clip022">
    <rect x="126" y="47" width="3027" height="5383"/>
  </clipPath>
</defs>
<polyline clip-path="url(#clip022)" style="stroke:#ffffff; stroke-linecap:round; stroke-linejoin:round; stroke-width:4; stroke-opacity:1; fill:none" points="211.994,5429.17 211.994,47.2441 "/>
<polyline clip-path="url(#clip022)" style="stroke:#ffffff; stroke-linecap:round; stroke-linejoin:round; stroke-width:4; stroke-opacity:1; fill:none" points="925.771,5429.17 925.771,47.2441 "/>
<polyline clip-path="url(#clip022)" style="stroke:#ffffff; stroke-linecap:round; stroke-linejoin:round; stroke-width:4; stroke-opacity:1; fill:none" points="1639.55,5429.17 1639.55,47.2441 "/>
<polyline clip-path="url(#clip022)" style="stroke:#ffffff; stroke-linecap:round; stroke-linejoin:round; stroke-width:4; stroke-opacity:1; fill:none" points="2353.33,5429.17 2353.33,47.2441 "/>
<polyline clip-path="url(#clip022)" style="stroke:#ffffff; stroke-linecap:round; stroke-linejoin:round; stroke-width:4; stroke-opacity:1; fill:none" points="3067.1,5429.17 3067.1,47.2441 "/>
<polyline clip-path="url(#clip022)" style="stroke:#ffffff; stroke-linecap:round; stroke-linejoin:round; stroke-width:2; stroke-opacity:1; fill:none" points="568.883,5429.17 568.883,47.2441 "/>
<polyline clip-path="url(#clip022)" style="stroke:#ffffff; stroke-linecap:round; stroke-linejoin:round; stroke-width:2; stroke-opacity:1; fill:none" points="1282.66,5429.17 1282.66,47.2441 "/>
<polyline clip-path="url(#clip022)" style="stroke:#ffffff; stroke-linecap:round; stroke-linejoin:round; stroke-width:2; stroke-opacity:1; fill:none" points="1996.44,5429.17 1996.44,47.2441 "/>
<polyline clip-path="url(#clip022)" style="stroke:#ffffff; stroke-linecap:round; stroke-linejoin:round; stroke-width:2; stroke-opacity:1; fill:none" points="2710.21,5429.17 2710.21,47.2441 "/>
<polyline clip-path="url(#clip020)" style="stroke:#ffffff; stroke-linecap:round; stroke-linejoin:round; stroke-width:4; stroke-opacity:1; fill:none" points="126.341,5429.17 3152.76,5429.17 "/>
<polyline clip-path="url(#clip020)" style="stroke:#333333; stroke-linecap:round; stroke-linejoin:round; stroke-width:4; stroke-opacity:1; fill:none" points="211.994,5429.17 211.994,5448.07 "/>
<polyline clip-path="url(#clip020)" style="stroke:#333333; stroke-linecap:round; stroke-linejoin:round; stroke-width:4; stroke-opacity:1; fill:none" points="925.771,5429.17 925.771,5448.07 "/>
<polyline clip-path="url(#clip020)" style="stroke:#333333; stroke-linecap:round; stroke-linejoin:round; stroke-width:4; stroke-opacity:1; fill:none" points="1639.55,5429.17 1639.55,5448.07 "/>
<polyline clip-path="url(#clip020)" style="stroke:#333333; stroke-linecap:round; stroke-linejoin:round; stroke-width:4; stroke-opacity:1; fill:none" points="2353.33,5429.17 2353.33,5448.07 "/>
<polyline clip-path="url(#clip020)" style="stroke:#333333; stroke-linecap:round; stroke-linejoin:round; stroke-width:4; stroke-opacity:1; fill:none" points="3067.1,5429.17 3067.1,5448.07 "/>
<polyline clip-path="url(#clip020)" style="stroke:#333333; stroke-linecap:round; stroke-linejoin:round; stroke-width:4; stroke-opacity:1; fill:none" points="568.883,5429.17 568.883,5438.62 "/>
<polyline clip-path="url(#clip020)" style="stroke:#333333; stroke-linecap:round; stroke-linejoin:round; stroke-width:4; stroke-opacity:1; fill:none" points="1282.66,5429.17 1282.66,5438.62 "/>
<polyline clip-path="url(#clip020)" style="stroke:#333333; stroke-linecap:round; stroke-linejoin:round; stroke-width:4; stroke-opacity:1; fill:none" points="1996.44,5429.17 1996.44,5438.62 "/>
<polyline clip-path="url(#clip020)" style="stroke:#333333; stroke-linecap:round; stroke-linejoin:round; stroke-width:4; stroke-opacity:1; fill:none" points="2710.21,5429.17 2710.21,5438.62 "/>
<path clip-path="url(#clip020)" d="M174.298 5508.09 Q170.687 5508.09 168.858 5511.65 Q167.053 5515.19 167.053 5522.32 Q167.053 5529.43 168.858 5532.99 Q170.687 5536.54 174.298 5536.54 Q177.932 5536.54 179.738 5532.99 Q181.566 5529.43 181.566 5522.32 Q181.566 5515.19 179.738 5511.65 Q177.932 5508.09 174.298 5508.09 M174.298 5504.38 Q180.108 5504.38 183.164 5508.99 Q186.242 5513.57 186.242 5522.32 Q186.242 5531.05 183.164 5535.66 Q180.108 5540.24 174.298 5540.24 Q168.488 5540.24 165.409 5535.66 Q162.353 5531.05 162.353 5522.32 Q162.353 5513.57 165.409 5508.99 Q168.488 5504.38 174.298 5504.38 Z" fill="#4c4c4c" fill-rule="nonzero" fill-opacity="1" /><path clip-path="url(#clip020)" d="M194.46 5533.69 L199.344 5533.69 L199.344 5539.57 L194.46 5539.57 L194.46 5533.69 Z" fill="#4c4c4c" fill-rule="nonzero" fill-opacity="1" /><path clip-path="url(#clip020)" d="M219.529 5508.09 Q215.918 5508.09 214.089 5511.65 Q212.284 5515.19 212.284 5522.32 Q212.284 5529.43 214.089 5532.99 Q215.918 5536.54 219.529 5536.54 Q223.163 5536.54 224.969 5532.99 Q226.798 5529.43 226.798 5522.32 Q226.798 5515.19 224.969 5511.65 Q223.163 5508.09 219.529 5508.09 M219.529 5504.38 Q225.339 5504.38 228.395 5508.99 Q231.473 5513.57 231.473 5522.32 Q231.473 5531.05 228.395 5535.66 Q225.339 5540.24 219.529 5540.24 Q213.719 5540.24 210.64 5535.66 Q207.585 5531.05 207.585 5522.32 Q207.585 5513.57 210.64 5508.99 Q213.719 5504.38 219.529 5504.38 Z" fill="#4c4c4c" fill-rule="nonzero" fill-opacity="1" /><path clip-path="url(#clip020)" d="M249.691 5508.09 Q246.08 5508.09 244.251 5511.65 Q242.446 5515.19 242.446 5522.32 Q242.446 5529.43 244.251 5532.99 Q246.08 5536.54 249.691 5536.54 Q253.325 5536.54 255.131 5532.99 Q256.959 5529.43 256.959 5522.32 Q256.959 5515.19 255.131 5511.65 Q253.325 5508.09 249.691 5508.09 M249.691 5504.38 Q255.501 5504.38 258.557 5508.99 Q261.635 5513.57 261.635 5522.32 Q261.635 5531.05 258.557 5535.66 Q255.501 5540.24 249.691 5540.24 Q243.881 5540.24 240.802 5535.66 Q237.747 5531.05 237.747 5522.32 Q237.747 5513.57 240.802 5508.99 Q243.881 5504.38 249.691 5504.38 Z" fill="#4c4c4c" fill-rule="nonzero" fill-opacity="1" /><path clip-path="url(#clip020)" d="M888.573 5508.09 Q884.962 5508.09 883.133 5511.65 Q881.327 5515.19 881.327 5522.32 Q881.327 5529.43 883.133 5532.99 Q884.962 5536.54 888.573 5536.54 Q892.207 5536.54 894.012 5532.99 Q895.841 5529.43 895.841 5522.32 Q895.841 5515.19 894.012 5511.65 Q892.207 5508.09 888.573 5508.09 M888.573 5504.38 Q894.383 5504.38 897.438 5508.99 Q900.517 5513.57 900.517 5522.32 Q900.517 5531.05 897.438 5535.66 Q894.383 5540.24 888.573 5540.24 Q882.762 5540.24 879.684 5535.66 Q876.628 5531.05 876.628 5522.32 Q876.628 5513.57 879.684 5508.99 Q882.762 5504.38 888.573 5504.38 Z" fill="#4c4c4c" fill-rule="nonzero" fill-opacity="1" /><path clip-path="url(#clip020)" d="M908.735 5533.69 L913.619 5533.69 L913.619 5539.57 L908.735 5539.57 L908.735 5533.69 Z" fill="#4c4c4c" fill-rule="nonzero" fill-opacity="1" /><path clip-path="url(#clip020)" d="M927.832 5535.63 L944.151 5535.63 L944.151 5539.57 L922.207 5539.57 L922.207 5535.63 Q924.869 5532.88 929.452 5528.25 Q934.058 5523.6 935.239 5522.25 Q937.484 5519.73 938.364 5517.99 Q939.267 5516.23 939.267 5514.54 Q939.267 5511.79 937.322 5510.05 Q935.401 5508.32 932.299 5508.32 Q930.1 5508.32 927.646 5509.08 Q925.216 5509.85 922.438 5511.4 L922.438 5506.67 Q925.262 5505.54 927.716 5504.96 Q930.17 5504.38 932.207 5504.38 Q937.577 5504.38 940.771 5507.07 Q943.966 5509.75 943.966 5514.24 Q943.966 5516.37 943.156 5518.29 Q942.369 5520.19 940.262 5522.79 Q939.683 5523.46 936.582 5526.67 Q933.48 5529.87 927.832 5535.63 Z" fill="#4c4c4c" fill-rule="nonzero" fill-opacity="1" /><path clip-path="url(#clip020)" d="M954.012 5505.01 L972.368 5505.01 L972.368 5508.94 L958.294 5508.94 L958.294 5517.42 Q959.313 5517.07 960.331 5516.91 Q961.35 5516.72 962.368 5516.72 Q968.156 5516.72 971.535 5519.89 Q974.915 5523.06 974.915 5528.48 Q974.915 5534.06 971.443 5537.16 Q967.97 5540.24 961.651 5540.24 Q959.475 5540.24 957.206 5539.87 Q954.961 5539.5 952.554 5538.76 L952.554 5534.06 Q954.637 5535.19 956.859 5535.75 Q959.081 5536.3 961.558 5536.3 Q965.563 5536.3 967.901 5534.2 Q970.239 5532.09 970.239 5528.48 Q970.239 5524.87 967.901 5522.76 Q965.563 5520.66 961.558 5520.66 Q959.683 5520.66 957.808 5521.07 Q955.956 5521.49 954.012 5522.37 L954.012 5505.01 Z" fill="#4c4c4c" fill-rule="nonzero" fill-opacity="1" /><path clip-path="url(#clip020)" d="M1601.85 5508.09 Q1598.24 5508.09 1596.41 5511.65 Q1594.61 5515.19 1594.61 5522.32 Q1594.61 5529.43 1596.41 5532.99 Q1598.24 5536.54 1601.85 5536.54 Q1605.49 5536.54 1607.29 5532.99 Q1609.12 5529.43 1609.12 5522.32 Q1609.12 5515.19 1607.29 5511.65 Q1605.49 5508.09 1601.85 5508.09 M1601.85 5504.38 Q1607.66 5504.38 1610.72 5508.99 Q1613.8 5513.57 1613.8 5522.32 Q1613.8 5531.05 1610.72 5535.66 Q1607.66 5540.24 1601.85 5540.24 Q1596.04 5540.24 1592.96 5535.66 Q1589.91 5531.05 1589.91 5522.32 Q1589.91 5513.57 1592.96 5508.99 Q1596.04 5504.38 1601.85 5504.38 Z" fill="#4c4c4c" fill-rule="nonzero" fill-opacity="1" /><path clip-path="url(#clip020)" d="M1622.01 5533.69 L1626.9 5533.69 L1626.9 5539.57 L1622.01 5539.57 L1622.01 5533.69 Z" fill="#4c4c4c" fill-rule="nonzero" fill-opacity="1" /><path clip-path="url(#clip020)" d="M1637.13 5505.01 L1655.49 5505.01 L1655.49 5508.94 L1641.41 5508.94 L1641.41 5517.42 Q1642.43 5517.07 1643.45 5516.91 Q1644.47 5516.72 1645.49 5516.72 Q1651.27 5516.72 1654.65 5519.89 Q1658.03 5523.06 1658.03 5528.48 Q1658.03 5534.06 1654.56 5537.16 Q1651.09 5540.24 1644.77 5540.24 Q1642.59 5540.24 1640.32 5539.87 Q1638.08 5539.5 1635.67 5538.76 L1635.67 5534.06 Q1637.75 5535.19 1639.98 5535.75 Q1642.2 5536.3 1644.68 5536.3 Q1648.68 5536.3 1651.02 5534.2 Q1653.36 5532.09 1653.36 5528.48 Q1653.36 5524.87 1651.02 5522.76 Q1648.68 5520.66 1644.68 5520.66 Q1642.8 5520.66 1640.93 5521.07 Q1639.07 5521.49 1637.13 5522.37 L1637.13 5505.01 Z" fill="#4c4c4c" fill-rule="nonzero" fill-opacity="1" /><path clip-path="url(#clip020)" d="M1677.25 5508.09 Q1673.63 5508.09 1671.81 5511.65 Q1670 5515.19 1670 5522.32 Q1670 5529.43 1671.81 5532.99 Q1673.63 5536.54 1677.25 5536.54 Q1680.88 5536.54 1682.68 5532.99 Q1684.51 5529.43 1684.51 5522.32 Q1684.51 5515.19 1682.68 5511.65 Q1680.88 5508.09 1677.25 5508.09 M1677.25 5504.38 Q1683.06 5504.38 1686.11 5508.99 Q1689.19 5513.57 1689.19 5522.32 Q1689.19 5531.05 1686.11 5535.66 Q1683.06 5540.24 1677.25 5540.24 Q1671.43 5540.24 1668.36 5535.66 Q1665.3 5531.05 1665.3 5522.32 Q1665.3 5513.57 1668.36 5508.99 Q1671.43 5504.38 1677.25 5504.38 Z" fill="#4c4c4c" fill-rule="nonzero" fill-opacity="1" /><path clip-path="url(#clip020)" d="M2316.13 5508.09 Q2312.52 5508.09 2310.69 5511.65 Q2308.88 5515.19 2308.88 5522.32 Q2308.88 5529.43 2310.69 5532.99 Q2312.52 5536.54 2316.13 5536.54 Q2319.76 5536.54 2321.57 5532.99 Q2323.4 5529.43 2323.4 5522.32 Q2323.4 5515.19 2321.57 5511.65 Q2319.76 5508.09 2316.13 5508.09 M2316.13 5504.38 Q2321.94 5504.38 2324.99 5508.99 Q2328.07 5513.57 2328.07 5522.32 Q2328.07 5531.05 2324.99 5535.66 Q2321.94 5540.24 2316.13 5540.24 Q2310.32 5540.24 2307.24 5535.66 Q2304.18 5531.05 2304.18 5522.32 Q2304.18 5513.57 2307.24 5508.99 Q2310.32 5504.38 2316.13 5504.38 Z" fill="#4c4c4c" fill-rule="nonzero" fill-opacity="1" /><path clip-path="url(#clip020)" d="M2336.29 5533.69 L2341.17 5533.69 L2341.17 5539.57 L2336.29 5539.57 L2336.29 5533.69 Z" fill="#4c4c4c" fill-rule="nonzero" fill-opacity="1" /><path clip-path="url(#clip020)" d="M2350.18 5505.01 L2372.4 5505.01 L2372.4 5507 L2359.85 5539.57 L2354.97 5539.57 L2366.77 5508.94 L2350.18 5508.94 L2350.18 5505.01 Z" fill="#4c4c4c" fill-rule="nonzero" fill-opacity="1" /><path clip-path="url(#clip020)" d="M2381.57 5505.01 L2399.92 5505.01 L2399.92 5508.94 L2385.85 5508.94 L2385.85 5517.42 Q2386.87 5517.07 2387.89 5516.91 Q2388.9 5516.72 2389.92 5516.72 Q2395.71 5516.72 2399.09 5519.89 Q2402.47 5523.06 2402.47 5528.48 Q2402.47 5534.06 2399 5537.16 Q2395.52 5540.24 2389.21 5540.24 Q2387.03 5540.24 2384.76 5539.87 Q2382.52 5539.5 2380.11 5538.76 L2380.11 5534.06 Q2382.19 5535.19 2384.41 5535.75 Q2386.64 5536.3 2389.11 5536.3 Q2393.12 5536.3 2395.46 5534.2 Q2397.79 5532.09 2397.79 5528.48 Q2397.79 5524.87 2395.46 5522.76 Q2393.12 5520.66 2389.11 5520.66 Q2387.24 5520.66 2385.36 5521.07 Q2383.51 5521.49 2381.57 5522.37 L2381.57 5505.01 Z" fill="#4c4c4c" fill-rule="nonzero" fill-opacity="1" /><path clip-path="url(#clip020)" d="M3019.17 5535.63 L3026.81 5535.63 L3026.81 5509.27 L3018.5 5510.93 L3018.5 5506.67 L3026.77 5505.01 L3031.44 5505.01 L3031.44 5535.63 L3039.08 5535.63 L3039.08 5539.57 L3019.17 5539.57 L3019.17 5535.63 Z" fill="#4c4c4c" fill-rule="nonzero" fill-opacity="1" /><path clip-path="url(#clip020)" d="M3048.53 5533.69 L3053.41 5533.69 L3053.41 5539.57 L3048.53 5539.57 L3048.53 5533.69 Z" fill="#4c4c4c" fill-rule="nonzero" fill-opacity="1" /><path clip-path="url(#clip020)" d="M3073.6 5508.09 Q3069.98 5508.09 3068.16 5511.65 Q3066.35 5515.19 3066.35 5522.32 Q3066.35 5529.43 3068.16 5532.99 Q3069.98 5536.54 3073.6 5536.54 Q3077.23 5536.54 3079.04 5532.99 Q3080.86 5529.43 3080.86 5522.32 Q3080.86 5515.19 3079.04 5511.65 Q3077.23 5508.09 3073.6 5508.09 M3073.6 5504.38 Q3079.41 5504.38 3082.46 5508.99 Q3085.54 5513.57 3085.54 5522.32 Q3085.54 5531.05 3082.46 5535.66 Q3079.41 5540.24 3073.6 5540.24 Q3067.79 5540.24 3064.71 5535.66 Q3061.65 5531.05 3061.65 5522.32 Q3061.65 5513.57 3064.71 5508.99 Q3067.79 5504.38 3073.6 5504.38 Z" fill="#4c4c4c" fill-rule="nonzero" fill-opacity="1" /><path clip-path="url(#clip020)" d="M3103.76 5508.09 Q3100.15 5508.09 3098.32 5511.65 Q3096.51 5515.19 3096.51 5522.32 Q3096.51 5529.43 3098.32 5532.99 Q3100.15 5536.54 3103.76 5536.54 Q3107.39 5536.54 3109.2 5532.99 Q3111.03 5529.43 3111.03 5522.32 Q3111.03 5515.19 3109.2 5511.65 Q3107.39 5508.09 3103.76 5508.09 M3103.76 5504.38 Q3109.57 5504.38 3112.62 5508.99 Q3115.7 5513.57 3115.7 5522.32 Q3115.7 5531.05 3112.62 5535.66 Q3109.57 5540.24 3103.76 5540.24 Q3097.95 5540.24 3094.87 5535.66 Q3091.81 5531.05 3091.81 5522.32 Q3091.81 5513.57 3094.87 5508.99 Q3097.95 5504.38 3103.76 5504.38 Z" fill="#4c4c4c" fill-rule="nonzero" fill-opacity="1" /><polyline clip-path="url(#clip022)" style="stroke:#ffffff; stroke-linecap:round; stroke-linejoin:round; stroke-width:4; stroke-opacity:1; fill:none" points="126.341,5380.47 3152.76,5380.47 "/>
<polyline clip-path="url(#clip022)" style="stroke:#ffffff; stroke-linecap:round; stroke-linejoin:round; stroke-width:4; stroke-opacity:1; fill:none" points="126.341,4344.29 3152.76,4344.29 "/>
<polyline clip-path="url(#clip022)" style="stroke:#ffffff; stroke-linecap:round; stroke-linejoin:round; stroke-width:4; stroke-opacity:1; fill:none" points="126.341,3308.11 3152.76,3308.11 "/>
<polyline clip-path="url(#clip022)" style="stroke:#ffffff; stroke-linecap:round; stroke-linejoin:round; stroke-width:4; stroke-opacity:1; fill:none" points="126.341,2271.92 3152.76,2271.92 "/>
<polyline clip-path="url(#clip022)" style="stroke:#ffffff; stroke-linecap:round; stroke-linejoin:round; stroke-width:4; stroke-opacity:1; fill:none" points="126.341,1235.74 3152.76,1235.74 "/>
<polyline clip-path="url(#clip022)" style="stroke:#ffffff; stroke-linecap:round; stroke-linejoin:round; stroke-width:4; stroke-opacity:1; fill:none" points="126.341,199.563 3152.76,199.563 "/>
<polyline clip-path="url(#clip022)" style="stroke:#ffffff; stroke-linecap:round; stroke-linejoin:round; stroke-width:2; stroke-opacity:1; fill:none" points="126.341,4862.38 3152.76,4862.38 "/>
<polyline clip-path="url(#clip022)" style="stroke:#ffffff; stroke-linecap:round; stroke-linejoin:round; stroke-width:2; stroke-opacity:1; fill:none" points="126.341,3826.2 3152.76,3826.2 "/>
<polyline clip-path="url(#clip022)" style="stroke:#ffffff; stroke-linecap:round; stroke-linejoin:round; stroke-width:2; stroke-opacity:1; fill:none" points="126.341,2790.02 3152.76,2790.02 "/>
<polyline clip-path="url(#clip022)" style="stroke:#ffffff; stroke-linecap:round; stroke-linejoin:round; stroke-width:2; stroke-opacity:1; fill:none" points="126.341,1753.83 3152.76,1753.83 "/>
<polyline clip-path="url(#clip022)" style="stroke:#ffffff; stroke-linecap:round; stroke-linejoin:round; stroke-width:2; stroke-opacity:1; fill:none" points="126.341,717.653 3152.76,717.653 "/>
<polyline clip-path="url(#clip022)" style="stroke:#ffa500; stroke-linecap:round; stroke-linejoin:round; stroke-width:16; stroke-opacity:1; fill:none" points="1214.04,5276.85 1789.26,5173.23 1411.6,5069.61 1608.04,4965.99 1311.17,4862.38 1856.61,4758.76 1693.67,4655.14 1773.71,4551.52 2018.65,4447.9 1087.03,4344.29 1604.7,4240.67 1395.78,4137.05 1726.13,4033.43 1798.79,3929.81 2072.16,3826.2 2085.77,3722.58 1239.04,3618.96 1439.42,3515.34 1098.97,3411.72 1632.7,3308.11 1818.78,3204.49 1432.26,3100.87 2307.99,2997.25 1687.74,2893.63 1451.17,2790.02 1506.26,2686.4 1150.47,2582.78 1432.74,2479.16 1912.86,2375.54 1413.67,2271.92 2193.01,2168.31 939.453,2064.69 1172.03,1961.07 1919.6,1857.45 1147.28,1753.83 1424.28,1650.22 1725.12,1546.6 1437.6,1442.98 2298.43,1339.36 2080.56,1235.74 1102.13,1132.13 1966.21,1028.51 1085.61,924.889 1783.18,821.271 1130.47,717.653 1340.23,614.035 1906.88,510.417 2063.57,406.799 1728.98,303.181 1981.85,199.563 "/>
</svg>
